{
.appVersion = "1271";
classes = (
{
automatic = 1;

glyphs = (
{
glyphname = A;
lastChange = "2019-12-13 07:48:08 +0000";
layers = (
{
anchors = (
{
name = bottom;
position = "{321, 0}";
},
{
name = ogonek;
position = "{618, 0}";
},
{
name = top;
position = "{321, 698}";
}
);
layerId = "E49AE6DE-96A1-45B5-978D-9231980F4AB5";
paths = (
{
closed = 1;
nodes = (
"108 0 LINE",
"178 206 LINE",
"460 206 LINE",
"530 0 LINE",
"618 0 LINE {name = hr00;}",
"374 698 LINE",
"267 698 LINE",
"23 0 LINE"
);
},
{
closed = 1;
nodes = (
"316 620 LINE",
"321 620 LINE",
"439 280 LINE",
"198 280 LINE"
);
}
);
width = 641;
},
{
anchors = (
{
name = bottom;
position = "{343, 0}";
},
{
name = ogonek;
position = "{665, 0}";
},
{
name = top;
position = "{342, 698}";
}
);
layerId = "5E87F462-D40B-43EC-958D-42003ED2F346";
paths = (
{
closed = 1;
nodes = (
"174 0 LINE",
"224 166 LINE",
"457 166 LINE",
"507 0 LINE",
"665 0 LINE",
"438 698 LINE",
"250 698 LINE",
"20 0 LINE"
);
},
{
closed = 1;
nodes = (
"337 560 LINE",
"342 560 LINE",
"420 295 LINE",
"260 295 LINE"
);
}
);
width = 685;
},
{
anchors = (
{
name = bottom;
position = "{300, 0}";
},
{
name = ogonek;
position = "{568, 0}";
},
{
name = top;
position = "{300, 698}";
}
);
layerId = "D69F2138-E7D7-470A-972F-2AC6B0C54BA2";
paths = (
{
closed = 1;
nodes = (
"55 0 LINE",
"140 234 LINE",
"460 234 LINE",
"545 0 LINE",
"568 0 LINE",
"315 698 LINE",
"285 698 LINE",
"32 0 LINE"
);
},
{
closed = 1;
nodes = (
"298 675 LINE",
"301 675 LINE",
"453 253 LINE",
"147 253 LINE"
);
}
);
width = 600;
}
);
leftKerningGroup = uc_a;
rightKerningGroup = uc_a;
unicode = 0041;
},
{
glyphname = Aacute;
lastChange = "2019-12-13 08:05:31 +0000";
layers = (
{
components = (
{
name = A;
},
{
name = acute.case;
transform = "{1, 0, 0, 1, 21, 0}";
}
);
layerId = "E49AE6DE-96A1-45B5-978D-9231980F4AB5";
width = 641;
},
{
background = {
paths = (
{
closed = 1;
nodes = (
"174 0 LINE",
"224 166 LINE",
"457 166 LINE",
"507 0 LINE",
"665 0 LINE",
"438 698 LINE",
"250 698 LINE",
"20 0 LINE"
);
},
{
closed = 1;
nodes = (
"337 560 LINE",
"342 560 LINE",
"420 295 LINE",
"260 295 LINE"
);
},
{
closed = 1;
nodes = (
"489 916 LINE",
"366 977 LINE",
"267 783 LINE",
"355 740 LINE"
);
}
);
};
components = (
{
name = A;
},
{
name = acute.case;
transform = "{1, 0, 0, 1, 41, 0}";
}
);
layerId = "5E87F462-D40B-43EC-958D-42003ED2F346";
width = 685;
},
{
background = {
paths = (
{
closed = 1;
nodes = (
"55 0 LINE",
"140 234 LINE",
"460 234 LINE",
"545 0 LINE",
"568 0 LINE",
"315 698 LINE",
"285 698 LINE",
"32 0 LINE"
);
},
{
closed = 1;
nodes = (
"298 675 LINE",
"301 675 LINE",
"453 253 LINE",
"147 253 LINE"
);
},
{
closed = 1;
nodes = (
"396 919 LINE",
"377 931 LINE",
"266 777 LINE",
"281 767 LINE"
);
}
);
};
components = (
{
name = A;
},
{
name = acute.case;
}
);
layerId = "D69F2138-E7D7-470A-972F-2AC6B0C54BA2";
width = 600;
}
);
leftKerningGroup = uc_a;
rightKerningGroup = uc_a;
unicode = 00C1;
userData = {
com.typemytype.robofont.mark = (
0.6,
0.986,
1,
1
);
};
},
{
glyphname = Abreve;
lastChange = "2019-12-13 08:05:31 +0000";
layers = (
{
components = (
{
name = A;
},
{
name = breve.case;
transform = "{1, 0, 0, 1, 21, 0}";
}
);
layerId = "E49AE6DE-96A1-45B5-978D-9231980F4AB5";
width = 641;
},
{
background = {
paths = (
{
closed = 1;
nodes = (
"174 0 LINE",
"224 166 LINE",
"457 166 LINE",
"507 0 LINE",
"665 0 LINE",
"438 698 LINE",
"250 698 LINE",
"20 0 LINE"
);
},
{
closed = 1;
nodes = (
"337 560 LINE",
"342 560 LINE",
"420 295 LINE",
"260 295 LINE"
);
},
{
closed = 1;
nodes = (
"452 740 OFFCURVE",
"505 838 OFFCURVE",
"529 910 CURVE",
"449 952 LINE",
"430 920 LINE SMOOTH",
"401 871 OFFCURVE",
"376 843 OFFCURVE",
"339 843 CURVE SMOOTH",
"302 843 OFFCURVE",
"278 871 OFFCURVE",
"249 920 CURVE SMOOTH",
"230 952 LINE",
"149 910 LINE",
"173 838 OFFCURVE",
"221 740 OFFCURVE",
"339 740 CURVE SMOOTH"
);
}
);
};
components = (
{
name = A;
},
{
name = breve.case;
transform = "{1, 0, 0, 1, 42, 0}";
}
);
layerId = "5E87F462-D40B-43EC-958D-42003ED2F346";
width = 685;
},
{
background = {
paths = (
{
closed = 1;
nodes = (
"55 0 LINE",
"140 234 LINE",
"460 234 LINE",
"545 0 LINE",
"568 0 LINE",
"315 698 LINE",
"285 698 LINE",
"32 0 LINE"
);
},
{
closed = 1;
nodes = (
"298 675 LINE",
"301 675 LINE",
"453 253 LINE",
"147 253 LINE"
);
},
{
closed = 1;
nodes = (
"367 786 OFFCURVE",
"394 830 OFFCURVE",
"431 903 CURVE",
"415 910 LINE",
"400 883 LINE SMOOTH",
"365 820 OFFCURVE",
"343 805 OFFCURVE",
"299 805 CURVE SMOOTH",
"255 805 OFFCURVE",
"233 820 OFFCURVE",
"198 883 CURVE SMOOTH",
"183 910 LINE",
"167 903 LINE",
"204 830 OFFCURVE",
"231 786 OFFCURVE",
"299 786 CURVE SMOOTH"
);
}
);
};
components = (
{
name = A;
},
{
name = breve.case;
}
);
layerId = "D69F2138-E7D7-470A-972F-2AC6B0C54BA2";
width = 600;
}
);
leftKerningGroup = uc_a;
rightKerningGroup = uc_a;
unicode = 0102;
userData = {
com.typemytype.robofont.mark = (
0.6,
0.986,
1,
1
);
};
},
{
glyphname = Acircumflexdotbelow;
lastChange = "2019-12-13 08:05:31 +0000";
layers = (
{
components = (
{
name = dotbelowcomb;
transform = "{1, 0, 0, 1, 321, 0}";
},
{
name = A;
},
{
name = circumflex.case;
transform = "{1, 0, 0, 1, 21, 0}";
}
);
layerId = "E49AE6DE-96A1-45B5-978D-9231980F4AB5";
width = 641;
},
{
background = {
paths = (
{
closed = 1;
nodes = (
"174 0 LINE",
"224 166 LINE",
"457 166 LINE",
"507 0 LINE",
"665 0 LINE",
"438 698 LINE",
"250 698 LINE",
"20 0 LINE"
);
},
{
closed = 1;
nodes = (
"398 -204 OFFCURVE",
"420 -176 OFFCURVE",
"420 -141 CURVE SMOOTH",
"420 -115 LINE SMOOTH",
"420 -80 OFFCURVE",
"398 -52 OFFCURVE",
"339 -52 CURVE SMOOTH",
"280 -52 OFFCURVE",
"258 -80 OFFCURVE",
"258 -115 CURVE SMOOTH",
"258 -141 LINE SMOOTH",
"258 -176 OFFCURVE",
"280 -204 OFFCURVE",
"339 -204 CURVE SMOOTH"
);
},
{
closed = 1;
nodes = (
"337 560 LINE",
"342 560 LINE",
"420 295 LINE",
"260 295 LINE"
);
},
{
closed = 1;
nodes = (
"339 854 LINE",
"460 739 LINE",
"533 797 LINE",
"401 956 LINE",
"277 956 LINE",
"145 797 LINE",
"218 739 LINE"
);
}
);
};
components = (
{
name = dotbelowcomb;
transform = "{1, 0, 0, 1, 343, 0}";
},
{
name = A;
},
{
name = circumflex.case;
transform = "{1, 0, 0, 1, 42, 0}";
}
);
layerId = "5E87F462-D40B-43EC-958D-42003ED2F346";
width = 685;
},
{
background = {
paths = (
{
closed = 1;
nodes = (
"55 0 LINE",
"140 234 LINE",
"460 234 LINE",
"545 0 LINE",
"568 0 LINE",
"315 698 LINE",
"285 698 LINE",
"32 0 LINE"
);
},
{
closed = 1;
nodes = (
"323 -134 OFFCURVE",
"329 -124 OFFCURVE",
"329 -113 CURVE SMOOTH",
"329 -106 LINE SMOOTH",
"329 -95 OFFCURVE",
"323 -85 OFFCURVE",
"306 -85 CURVE SMOOTH",
"289 -85 OFFCURVE",
"283 -95 OFFCURVE",
"283 -106 CURVE SMOOTH",
"283 -113 LINE SMOOTH",
"283 -124 OFFCURVE",
"289 -134 OFFCURVE",
"306 -134 CURVE SMOOTH"
);
},
{
closed = 1;
nodes = (
"298 675 LINE",
"301 675 LINE",
"453 253 LINE",
"147 253 LINE"
);
},
{
closed = 1;
nodes = (
"299 906 LINE",
"425 779 LINE",
"439 790 LINE",
"311 923 LINE",
"287 923 LINE",
"159 790 LINE",
"173 779 LINE"
);
}
);
};
components = (
{
name = dotbelowcomb;
transform = "{1, 0, 0, 1, 300, 0}";
},
{
name = A;
},
{
name = circumflex.case;
}
);
layerId = "D69F2138-E7D7-470A-972F-2AC6B0C54BA2";
width = 600;
}
);
leftKerningGroup = uc_a;
rightKerningGroup = uc_a;
unicode = 1EAC;
userData = {
com.typemytype.robofont.mark = (
0.6,
0.986,
1,
1
);
};
},
{
glyphname = Acircumflexgrave;
lastChange = "2019-12-13 08:05:31 +0000";
layers = (
{
background = {
anchors = (
{
name = bottom;
position = "{322, 0}";
},
{
name = bottomright;
position = "{618, 0}";
}
);
components = (
{
name = A;
},
{
name = circumflexgrave.case;
transform = "{1, 0, 0, 1, 321, 0}";
}
);
};
components = (
{
name = A;
},
{
name = circumflexgrave.case;
transform = "{1, 0, 0, 1, 321, 0}";
}
);
layerId = "E49AE6DE-96A1-45B5-978D-9231980F4AB5";
width = 641;
},
{
background = {
paths = (
{
closed = 1;
nodes = (
"174 0 LINE",
"224 166 LINE",
"457 166 LINE",
"507 0 LINE",
"665 0 LINE",
"438 698 LINE",
"250 698 LINE",
"20 0 LINE"
);
},
{
closed = 1;
nodes = (
"337 560 LINE",
"342 560 LINE",
"420 295 LINE",
"260 295 LINE"
);
},
{
closed = 1;
nodes = (
"245 933 LINE",
"146 1127 LINE",
"32 1070 LINE",
"166 894 LINE"
);
},
{
closed = 1;
nodes = (
"339 835 LINE",
"463 731 LINE",
"531 795 LINE",
"386 942 LINE",
"292 942 LINE",
"147 795 LINE",
"215 731 LINE"
);
}
);
};
components = (
{
name = A;
},
{
name = circumflexgrave.case;
transform = "{1, 0, 0, 1, 342, 0}";
}
);
layerId = "5E87F462-D40B-43EC-958D-42003ED2F346";
width = 685;
},
{
background = {
paths = (
{
closed = 1;
nodes = (
"55 0 LINE",
"140 234 LINE",
"460 234 LINE",
"545 0 LINE",
"568 0 LINE",
"315 698 LINE",
"285 698 LINE",
"32 0 LINE"
);
},
{
closed = 1;
nodes = (
"298 675 LINE",
"301 675 LINE",
"453 253 LINE",
"147 253 LINE"
);
},
{
closed = 1;
nodes = (
"200 887 LINE",
"89 1041 LINE",
"70 1029 LINE",
"185 877 LINE"
);
},
{
closed = 1;
nodes = (
"299 898 LINE",
"425 771 LINE",
"439 782 LINE",
"311 915 LINE",
"287 915 LINE",
"159 782 LINE",
"173 771 LINE"
);
}
);
};
components = (
{
name = A;
},
{
name = circumflexgrave.case;
transform = "{1, 0, 0, 1, 300, 0}";
}
);
layerId = "D69F2138-E7D7-470A-972F-2AC6B0C54BA2";
width = 600;
}
);
leftKerningGroup = uc_a;
rightKerningGroup = uc_a;
unicode = 1EA6;
userData = {
com.typemytype.robofont.mark = (
0.6,
0.986,
1,
1
);
};
},
{
glyphname = Acircumflexhookabove;
lastChange = "2019-12-13 08:05:31 +0000";
layers = (
{
background = {
components = (
{
name = A;
}
);
};
components = (
{
name = A;
},
{
name = circumflexhook.case;
transform = "{1, 0, 0, 1, 321, 0}";
}
);
layerId = "E49AE6DE-96A1-45B5-978D-9231980F4AB5";
width = 641;
},
{
background = {
paths = (
{
closed = 1;
nodes = (
"174 0 LINE",
"224 166 LINE",
"457 166 LINE",
"507 0 LINE",
"665 0 LINE",
"438 698 LINE",
"250 698 LINE",
"20 0 LINE"
);
},
{
closed = 1;
nodes = (
"337 560 LINE",
"342 560 LINE",
"420 295 LINE",
"260 295 LINE"
);
},
{
closed = 1;
nodes = (
"339 835 LINE",
"463 731 LINE",
"531 795 LINE",
"386 942 LINE",
"292 942 LINE",
"147 795 LINE",
"215 731 LINE"
);
},
{
closed = 1;
nodes = (
"546 914 LINE SMOOTH",
"579 954 OFFCURVE",
"609 1001 OFFCURVE",
"609 1041 CURVE SMOOTH",
"609 1079 OFFCURVE",
"585 1113 OFFCURVE",
"511 1113 CURVE SMOOTH",
"377 1113 LINE",
"377 1012 LINE",
"496 1012 LINE",
"453 915 LINE",
"519 881 LINE"
);
}
);
};
components = (
{
name = A;
},
{
name = circumflexhook.case;
transform = "{1, 0, 0, 1, 342, 0}";
}
);
layerId = "5E87F462-D40B-43EC-958D-42003ED2F346";
width = 685;
},
{
background = {
paths = (
{
closed = 1;
nodes = (
"55 0 LINE",
"140 234 LINE",
"460 234 LINE",
"545 0 LINE",
"568 0 LINE",
"315 698 LINE",
"285 698 LINE",
"32 0 LINE"
);
},
{
closed = 1;
nodes = (
"298 675 LINE",
"301 675 LINE",
"453 253 LINE",
"147 253 LINE"
);
},
{
closed = 1;
nodes = (
"299 898 LINE",
"425 771 LINE",
"439 782 LINE",
"311 915 LINE",
"287 915 LINE",
"159 782 LINE",
"173 771 LINE"
);
},
{
closed = 1;
nodes = (
"467 951 LINE SMOOTH",
"493 991 OFFCURVE",
"498 1001 OFFCURVE",
"498 1009 CURVE SMOOTH",
"498 1020 OFFCURVE",
"490 1027 OFFCURVE",
"475 1027 CURVE SMOOTH",
"338 1027 LINE",
"338 1009 LINE",
"479 1009 LINE",
"402 883 LINE",
"418 875 LINE"
);
}
);
};
components = (
{
name = A;
},
{
name = circumflexhook.case;
transform = "{1, 0, 0, 1, 300, 0}";
}
);
layerId = "D69F2138-E7D7-470A-972F-2AC6B0C54BA2";
width = 600;
}
);
rightKerningGroup = uc_a;
unicode = 1EA8;
userData = {
com.typemytype.robofont.mark = (
0.6,
0.986,
1,
1
);
};
},
{
glyphname = Acircumflextilde;
lastChange = "2019-12-13 08:05:31 +0000";
layers = (
{
background = {
anchors = (
{
name = bottom;
position = "{322, 0}";
},
{
name = bottomright;
position = "{618, 0}";
}
);
components = (
{
name = A;
},
{
name = circumflextilde.case;
transform = "{1, 0, 0, 1, 321, 0}";
}
);
};
components = (
{
name = A;
},
{
name = circumflextilde.case;
transform = "{1, 0, 0, 1, 321, 0}";
}
);
layerId = "E49AE6DE-96A1-45B5-978D-9231980F4AB5";
width = 641;
},
{
background = {
paths = (
{
closed = 1;
nodes = (
"174 0 LINE",
"224 166 LINE",
"457 166 LINE",
"507 0 LINE",
"665 0 LINE",
"438 698 LINE",
"250 698 LINE",
"20 0 LINE"
);
},
{
closed = 1;
nodes = (
"337 560 LINE",
"342 560 LINE",
"420 295 LINE",
"260 295 LINE"
);
},
{
closed = 1;
nodes = (
"339 826 LINE",
"463 731 LINE",
"529 795 LINE",
"387 929 LINE",
"291 929 LINE",
"149 795 LINE",
"215 731 LINE"
);
},
{
closed = 1;
nodes = (
"467 958 OFFCURVE",
"504 986 OFFCURVE",
"528 1022 CURVE",
"478 1086 LINE",
"457 1069 OFFCURVE",
"442 1061 OFFCURVE",
"419 1061 CURVE SMOOTH",
"393 1061 OFFCURVE",
"370 1071 OFFCURVE",
"341 1083 CURVE SMOOTH",
"316 1094 OFFCURVE",
"294 1103 OFFCURVE",
"264 1103 CURVE SMOOTH",
"211 1103 OFFCURVE",
"174 1075 OFFCURVE",
"150 1039 CURVE",
"200 975 LINE",
"221 992 OFFCURVE",
"236 1000 OFFCURVE",
"259 1000 CURVE SMOOTH",
"285 1000 OFFCURVE",
"308 990 OFFCURVE",
"337 978 CURVE SMOOTH",
"362 967 OFFCURVE",
"384 958 OFFCURVE",
"414 958 CURVE SMOOTH"
);
}
);
};
components = (
{
name = A;
},
{
name = circumflextilde.case;
transform = "{1, 0, 0, 1, 342, 0}";
}
);
layerId = "5E87F462-D40B-43EC-958D-42003ED2F346";
width = 685;
},
{
background = {
paths = (
{
closed = 1;
nodes = (
"55 0 LINE",
"140 234 LINE",
"460 234 LINE",
"545 0 LINE",
"568 0 LINE",
"315 698 LINE",
"285 698 LINE",
"32 0 LINE"
);
},
{
closed = 1;
nodes = (
"298 675 LINE",
"301 675 LINE",
"453 253 LINE",
"147 253 LINE"
);
},
{
closed = 1;
nodes = (
"299 898 LINE",
"425 771 LINE",
"439 782 LINE",
"311 915 LINE",
"287 915 LINE",
"159 782 LINE",
"173 771 LINE"
);
},
{
closed = 1;
nodes = (
"398 953 OFFCURVE",
"424 965 OFFCURVE",
"448 992 CURVE",
"436 1004 LINE",
"415 982 OFFCURVE",
"395 971 OFFCURVE",
"371 971 CURVE SMOOTH",
"352 971 OFFCURVE",
"334 978 OFFCURVE",
"305 997 CURVE SMOOTH",
"271 1019 OFFCURVE",
"251 1027 OFFCURVE",
"228 1027 CURVE SMOOTH",
"200 1027 OFFCURVE",
"174 1015 OFFCURVE",
"150 988 CURVE",
"162 976 LINE",
"183 998 OFFCURVE",
"203 1009 OFFCURVE",
"227 1009 CURVE SMOOTH",
"246 1009 OFFCURVE",
"264 1002 OFFCURVE",
"293 983 CURVE SMOOTH",
"327 961 OFFCURVE",
"347 953 OFFCURVE",
"370 953 CURVE SMOOTH"
);
}
);
};
components = (
{
name = A;
},
{
name = circumflextilde.case;
transform = "{1, 0, 0, 1, 300, 0}";
}
);
layerId = "D69F2138-E7D7-470A-972F-2AC6B0C54BA2";
width = 600;
}
);
leftKerningGroup = uc_a;
rightKerningGroup = uc_a;
unicode = 1EAA;
userData = {
com.typemytype.robofont.mark = (
0.6,
0.986,
1,
1
);
};
},
{
glyphname = Adieresis;
lastChange = "2019-12-13 08:05:31 +0000";
layers = (
{
components = (
{
name = A;
},
{
name = dieresis.case;
transform = "{1, 0, 0, 1, 21, 0}";
}
);
layerId = "E49AE6DE-96A1-45B5-978D-9231980F4AB5";
width = 641;
},
{
background = {
paths = (
{
closed = 1;
nodes = (
"174 0 LINE",
"224 166 LINE",
"457 166 LINE",
"507 0 LINE",
"665 0 LINE",
"438 698 LINE",
"250 698 LINE",
"20 0 LINE"
);
},
{
closed = 1;
nodes = (
"337 560 LINE",
"342 560 LINE",
"420 295 LINE",
"260 295 LINE"
);
},
{
closed = 1;
nodes = (
"289 761 OFFCURVE",
"309 789 OFFCURVE",
"309 824 CURVE SMOOTH",
"309 849 LINE SMOOTH",
"309 884 OFFCURVE",
"289 912 OFFCURVE",
"229 912 CURVE SMOOTH",
"169 912 OFFCURVE",
"149 884 OFFCURVE",
"149 849 CURVE SMOOTH",
"149 824 LINE SMOOTH",
"149 789 OFFCURVE",
"169 761 OFFCURVE",
"229 761 CURVE SMOOTH"
);
},
{
closed = 1;
nodes = (
"509 761 OFFCURVE",
"529 789 OFFCURVE",
"529 824 CURVE SMOOTH",
"529 849 LINE SMOOTH",
"529 884 OFFCURVE",
"509 912 OFFCURVE",
"449 912 CURVE SMOOTH",
"389 912 OFFCURVE",
"369 884 OFFCURVE",
"369 849 CURVE SMOOTH",
"369 824 LINE SMOOTH",
"369 789 OFFCURVE",
"389 761 OFFCURVE",
"449 761 CURVE SMOOTH"
);
}
);
};
components = (
{
name = A;
},
{
name = dieresis.case;
transform = "{1, 0, 0, 1, 42, 0}";
}
);
layerId = "5E87F462-D40B-43EC-958D-42003ED2F346";
width = 685;
},
{
background = {
paths = (
{
closed = 1;
nodes = (
"55 0 LINE",
"140 234 LINE",
"460 234 LINE",
"545 0 LINE",
"568 0 LINE",
"315 698 LINE",
"285 698 LINE",
"32 0 LINE"
);
},
{
closed = 1;
nodes = (
"298 675 LINE",
"301 675 LINE",
"453 253 LINE",
"147 253 LINE"
);
},
{
closed = 1;
nodes = (
"225 819 OFFCURVE",
"231 829 OFFCURVE",
"231 840 CURVE SMOOTH",
"231 847 LINE SMOOTH",
"231 858 OFFCURVE",
"225 868 OFFCURVE",
"208 868 CURVE SMOOTH",
"191 868 OFFCURVE",
"185 858 OFFCURVE",
"185 847 CURVE SMOOTH",
"185 840 LINE SMOOTH",
"185 829 OFFCURVE",
"191 819 OFFCURVE",
"208 819 CURVE SMOOTH"
);
},
{
closed = 1;
nodes = (
"407 819 OFFCURVE",
"413 829 OFFCURVE",
"413 840 CURVE SMOOTH",
"413 847 LINE SMOOTH",
"413 858 OFFCURVE",
"407 868 OFFCURVE",
"390 868 CURVE SMOOTH",
"373 868 OFFCURVE",
"367 858 OFFCURVE",
"367 847 CURVE SMOOTH",
"367 840 LINE SMOOTH",
"367 829 OFFCURVE",
"373 819 OFFCURVE",
"390 819 CURVE SMOOTH"
);
}
);
};
components = (
{
name = A;
},
{
name = dieresis.case;
}
);
layerId = "D69F2138-E7D7-470A-972F-2AC6B0C54BA2";
width = 600;
}
);
leftKerningGroup = uc_a;
rightKerningGroup = uc_a;
unicode = 00C4;
userData = {
com.typemytype.robofont.mark = (
0.6,
0.986,
1,
1
);
};
},
{
glyphname = Adotbelow;
lastChange = "2019-12-11 12:11:19 +0000";
layers = (
{
components = (
{
name = A;
},
{
name = dotbelowcomb;
transform = "{1, 0, 0, 1, 321, 0}";
}
);
layerId = "E49AE6DE-96A1-45B5-978D-9231980F4AB5";
width = 641;
},
{
background = {
paths = (
{
closed = 1;
nodes = (
"174 0 LINE",
"224 166 LINE",
"457 166 LINE",
"507 0 LINE",
"665 0 LINE",
"438 698 LINE",
"250 698 LINE",
"20 0 LINE"
);
},
{
closed = 1;
nodes = (
"398 -204 OFFCURVE",
"420 -176 OFFCURVE",
"420 -141 CURVE SMOOTH",
"420 -115 LINE SMOOTH",
"420 -80 OFFCURVE",
"398 -52 OFFCURVE",
"339 -52 CURVE SMOOTH",
"280 -52 OFFCURVE",
"258 -80 OFFCURVE",
"258 -115 CURVE SMOOTH",
"258 -141 LINE SMOOTH",
"258 -176 OFFCURVE",
"280 -204 OFFCURVE",
"339 -204 CURVE SMOOTH"
);
},
{
closed = 1;
nodes = (
"337 560 LINE",
"342 560 LINE",
"420 295 LINE",
"260 295 LINE"
);
}
);
};
components = (
{
name = A;
},
{
name = dotbelowcomb;
transform = "{1, 0, 0, 1, 343, 0}";
}
);
layerId = "5E87F462-D40B-43EC-958D-42003ED2F346";
width = 685;
},
{
background = {
paths = (
{
closed = 1;
nodes = (
"55 0 LINE",
"140 234 LINE",
"460 234 LINE",
"545 0 LINE",
"568 0 LINE",
"315 698 LINE",
"285 698 LINE",
"32 0 LINE"
);
},
{
closed = 1;
nodes = (
"323 -134 OFFCURVE",
"329 -124 OFFCURVE",
"329 -113 CURVE SMOOTH",
"329 -106 LINE SMOOTH",
"329 -95 OFFCURVE",
"323 -85 OFFCURVE",
"306 -85 CURVE SMOOTH",
"289 -85 OFFCURVE",
"283 -95 OFFCURVE",
"283 -106 CURVE SMOOTH",
"283 -113 LINE SMOOTH",
"283 -124 OFFCURVE",
"289 -134 OFFCURVE",
"306 -134 CURVE SMOOTH"
);
},
{
closed = 1;
nodes = (
"298 675 LINE",
"301 675 LINE",
"453 253 LINE",
"147 253 LINE"
);
}
);
};
components = (
{
name = A;
},
{
name = dotbelowcomb;
transform = "{1, 0, 0, 1, 300, 0}";
}
);
layerId = "D69F2138-E7D7-470A-972F-2AC6B0C54BA2";
width = 600;
}
);
leftKerningGroup = uc_a;
rightKerningGroup = uc_a;
unicode = 1EA0;
userData = {
com.typemytype.robofont.mark = (
0.6,
0.986,
1,
1
);
};
},
{
glyphname = Agrave;
lastChange = "2019-12-13 08:05:31 +0000";
layers = (
{
components = (
{
name = A;
},
{
name = grave.case;
transform = "{1, 0, 0, 1, 21, 0}";
}
);
layerId = "E49AE6DE-96A1-45B5-978D-9231980F4AB5";
width = 641;
},
{
background = {
paths = (
{
closed = 1;
nodes = (
"174 0 LINE",
"224 166 LINE",
"457 166 LINE",
"507 0 LINE",
"665 0 LINE",
"438 698 LINE",
"250 698 LINE",
"20 0 LINE"
);
},
{
closed = 1;
nodes = (
"337 560 LINE",
"342 560 LINE",
"420 295 LINE",
"260 295 LINE"
);
},
{
closed = 1;
nodes = (
"411 783 LINE",
"312 977 LINE",
"189 916 LINE",
"323 740 LINE"
);
}
);
};
components = (
{
name = A;
},
{
name = grave.case;
transform = "{1, 0, 0, 1, 42, 0}";
}
);
layerId = "5E87F462-D40B-43EC-958D-42003ED2F346";
width = 685;
},
{
background = {
paths = (
{
closed = 1;
nodes = (
"55 0 LINE",
"140 234 LINE",
"460 234 LINE",
"545 0 LINE",
"568 0 LINE",
"315 698 LINE",
"285 698 LINE",
"32 0 LINE"
);
},
{
closed = 1;
nodes = (
"298 675 LINE",
"301 675 LINE",
"453 253 LINE",
"147 253 LINE"
);
},
{
closed = 1;
nodes = (
"331 777 LINE",
"220 931 LINE",
"201 919 LINE",
"316 767 LINE"
);
}
);
};
components = (
{
name = A;
},
{
name = grave.case;
}
);
layerId = "D69F2138-E7D7-470A-972F-2AC6B0C54BA2";
width = 600;
}
);
leftKerningGroup = uc_a;
rightKerningGroup = uc_a;
unicode = 00C0;
userData = {
com.typemytype.robofont.mark = (
0.6,
0.986,
1,
1
);
};
},
{
glyphname = Ahookabove;
lastChange = "2019-12-13 08:05:31 +0000";
layers = (
{
background = {
components = (
{
name = hookcomb.case;
transform = "{1, 0, 0, 1, 321, 0}";
}
);
};
components = (
{
name = A;
},
{
name = hookabovecomb;
transform = "{1, 0, 0, 1, 321, 170}";
}
);
layerId = "E49AE6DE-96A1-45B5-978D-9231980F4AB5";
width = 641;
},
{
background = {
paths = (
{
closed = 1;
nodes = (
"174 0 LINE",
"224 166 LINE",
"457 166 LINE",
"507 0 LINE",
"665 0 LINE",
"438 698 LINE",
"250 698 LINE",
"20 0 LINE"
);
},
{
closed = 1;
nodes = (
"337 560 LINE",
"342 560 LINE",
"420 295 LINE",
"260 295 LINE"
);
},
{
closed = 1;
nodes = (
"403 764 LINE SMOOTH",
"436 804 OFFCURVE",
"460 851 OFFCURVE",
"460 890 CURVE SMOOTH",
"460 929 OFFCURVE",
"437 963 OFFCURVE",
"362 963 CURVE SMOOTH",
"219 963 LINE",
"219 857 LINE",
"341 857 LINE",
"300 765 LINE",
"375 730 LINE"
);
}
);
};
components = (
{
name = A;
},
{
name = hookabovecomb;
transform = "{1, 0, 0, 1, 342, 159}";
}
);
layerId = "5E87F462-D40B-43EC-958D-42003ED2F346";
width = 685;
},
{
background = {
paths = (
{
closed = 1;
nodes = (
"55 0 LINE",
"140 234 LINE",
"460 234 LINE",
"545 0 LINE",
"568 0 LINE",
"315 698 LINE",
"285 698 LINE",
"32 0 LINE"
);
},
{
closed = 1;
nodes = (
"298 675 LINE",
"301 675 LINE",
"453 253 LINE",
"147 253 LINE"
);
},
{
closed = 1;
nodes = (
"354 841 LINE SMOOTH",
"380 881 OFFCURVE",
"385 891 OFFCURVE",
"385 899 CURVE SMOOTH",
"385 910 OFFCURVE",
"377 917 OFFCURVE",
"362 917 CURVE SMOOTH",
"225 917 LINE",
"225 899 LINE",
"366 899 LINE",
"289 773 LINE",
"305 765 LINE"
);
}
);
};
components = (
{
name = A;
},
{
name = hookabovecomb;
transform = "{1, 0, 0, 1, 299, 180}";
}
);
layerId = "D69F2138-E7D7-470A-972F-2AC6B0C54BA2";
width = 600;
}
);
rightKerningGroup = uc_a;
unicode = 1EA2;
userData = {
com.typemytype.robofont.mark = (
0.6,
0.986,
1,
1
);
};
},
{
glyphname = Amacron;
lastChange = "2019-12-13 08:05:31 +0000";
layers = (
{
components = (
{
name = A;
},
{
name = macron.case;
transform = "{1, 0, 0, 1, 21, 0}";
}
);
layerId = "E49AE6DE-96A1-45B5-978D-9231980F4AB5";
width = 641;
},
{
background = {
paths = (
{
closed = 1;
nodes = (
"174 0 LINE",
"224 166 LINE",
"457 166 LINE",
"507 0 LINE",
"665 0 LINE",
"438 698 LINE",
"250 698 LINE",
"20 0 LINE"
);
},
{
closed = 1;
nodes = (
"337 560 LINE",
"342 560 LINE",
"420 295 LINE",
"260 295 LINE"
);
},
{
closed = 1;
nodes = (
"492 785 LINE",
"492 888 LINE",
"186 888 LINE",
"186 785 LINE"
);
}
);
};
components = (
{
name = A;
},
{
name = macron.case;
transform = "{1, 0, 0, 1, 42, 0}";
}
);
layerId = "5E87F462-D40B-43EC-958D-42003ED2F346";
width = 685;
},
{
background = {
paths = (
{
closed = 1;
nodes = (
"55 0 LINE",
"140 234 LINE",
"460 234 LINE",
"545 0 LINE",
"568 0 LINE",
"315 698 LINE",
"285 698 LINE",
"32 0 LINE"
);
},
{
closed = 1;
nodes = (
"298 675 LINE",
"301 675 LINE",
"453 253 LINE",
"147 253 LINE"
);
},
{
closed = 1;
nodes = (
"428 838 LINE",
"428 856 LINE",
"170 856 LINE",
"170 838 LINE"
);
}
);
};
components = (
{
name = A;
},
{
name = macron.case;
}
);
layerId = "D69F2138-E7D7-470A-972F-2AC6B0C54BA2";
width = 600;
}
);
leftKerningGroup = uc_a;
rightKerningGroup = uc_a;
unicode = 0100;
userData = {
com.typemytype.robofont.mark = (
0.6,
0.986,
1,
1
);
};
},
{
glyphname = Aogonek;
lastChange = "2019-12-11 12:22:05 +0000";
layers = (
{
layerId = "E49AE6DE-96A1-45B5-978D-9231980F4AB5";
paths = (
{
closed = 1;
nodes = (
"597 -207 OFFCURVE",
"627 -189 OFFCURVE",
"639 -168 CURVE",
"599 -129 LINE",
"587 -144 OFFCURVE",
"570 -153 OFFCURVE",
"551 -153 CURVE SMOOTH",
"533 -153 OFFCURVE",
"520 -145 OFFCURVE",
"520 -123 CURVE SMOOTH",
"520 -101 OFFCURVE",
"533 -78 OFFCURVE",
"618 0 CURVE",
"374 698 LINE",
"267 698 LINE",
"23 0 LINE {name = hr00;}",
"108 0 LINE",
"178 206 LINE",
"460 206 LINE",
"530 0 LINE",
"556 0 LINE",
"557 -4 LINE",
"503 -43 OFFCURVE",
"456 -80 OFFCURVE",
"456 -131 CURVE SMOOTH",
"456 -184 OFFCURVE",
"499 -207 OFFCURVE",
"551 -207 CURVE SMOOTH"
);
},
{
closed = 1;
nodes = (
"316 620 LINE",
"321 620 LINE",
"439 280 LINE",
"198 280 LINE"
);
}
);
width = 641;
},
{
layerId = "5E87F462-D40B-43EC-958D-42003ED2F346";
paths = (
{
closed = 1;
nodes = (
"638 -212 OFFCURVE",
"680 -193 OFFCURVE",
"697 -161 CURVE",
"644 -110 LINE",
"630 -126 OFFCURVE",
"613 -138 OFFCURVE",
"589 -138 CURVE SMOOTH",
"569 -138 OFFCURVE",
"551 -130 OFFCURVE",
"551 -105 CURVE SMOOTH",
"551 -81 OFFCURVE",
"567 -60 OFFCURVE",
"665 0 CURVE",
"438 698 LINE",
"250 698 LINE",
"20 0 LINE",
"174 0 LINE",
"224 166 LINE",
"457 166 LINE",
"507 0 LINE",
"569 0 LINE",
"570 -4 LINE",
"496 -38 OFFCURVE",
"451 -71 OFFCURVE",
"451 -127 CURVE SMOOTH",
"451 -191 OFFCURVE",
"509 -212 OFFCURVE",
"575 -212 CURVE SMOOTH"
);
},
{
closed = 1;
nodes = (
"337 560 LINE",
"342 560 LINE",
"420 295 LINE",
"260 295 LINE"
);
}
);
width = 685;
},
{
background = {
paths = (
{
closed = 1;
nodes = (
"553 -202 OFFCURVE",
"579 -188 OFFCURVE",
"592 -170 CURVE",
"578 -159 LINE",
"568 -171 OFFCURVE",
"550 -184 OFFCURVE",
"518 -184 CURVE SMOOTH",
"483 -184 OFFCURVE",
"459 -168 OFFCURVE",
"459 -132 CURVE SMOOTH",
"459 -82 OFFCURVE",
"496 -48 OFFCURVE",
"568 0 CURVE",
"315 698 LINE",
"285 698 LINE",
"32 0 LINE",
"55 0 LINE",
"140 234 LINE",
"461 234 LINE",
"545 0 LINE",
"460 -49 OFFCURVE",
"437 -94 OFFCURVE",
"437 -133 CURVE SMOOTH",
"437 -177 OFFCURVE",
"472 -202 OFFCURVE",
"517 -202 CURVE SMOOTH"
);
},
{
closed = 1;
nodes = (
"298 675 LINE",
"301 675 LINE",
"454 253 LINE",
"147 253 LINE"
);
}
);
};
layerId = "D69F2138-E7D7-470A-972F-2AC6B0C54BA2";
paths = (
{
closed = 1;
nodes = (
"553 -202 OFFCURVE",
"579 -188 OFFCURVE",
"592 -170 CURVE",
"578 -159 LINE",
"568 -171 OFFCURVE",
"550 -184 OFFCURVE",
"518 -184 CURVE SMOOTH",
"483 -184 OFFCURVE",
"459 -168 OFFCURVE",
"459 -132 CURVE SMOOTH",
"459 -82 OFFCURVE",
"496 -48 OFFCURVE",
"568 0 CURVE",
"315 698 LINE",
"285 698 LINE",
"32 0 LINE",
"55 0 LINE",
"140 234 LINE",
"461 234 LINE",
"534 31 LINE",
"544 3 LINE",
"545 0 LINE",
"458 -49 OFFCURVE",
"437 -94 OFFCURVE",
"437 -133 CURVE SMOOTH",
"437 -177 OFFCURVE",
"472 -202 OFFCURVE",
"517 -202 CURVE SMOOTH"
);
},
{
closed = 1;
nodes = (
"298 675 LINE",
"301 675 LINE",
"454 253 LINE",
"147 253 LINE"
);
}
);
width = 600;
}
);
leftKerningGroup = uc_a;
rightKerningGroup = uc_a;
unicode = 0104;
},
{
glyphname = Aring;
lastChange = "2019-12-13 08:05:31 +0000";
layers = (
{
components = (
{
name = A;
},
{
name = ring.case;
transform = "{1, 0, 0, 1, 21, 0}";
}
);
layerId = "E49AE6DE-96A1-45B5-978D-9231980F4AB5";
width = 641;
},
{
background = {
paths = (
{
closed = 1;
nodes = (
"174 0 LINE",
"224 166 LINE",
"457 166 LINE",
"507 0 LINE",
"665 0 LINE",
"438 698 LINE",
"250 698 LINE",
"20 0 LINE"
);
},
{
closed = 1;
nodes = (
"337 560 LINE",
"342 560 LINE",
"420 295 LINE",
"260 295 LINE"
);
},
{
closed = 1;
nodes = (
"422 719 OFFCURVE",
"487 779 OFFCURVE",
"487 862 CURVE SMOOTH",
"487 945 OFFCURVE",
"422 1005 OFFCURVE",
"339 1005 CURVE SMOOTH",
"256 1005 OFFCURVE",
"191 945 OFFCURVE",
"191 862 CURVE SMOOTH",
"191 779 OFFCURVE",
"256 719 OFFCURVE",
"339 719 CURVE SMOOTH"
);
},
{
closed = 1;
nodes = (
"306 794 OFFCURVE",
"288 814 OFFCURVE",
"288 845 CURVE SMOOTH",
"288 879 LINE SMOOTH",
"288 910 OFFCURVE",
"306 930 OFFCURVE",
"339 930 CURVE SMOOTH",
"372 930 OFFCURVE",
"390 910 OFFCURVE",
"390 879 CURVE SMOOTH",
"390 845 LINE SMOOTH",
"390 814 OFFCURVE",
"372 794 OFFCURVE",
"339 794 CURVE SMOOTH"
);
}
);
};
components = (
{
name = A;
},
{
name = ring.case;
transform = "{1, 0, 0, 1, 42, 0}";
}
);
layerId = "5E87F462-D40B-43EC-958D-42003ED2F346";
width = 685;
},
{
background = {
paths = (
{
closed = 1;
nodes = (
"55 0 LINE",
"140 234 LINE",
"460 234 LINE",
"545 0 LINE",
"568 0 LINE",
"315 698 LINE",
"285 698 LINE",
"32 0 LINE"
);
},
{
closed = 1;
nodes = (
"298 675 LINE",
"301 675 LINE",
"453 253 LINE",
"147 253 LINE"
);
},
{
closed = 1;
nodes = (
"353 769 OFFCURVE",
"389 806 OFFCURVE",
"389 860 CURVE SMOOTH",
"389 914 OFFCURVE",
"353 951 OFFCURVE",
"299 951 CURVE SMOOTH",
"245 951 OFFCURVE",
"209 914 OFFCURVE",
"209 860 CURVE SMOOTH",
"209 806 OFFCURVE",
"245 769 OFFCURVE",
"299 769 CURVE SMOOTH"
);
},
{
closed = 1;
nodes = (
"256 787 OFFCURVE",
"229 814 OFFCURVE",
"229 855 CURVE SMOOTH",
"229 865 LINE SMOOTH",
"229 906 OFFCURVE",
"256 933 OFFCURVE",
"299 933 CURVE SMOOTH",
"342 933 OFFCURVE",
"369 906 OFFCURVE",
"369 865 CURVE SMOOTH",
"369 855 LINE SMOOTH",
"369 814 OFFCURVE",
"342 787 OFFCURVE",
"299 787 CURVE SMOOTH"
);
}
);
};
components = (
{
name = A;
},
{
name = ring.case;
}
);
layerId = "D69F2138-E7D7-470A-972F-2AC6B0C54BA2";
width = 600;
}
);
leftKerningGroup = uc_a;
rightKerningGroup = uc_a;
unicode = 00C5;
userData = {
com.typemytype.robofont.mark = (
0.6,
0.986,
1,
1
);
};
},
{
glyphname = Aringacute;
lastChange = "2019-12-13 08:05:31 +0000";
layers = (
{
components = (
{
name = A;
},
{
name = ringacute.case;
transform = "{1, 0, 0, 1, 21, 0}";
}
);
layerId = "E49AE6DE-96A1-45B5-978D-9231980F4AB5";
width = 641;
},
{
background = {
paths = (
{
closed = 1;
nodes = (
"174 0 LINE",
"224 166 LINE",
"457 166 LINE",
"507 0 LINE",
"665 0 LINE",
"438 698 LINE",
"250 698 LINE",
"20 0 LINE"
);
},
{
closed = 1;
nodes = (
"337 560 LINE",
"342 560 LINE",
"420 295 LINE",
"260 295 LINE"
);
},
{
closed = 1;
nodes = (
"424 725 OFFCURVE",
"491 769 OFFCURVE",
"491 845 CURVE SMOOTH",
"491 921 OFFCURVE",
"424 965 OFFCURVE",
"339 965 CURVE SMOOTH",
"254 965 OFFCURVE",
"187 921 OFFCURVE",
"187 845 CURVE SMOOTH",
"187 769 OFFCURVE",
"254 725 OFFCURVE",
"339 725 CURVE SMOOTH"
);
},
{
closed = 1;
nodes = (
"303 795 OFFCURVE",
"284 808 OFFCURVE",
"284 840 CURVE SMOOTH",
"284 850 LINE SMOOTH",
"284 882 OFFCURVE",
"303 895 OFFCURVE",
"339 895 CURVE SMOOTH",
"375 895 OFFCURVE",
"394 882 OFFCURVE",
"394 850 CURVE SMOOTH",
"394 840 LINE SMOOTH",
"394 808 OFFCURVE",
"375 795 OFFCURVE",
"339 795 CURVE SMOOTH"
);
},
{
closed = 1;
nodes = (
"482 1069 LINE",
"408 1150 LINE",
"279 1033 LINE",
"332 976 LINE"
);
}
);
};
components = (
{
name = A;
},
{
name = ringacute.case;
transform = "{1, 0, 0, 1, 42, 0}";
}
);
layerId = "5E87F462-D40B-43EC-958D-42003ED2F346";
width = 685;
},
{
background = {
paths = (
{
closed = 1;
nodes = (
"55 0 LINE",
"140 234 LINE",
"460 234 LINE",
"545 0 LINE",
"568 0 LINE",
"315 698 LINE",
"285 698 LINE",
"32 0 LINE"
);
},
{
closed = 1;
nodes = (
"298 675 LINE",
"301 675 LINE",
"453 253 LINE",
"147 253 LINE"
);
},
{
closed = 1;
nodes = (
"353 769 OFFCURVE",
"389 806 OFFCURVE",
"389 860 CURVE SMOOTH",
"389 914 OFFCURVE",
"353 951 OFFCURVE",
"299 951 CURVE SMOOTH",
"245 951 OFFCURVE",
"209 914 OFFCURVE",
"209 860 CURVE SMOOTH",
"209 806 OFFCURVE",
"245 769 OFFCURVE",
"299 769 CURVE SMOOTH"
);
},
{
closed = 1;
nodes = (
"256 787 OFFCURVE",
"229 814 OFFCURVE",
"229 855 CURVE SMOOTH",
"229 865 LINE SMOOTH",
"229 906 OFFCURVE",
"256 933 OFFCURVE",
"299 933 CURVE SMOOTH",
"342 933 OFFCURVE",
"369 906 OFFCURVE",
"369 865 CURVE SMOOTH",
"369 855 LINE SMOOTH",
"369 814 OFFCURVE",
"342 787 OFFCURVE",
"299 787 CURVE SMOOTH"
);
},
{
closed = 1;
nodes = (
"383 1078 LINE",
"364 1091 LINE",
"284 988 LINE",
"299 979 LINE"
);
}
);
};
components = (
{
name = A;
},
{
name = ringacute.case;
}
);
layerId = "D69F2138-E7D7-470A-972F-2AC6B0C54BA2";
width = 600;
}
);
leftKerningGroup = uc_a;
rightKerningGroup = uc_a;
unicode = 01FA;
userData = {
com.typemytype.robofont.mark = (
0.6,
0.986,
1,
1
);
};
},
{
glyphname = Atilde;
lastChange = "2019-12-13 08:05:31 +0000";
layers = (
{
components = (
{
name = A;
},
{
name = tilde.case;
transform = "{1, 0, 0, 1, 21, 0}";
}
);
layerId = "E49AE6DE-96A1-45B5-978D-9231980F4AB5";
width = 641;
},
{
background = {
paths = (
{
closed = 1;
nodes = (
"174 0 LINE",
"224 166 LINE",
"457 166 LINE",
"507 0 LINE",
"665 0 LINE",
"438 698 LINE",
"250 698 LINE",
"20 0 LINE"
);
},
{
closed = 1;
nodes = (
"337 560 LINE",
"342 560 LINE",
"420 295 LINE",
"260 295 LINE"
);
},
{
closed = 1;
nodes = (
"468 762 OFFCURVE",
"505 790 OFFCURVE",
"529 826 CURVE",
"477 894 LINE",
"456 877 OFFCURVE",
"441 869 OFFCURVE",
"418 869 CURVE SMOOTH",
"392 869 OFFCURVE",
"369 879 OFFCURVE",
"340 891 CURVE SMOOTH",
"315 902 OFFCURVE",
"293 911 OFFCURVE",
"263 911 CURVE SMOOTH",
"210 911 OFFCURVE",
"173 883 OFFCURVE",
"149 847 CURVE",
"201 779 LINE",
"222 796 OFFCURVE",
"237 804 OFFCURVE",
"260 804 CURVE SMOOTH",
"286 804 OFFCURVE",
"309 794 OFFCURVE",
"338 782 CURVE SMOOTH",
"363 771 OFFCURVE",
"385 762 OFFCURVE",
"415 762 CURVE SMOOTH"
);
}
);
};
components = (
{
name = A;
},
{
name = tilde.case;
transform = "{1, 0, 0, 1, 42, 0}";
}
);
layerId = "5E87F462-D40B-43EC-958D-42003ED2F346";
width = 685;
},
{
background = {
paths = (
{
closed = 1;
nodes = (
"55 0 LINE",
"140 234 LINE",
"460 234 LINE",
"545 0 LINE",
"568 0 LINE",
"315 698 LINE",
"285 698 LINE",
"32 0 LINE"
);
},
{
closed = 1;
nodes = (
"298 675 LINE",
"301 675 LINE",
"453 253 LINE",
"147 253 LINE"
);
},
{
closed = 1;
nodes = (
"398 808 OFFCURVE",
"424 820 OFFCURVE",
"448 847 CURVE",
"436 859 LINE",
"415 837 OFFCURVE",
"395 826 OFFCURVE",
"371 826 CURVE SMOOTH",
"352 826 OFFCURVE",
"334 833 OFFCURVE",
"305 852 CURVE SMOOTH",
"271 874 OFFCURVE",
"251 882 OFFCURVE",
"228 882 CURVE SMOOTH",
"200 882 OFFCURVE",
"174 870 OFFCURVE",
"150 843 CURVE",
"162 831 LINE",
"183 853 OFFCURVE",
"203 864 OFFCURVE",
"227 864 CURVE SMOOTH",
"246 864 OFFCURVE",
"264 857 OFFCURVE",
"293 838 CURVE SMOOTH",
"327 816 OFFCURVE",
"347 808 OFFCURVE",
"370 808 CURVE SMOOTH"
);
}
);
};
components = (
{
name = A;
},
{
name = tilde.case;
}
);
layerId = "D69F2138-E7D7-470A-972F-2AC6B0C54BA2";
width = 600;
}
);
leftKerningGroup = uc_a;
rightKerningGroup = uc_a;
unicode = 00C3;
userData = {
com.typemytype.robofont.mark = (
0.6,
0.986,
1,
1
);
};
},
{
glyphname = AE;
lastChange = "2019-12-12 05:10:45 +0000";
layers = (
{
anchors = (
{
name = top;
position = "{591, 698}";
}
);
layerId = "E49AE6DE-96A1-45B5-978D-9231980F4AB5";
paths = (
{
closed = 1;
nodes = (
"90 0 LINE",
"192 205 LINE",
"417 205 LINE",
"417 0 LINE {name = hr00;}",
"843 0 LINE",
"843 74 LINE",
"500 74 LINE",
"500 316 LINE",
"823 316 LINE",
"823 390 LINE",
"500 390 LINE",
"500 624 LINE",
"843 624 LINE",
"843 698 LINE",
"361 698 LINE",
"4 0 LINE"
);
},
{
closed = 1;
nodes = (
"404 624 LINE",
"417 624 LINE",
"417 279 LINE",
"227 279 LINE"
);
}
);
width = 907;
},
{
anchors = (
{
name = top;
position = "{484, 698}";
}
);
layerId = "5E87F462-D40B-43EC-958D-42003ED2F346";
paths = (
{
closed = 1;
nodes = (
"151 0 LINE",
"229 166 LINE",
"438 166 LINE",
"438 0 LINE",
"913 0 LINE",
"913 135 LINE",
"589 135 LINE",
"589 286 LINE",
"867 286 LINE",
"867 420 LINE",
"589 420 LINE",
"589 563 LINE",
"913 563 LINE",
"913 698 LINE",
"340 698 LINE",
"-1 0 LINE"
);
},
{
closed = 1;
nodes = (
"415 563 LINE",
"438 563 LINE",
"438 295 LINE",
"290 295 LINE"
);
}
);
width = 968;
},
{
anchors = (
{
name = top;
position = "{431, 698}";
}
);
layerId = "D69F2138-E7D7-470A-972F-2AC6B0C54BA2";
paths = (
{
closed = 1;
nodes = (
"26 0 LINE",
"155 234 LINE",
"408 234 LINE",
"408 0 LINE",
"789 0 LINE",
"789 20 LINE",
"430 20 LINE",
"430 344 LINE",
"777 344 LINE",
"777 364 LINE",
"430 364 LINE",
"430 678 LINE",
"789 678 LINE",
"789 698 LINE",
"385 698 LINE",
"2 0 LINE"
);
},
{
closed = 1;
nodes = (
"397 678 LINE",
"408 678 LINE",
"408 253 LINE",
"165 253 LINE"
);
}
);
width = 861;
}
);
leftKerningGroup = uc_a;
rightKerningGroup = uc_e;
unicode = 00C6;
},
{
glyphname = AEacute;
lastChange = "2019-12-12 07:51:43 +0000";
layers = (
{
components = (
{
name = AE;
},
{
name = acute.case;
transform = "{1, 0, 0, 1, 291, 0}";
}
);
layerId = "E49AE6DE-96A1-45B5-978D-9231980F4AB5";
width = 907;
},
{
background = {
paths = (
{
closed = 1;
nodes = (
"151 0 LINE",
"229 166 LINE",
"438 166 LINE",
"438 0 LINE",
"913 0 LINE",
"913 135 LINE",
"589 135 LINE",
"589 286 LINE",
"867 286 LINE",
"867 420 LINE",
"589 420 LINE",
"589 563 LINE",
"913 563 LINE",
"913 698 LINE",
"340 698 LINE",
"-1 0 LINE"
);
},
{
closed = 1;
nodes = (
"415 563 LINE",
"438 563 LINE",
"438 295 LINE",
"290 295 LINE"
);
}
);
};
components = (
{
name = AE;
},
{
name = acute.case;
transform = "{1, 0, 0, 1, 183, 0}";
}
);
layerId = "5E87F462-D40B-43EC-958D-42003ED2F346";
width = 968;
},
{
background = {
paths = (
{
closed = 1;
nodes = (
"26 0 LINE",
"155 234 LINE",
"408 234 LINE",
"408 0 LINE",
"789 0 LINE",
"789 20 LINE",
"430 20 LINE",
"430 344 LINE",
"777 344 LINE",
"777 364 LINE",
"430 364 LINE",
"430 678 LINE",
"789 678 LINE",
"789 698 LINE",
"385 698 LINE",
"2 0 LINE"
);
},
{
closed = 1;
nodes = (
"397 678 LINE",
"408 678 LINE",
"408 253 LINE",
"165 253 LINE"
);
}
);
};
components = (
{
name = AE;
},
{
name = acute.case;
transform = "{1, 0, 0, 1, 131, 0}";
}
);
layerId = "D69F2138-E7D7-470A-972F-2AC6B0C54BA2";
width = 861;
}
);
leftKerningGroup = uc_a;
rightKerningGroup = uc_e;
unicode = 01FC;
userData = {
com.typemytype.robofont.mark = (
0.6,
0.986,
1,
1
);
};
},
{
glyphname = B;
lastChange = "2019-12-09 12:16:48 +0000";
layers = (
{
anchors = (
{
name = bottom;
position = "{307, 0}";
},
{
name = top;
position = "{307, 698}";
}
);
layerId = "E49AE6DE-96A1-45B5-978D-9231980F4AB5";
paths = (
{
closed = 1;
nodes = (
"410 0 LINE",
"513 0 OFFCURVE",
"590 87 OFFCURVE",
"590 202 CURVE SMOOTH",
"590 318 OFFCURVE",
"503 361 OFFCURVE",
"453 364 CURVE",
"453 370 LINE",
"499 377 OFFCURVE",
"566 414 OFFCURVE",
"566 518 CURVE SMOOTH {name = hr01;}",
"566 627 OFFCURVE",
"495 698 OFFCURVE",
"380 698 CURVE SMOOTH",
"93 698 LINE",
"93 0 LINE"
);
},
{
closed = 1;
nodes = (
"177 324 LINE",
"384 324 LINE SMOOTH",
"456 324 OFFCURVE",
"500 286 OFFCURVE",
"500 216 CURVE SMOOTH {name = hr02;}",
"500 182 LINE SMOOTH",
"500 112 OFFCURVE",
"456 74 OFFCURVE",
"384 74 CURVE SMOOTH",
"177 74 LINE"
);
},
{
closed = 1;
nodes = (
"177 624 LINE",
"370 624 LINE SMOOTH",
"436 624 OFFCURVE",
"476 589 OFFCURVE",
"476 527 CURVE SMOOTH {name = hr03;}",
"476 493 LINE SMOOTH",
"476 431 OFFCURVE",
"436 396 OFFCURVE",
"370 396 CURVE SMOOTH",
"177 396 LINE"
);
}
);
width = 653;
},
{
anchors = (
{
name = bottom;
position = "{334, 0}";
},
{
name = top;
position = "{334, 698}";
}
);
layerId = "5E87F462-D40B-43EC-958D-42003ED2F346";
paths = (
{
closed = 1;
nodes = (
"447 0 LINE SMOOTH",
"550 0 OFFCURVE",
"627 89 OFFCURVE",
"627 199 CURVE SMOOTH",
"627 319 OFFCURVE",
"536 363 OFFCURVE",
"470 363 CURVE",
"470 369 LINE",
"541 372 OFFCURVE",
"600 412 OFFCURVE",
"600 519 CURVE SMOOTH",
"600 627 OFFCURVE",
"531 698 OFFCURVE",
"416 698 CURVE SMOOTH",
"77 698 LINE",
"77 0 LINE"
);
},
{
closed = 1;
nodes = (
"229 288 LINE",
"404 288 LINE SMOOTH",
"444 288 OFFCURVE",
"469 265 OFFCURVE",
"469 225 CURVE SMOOTH",
"469 191 LINE SMOOTH",
"469 151 OFFCURVE",
"444 128 OFFCURVE",
"404 128 CURVE SMOOTH",
"229 128 LINE"
);
},
{
closed = 1;
nodes = (
"229 570 LINE",
"380 570 LINE SMOOTH",
"420 570 OFFCURVE",
"444 546 OFFCURVE",
"444 506 CURVE SMOOTH",
"444 476 LINE SMOOTH",
"444 436 OFFCURVE",
"420 412 OFFCURVE",
"380 412 CURVE SMOOTH",
"229 412 LINE"
);
}
);
width = 667;
},
{
anchors = (
{
name = bottom;
position = "{308, 0}";
},
{
name = top;
position = "{308, 698}";
}
);
layerId = "D69F2138-E7D7-470A-972F-2AC6B0C54BA2";
paths = (
{
closed = 1;
nodes = (
"376 0 LINE SMOOTH",
"490 0 OFFCURVE",
"550 74 OFFCURVE",
"550 189 CURVE SMOOTH",
"550 287 OFFCURVE",
"507 353 OFFCURVE",
"420 369 CURVE",
"420 371 LINE",
"482 391 OFFCURVE",
"518 441 OFFCURVE",
"518 528 CURVE SMOOTH",
"518 639 OFFCURVE",
"459 698 OFFCURVE",
"360 698 CURVE SMOOTH",
"108 698 LINE",
"108 0 LINE"
);
},
{
closed = 1;
nodes = (
"130 358 LINE",
"376 358 LINE SMOOTH",
"479 358 OFFCURVE",
"526 286 OFFCURVE",
"526 210 CURVE SMOOTH",
"526 168 LINE SMOOTH",
"526 91 OFFCURVE",
"479 20 OFFCURVE",
"376 20 CURVE SMOOTH",
"130 20 LINE"
);
},
{
closed = 1;
nodes = (
"130 678 LINE",
"360 678 LINE SMOOTH",
"452 678 OFFCURVE",
"494 616 OFFCURVE",
"494 549 CURVE SMOOTH",
"494 507 LINE SMOOTH",
"494 440 OFFCURVE",
"452 378 OFFCURVE",
"360 378 CURVE SMOOTH",
"130 378 LINE"
);
}
);
width = 615;
}
);
unicode = 0042;
},
{
glyphname = C;
lastChange = "2019-12-12 05:13:07 +0000";
layers = (
{
anchors = (
{
name = bottom;
position = "{338, 0}";
},
{
name = top;
position = "{338, 698}";
}
);
layerId = "E49AE6DE-96A1-45B5-978D-9231980F4AB5";
paths = (
{
closed = 1;
nodes = (
"455 -12 OFFCURVE",
"540 49 OFFCURVE",
"584 147 CURVE",
"517 189 LINE",
"489 113 OFFCURVE",
"428 63 OFFCURVE",
"339 63 CURVE SMOOTH",
"219 63 OFFCURVE",
"148 150 OFFCURVE",
"148 293 CURVE SMOOTH",
"148 397 LINE SMOOTH",
"148 540 OFFCURVE",
"219 635 OFFCURVE",
"339 635 CURVE SMOOTH",
"425 635 OFFCURVE",
"483 588 OFFCURVE",
"511 516 CURVE",
"579 557 LINE",
"535 654 OFFCURVE",
"455 710 OFFCURVE",
"339 710 CURVE SMOOTH",
"163 710 OFFCURVE",
"58 578 OFFCURVE",
"58 345 CURVE SMOOTH",
"58 112 OFFCURVE",
"163 -12 OFFCURVE",
"339 -12 CURVE SMOOTH {name = hr00;}"
);
}
);
width = 621;
},
{
anchors = (
{
name = bottom;
position = "{336, 0}";
},
{
name = top;
position = "{359, 698}";
}
);
layerId = "5E87F462-D40B-43EC-958D-42003ED2F346";
paths = (
{
closed = 1;
nodes = (
"487 -12 OFFCURVE",
"570 49 OFFCURVE",
"622 155 CURVE",
"498 227 LINE",
"477 170 OFFCURVE",
"434 123 OFFCURVE",
"359 123 CURVE SMOOTH",
"270 123 OFFCURVE",
"211 183 OFFCURVE",
"211 293 CURVE SMOOTH",
"211 405 LINE SMOOTH",
"211 515 OFFCURVE",
"270 575 OFFCURVE",
"359 575 CURVE SMOOTH",
"434 575 OFFCURVE",
"471 536 OFFCURVE",
"489 478 CURVE",
"620 546 LINE",
"569 658 OFFCURVE",
"487 710 OFFCURVE",
"359 710 CURVE SMOOTH",
"171 710 OFFCURVE",
"50 580 OFFCURVE",
"50 344 CURVE SMOOTH",
"50 108 OFFCURVE",
"171 -12 OFFCURVE",
"359 -12 CURVE SMOOTH"
);
}
);
width = 651;
},
{
anchors = (
{
name = bottom;
position = "{305, 0}";
},
{
name = top;
position = "{332, 698}";
}
);
layerId = "D69F2138-E7D7-470A-972F-2AC6B0C54BA2";
paths = (
{
closed = 1;
nodes = (
"436 -12 OFFCURVE",
"514 49 OFFCURVE",
"550 140 CURVE",
"531 148 LINE",
"497 61 OFFCURVE",
"428 8 OFFCURVE",
"329 8 CURVE SMOOTH",
"183 8 OFFCURVE",
"94 113 OFFCURVE",
"94 328 CURVE SMOOTH",
"94 370 LINE SMOOTH",
"94 585 OFFCURVE",
"183 690 OFFCURVE",
"329 690 CURVE SMOOTH",
"420 690 OFFCURVE",
"490 640 OFFCURVE",
"526 558 CURVE",
"545 567 LINE",
"507 652 OFFCURVE",
"431 710 OFFCURVE",
"329 710 CURVE SMOOTH",
"164 710 OFFCURVE",
"70 589 OFFCURVE",
"70 349 CURVE SMOOTH",
"70 109 OFFCURVE",
"164 -12 OFFCURVE",
"329 -12 CURVE SMOOTH"
);
}
);
width = 610;
}
);
leftKerningGroup = uc_o;
rightKerningGroup = uc_c;
unicode = 0043;
},
{
glyphname = Cacute;
lastChange = "2019-12-12 07:51:43 +0000";
layers = (
{
components = (
{
name = C;
},
{
name = acute.case;
transform = "{1, 0, 0, 1, 38, 0}";
}
);
layerId = "E49AE6DE-96A1-45B5-978D-9231980F4AB5";
width = 621;
},
{
background = {
paths = (
{
closed = 1;
nodes = (
"487 -12 OFFCURVE",
"570 49 OFFCURVE",
"622 155 CURVE",
"498 227 LINE",
"477 170 OFFCURVE",
"434 123 OFFCURVE",
"359 123 CURVE SMOOTH",
"270 123 OFFCURVE",
"211 183 OFFCURVE",
"211 293 CURVE SMOOTH",
"211 405 LINE SMOOTH",
"211 515 OFFCURVE",
"270 575 OFFCURVE",
"359 575 CURVE SMOOTH",
"434 575 OFFCURVE",
"471 536 OFFCURVE",
"489 478 CURVE",
"620 546 LINE",
"569 658 OFFCURVE",
"487 710 OFFCURVE",
"359 710 CURVE SMOOTH",
"171 710 OFFCURVE",
"50 580 OFFCURVE",
"50 344 CURVE SMOOTH",
"50 108 OFFCURVE",
"171 -12 OFFCURVE",
"359 -12 CURVE SMOOTH"
);
},
{
closed = 1;
nodes = (
"505 916 LINE",
"382 977 LINE",
"283 783 LINE",
"371 740 LINE"
);
}
);
};
components = (
{
name = C;
},
{
name = acute.case;
transform = "{1, 0, 0, 1, 58, 0}";
}
);
layerId = "5E87F462-D40B-43EC-958D-42003ED2F346";
width = 651;
},
{
background = {
paths = (
{
closed = 1;
nodes = (
"436 -12 OFFCURVE",
"514 49 OFFCURVE",
"550 140 CURVE",
"531 148 LINE",
"497 61 OFFCURVE",
"428 8 OFFCURVE",
"329 8 CURVE SMOOTH",
"183 8 OFFCURVE",
"94 113 OFFCURVE",
"94 328 CURVE SMOOTH",
"94 370 LINE SMOOTH",
"94 585 OFFCURVE",
"183 690 OFFCURVE",
"329 690 CURVE SMOOTH",
"420 690 OFFCURVE",
"490 640 OFFCURVE",
"526 558 CURVE",
"545 567 LINE",
"507 652 OFFCURVE",
"431 710 OFFCURVE",
"329 710 CURVE SMOOTH",
"164 710 OFFCURVE",
"70 589 OFFCURVE",
"70 349 CURVE SMOOTH",
"70 109 OFFCURVE",
"164 -12 OFFCURVE",
"329 -12 CURVE SMOOTH"
);
},
{
closed = 1;
nodes = (
"426 919 LINE",
"407 931 LINE",
"296 777 LINE",
"311 767 LINE"
);
}
);
};
components = (
{
name = C;
},
{
name = acute.case;
transform = "{1, 0, 0, 1, 32, 0}";
}
);
layerId = "D69F2138-E7D7-470A-972F-2AC6B0C54BA2";
width = 610;
}
);
leftKerningGroup = uc_o;
rightKerningGroup = uc_c;
unicode = 0106;
userData = {
com.typemytype.robofont.mark = (
0.6,
0.986,
1,
1
);
};
},
{
glyphname = Ccaron;
lastChange = "2019-12-12 08:17:38 +0000";
layers = (
{
anchors = (
{
name = bottom;
position = "{338, 0}";
}
);
components = (
{
name = C;
},
{
name = caron.case;
transform = "{1, 0, 0, 1, 38, 0}";
}
);
layerId = "E49AE6DE-96A1-45B5-978D-9231980F4AB5";
width = 621;
},
{
anchors = (
{
name = bottom;
position = "{338, 0}";
}
);
background = {
paths = (
{
closed = 1;
nodes = (
"487 -12 OFFCURVE",
"570 49 OFFCURVE",
"622 155 CURVE",
"498 227 LINE",
"477 170 OFFCURVE",
"434 123 OFFCURVE",
"359 123 CURVE SMOOTH",
"270 123 OFFCURVE",
"211 183 OFFCURVE",
"211 293 CURVE SMOOTH",
"211 405 LINE SMOOTH",
"211 515 OFFCURVE",
"270 575 OFFCURVE",
"359 575 CURVE SMOOTH",
"434 575 OFFCURVE",
"471 536 OFFCURVE",
"489 478 CURVE",
"620 546 LINE",
"569 658 OFFCURVE",
"487 710 OFFCURVE",
"359 710 CURVE SMOOTH",
"171 710 OFFCURVE",
"50 580 OFFCURVE",
"50 344 CURVE SMOOTH",
"50 108 OFFCURVE",
"171 -12 OFFCURVE",
"359 -12 CURVE SMOOTH"
);
},
{
closed = 1;
nodes = (
"417 748 LINE",
"549 907 LINE",
"476 965 LINE",
"355 850 LINE",
"234 965 LINE",
"161 907 LINE",
"293 748 LINE"
);
}
);
};
components = (
{
name = C;
},
{
name = caron.case;
transform = "{1, 0, 0, 1, 59, 0}";
}
);
layerId = "5E87F462-D40B-43EC-958D-42003ED2F346";
width = 651;
},
{
anchors = (
{
name = bottom;
position = "{338, 0}";
}
);
background = {
paths = (
{
closed = 1;
nodes = (
"436 -12 OFFCURVE",
"514 49 OFFCURVE",
"550 140 CURVE",
"531 148 LINE",
"497 61 OFFCURVE",
"428 8 OFFCURVE",
"329 8 CURVE SMOOTH",
"183 8 OFFCURVE",
"94 113 OFFCURVE",
"94 328 CURVE SMOOTH",
"94 370 LINE SMOOTH",
"94 585 OFFCURVE",
"183 690 OFFCURVE",
"329 690 CURVE SMOOTH",
"420 690 OFFCURVE",
"490 640 OFFCURVE",
"526 558 CURVE",
"545 567 LINE",
"507 652 OFFCURVE",
"431 710 OFFCURVE",
"329 710 CURVE SMOOTH",
"164 710 OFFCURVE",
"70 589 OFFCURVE",
"70 349 CURVE SMOOTH",
"70 109 OFFCURVE",
"164 -12 OFFCURVE",
"329 -12 CURVE SMOOTH"
);
},
{
closed = 1;
nodes = (
"341 783 LINE",
"469 916 LINE",
"455 927 LINE",
"329 800 LINE",
"203 927 LINE",
"189 916 LINE",
"317 783 LINE"
);
}
);
};
components = (
{
name = C;
},
{
name = caron.case;
transform = "{1, 0, 0, 1, 32, 0}";
}
);
layerId = "D69F2138-E7D7-470A-972F-2AC6B0C54BA2";
width = 610;
}
);
leftKerningGroup = uc_o;
rightKerningGroup = uc_c;
unicode = 010C;
userData = {
com.typemytype.robofont.mark = (
0.6,
0.986,
1,
1
);
};
},
{
glyphname = Ccedilla;
lastChange = "2019-12-09 08:04:08 +0000";
layers = (
{
layerId = "E49AE6DE-96A1-45B5-978D-9231980F4AB5";
paths = (
{
closed = 1;
nodes = (
"409 -207 OFFCURVE",
"461 -181 OFFCURVE",
"461 -124 CURVE SMOOTH",
"461 -81 OFFCURVE",
"432 -58 OFFCURVE",
"393 -58 CURVE SMOOTH",
"381 -58 OFFCURVE",
"367 -60 OFFCURVE",
"354 -64 CURVE",
"351 -61 LINE",
"361 -11 LINE",
"466 -4 OFFCURVE",
"543 55 OFFCURVE",
"584 147 CURVE",
"517 189 LINE",
"489 113 OFFCURVE",
"428 63 OFFCURVE",
"339 63 CURVE SMOOTH",
"219 63 OFFCURVE",
"148 150 OFFCURVE",
"148 293 CURVE SMOOTH",
"148 397 LINE SMOOTH",
"148 540 OFFCURVE",
"219 635 OFFCURVE",
"339 635 CURVE SMOOTH {name = hr00;}",
"425 635 OFFCURVE",
"483 588 OFFCURVE",
"511 516 CURVE",
"579 557 LINE",
"535 654 OFFCURVE",
"455 710 OFFCURVE",
"339 710 CURVE SMOOTH",
"163 710 OFFCURVE",
"58 578 OFFCURVE",
"58 345 CURVE SMOOTH",
"58 124 OFFCURVE",
"152 1 OFFCURVE",
"311 -11 CURVE",
"298 -77 LINE",
"326 -81 LINE SMOOTH",
"382 -89 OFFCURVE",
"394 -104 OFFCURVE",
"394 -122 CURVE SMOOTH",
"394 -143 OFFCURVE",
"375 -153 OFFCURVE",
"350 -153 CURVE SMOOTH",
"321 -153 OFFCURVE",
"301 -140 OFFCURVE",
"289 -125 CURVE",
"251 -166 LINE",
"265 -185 OFFCURVE",
"296 -207 OFFCURVE",
"350 -207 CURVE SMOOTH"
);
}
);
width = 621;
},
{
layerId = "5E87F462-D40B-43EC-958D-42003ED2F346";
paths = (
{
closed = 1;
nodes = (
"416 -212 OFFCURVE",
"480 -189 OFFCURVE",
"480 -121 CURVE SMOOTH",
"480 -72 OFFCURVE",
"447 -52 OFFCURVE",
"407 -52 CURVE SMOOTH",
"391 -52 OFFCURVE",
"375 -55 OFFCURVE",
"359 -59 CURVE",
"355 -55 LINE",
"364 -12 LINE",
"487 -12 OFFCURVE",
"570 49 OFFCURVE",
"622 155 CURVE",
"498 227 LINE",
"477 170 OFFCURVE",
"434 123 OFFCURVE",
"359 123 CURVE SMOOTH",
"270 123 OFFCURVE",
"211 183 OFFCURVE",
"211 293 CURVE SMOOTH",
"211 405 LINE SMOOTH",
"211 515 OFFCURVE",
"270 575 OFFCURVE",
"359 575 CURVE SMOOTH",
"434 575 OFFCURVE",
"471 536 OFFCURVE",
"489 478 CURVE",
"620 546 LINE",
"569 658 OFFCURVE",
"487 710 OFFCURVE",
"359 710 CURVE SMOOTH",
"171 710 OFFCURVE",
"50 580 OFFCURVE",
"50 344 CURVE SMOOTH",
"50 135 OFFCURVE",
"145 16 OFFCURVE",
"298 -7 CURVE",
"284 -74 LINE",
"305 -76 LINE SMOOTH",
"367 -82 OFFCURVE",
"380 -101 OFFCURVE",
"380 -116 CURVE SMOOTH",
"380 -133 OFFCURVE",
"361 -141 OFFCURVE",
"336 -141 CURVE SMOOTH",
"305 -141 OFFCURVE",
"283 -128 OFFCURVE",
"270 -112 CURVE",
"224 -168 LINE",
"241 -188 OFFCURVE",
"279 -212 OFFCURVE",
"348 -212 CURVE SMOOTH"
);
}
);
width = 651;
},
{
layerId = "D69F2138-E7D7-470A-972F-2AC6B0C54BA2";
paths = (
{
closed = 1;
nodes = (
"393 -202 OFFCURVE",
"424 -169 OFFCURVE",
"424 -131 CURVE SMOOTH",
"424 -95 OFFCURVE",
"396 -72 OFFCURVE",
"357 -72 CURVE SMOOTH",
"348 -72 OFFCURVE",
"336 -73 OFFCURVE",
"327 -75 CURVE",
"325 -73 LINE",
"340 -12 LINE",
"441 -8 OFFCURVE",
"515 52 OFFCURVE",
"550 140 CURVE",
"531 148 LINE",
"497 61 OFFCURVE",
"428 8 OFFCURVE",
"329 8 CURVE SMOOTH",
"183 8 OFFCURVE",
"94 113 OFFCURVE",
"94 328 CURVE SMOOTH",
"94 370 LINE SMOOTH",
"94 585 OFFCURVE",
"183 690 OFFCURVE",
"329 690 CURVE SMOOTH",
"420 690 OFFCURVE",
"490 640 OFFCURVE",
"526 558 CURVE",
"545 567 LINE",
"507 652 OFFCURVE",
"431 710 OFFCURVE",
"329 710 CURVE SMOOTH",
"164 710 OFFCURVE",
"70 589 OFFCURVE",
"70 349 CURVE SMOOTH",
"70 112 OFFCURVE",
"161 -9 OFFCURVE",
"322 -12 CURVE",
"305 -84 LINE",
"342 -86 LINE SMOOTH",
"387 -88 OFFCURVE",
"403 -107 OFFCURVE",
"403 -132 CURVE SMOOTH",
"403 -166 OFFCURVE",
"378 -184 OFFCURVE",
"342 -184 CURVE SMOOTH",
"312 -184 OFFCURVE",
"288 -174 OFFCURVE",
"274 -157 CURVE",
"261 -170 LINE",
"273 -187 OFFCURVE",
"304 -202 OFFCURVE",
"342 -202 CURVE SMOOTH"
);
}
);
width = 610;
}
);
leftKerningGroup = uc_o;
rightKerningGroup = uc_c;
unicode = 00C7;
},
{
glyphname = Ccircumflex;
lastChange = "2019-12-12 08:17:52 +0000";
layers = (
{
anchors = (
{
name = bottom;
position = "{338, 0}";
}
);
components = (
{
name = C;
},
{
name = circumflex.case;
transform = "{1, 0, 0, 1, 38, 0}";
}
);
layerId = "E49AE6DE-96A1-45B5-978D-9231980F4AB5";
width = 621;
},
{
anchors = (
{
name = bottom;
position = "{338, 0}";
}
);
background = {
paths = (
{
closed = 1;
nodes = (
"487 -12 OFFCURVE",
"570 49 OFFCURVE",
"622 155 CURVE",
"498 227 LINE",
"477 170 OFFCURVE",
"434 123 OFFCURVE",
"359 123 CURVE SMOOTH",
"270 123 OFFCURVE",
"211 183 OFFCURVE",
"211 293 CURVE SMOOTH",
"211 405 LINE SMOOTH",
"211 515 OFFCURVE",
"270 575 OFFCURVE",
"359 575 CURVE SMOOTH",
"434 575 OFFCURVE",
"471 536 OFFCURVE",
"489 478 CURVE",
"620 546 LINE",
"569 658 OFFCURVE",
"487 710 OFFCURVE",
"359 710 CURVE SMOOTH",
"171 710 OFFCURVE",
"50 580 OFFCURVE",
"50 344 CURVE SMOOTH",
"50 108 OFFCURVE",
"171 -12 OFFCURVE",
"359 -12 CURVE SMOOTH"
);
},
{
closed = 1;
nodes = (
"355 854 LINE",
"476 739 LINE",
"549 797 LINE",
"417 956 LINE",
"293 956 LINE",
"161 797 LINE",
"234 739 LINE"
);
}
);
};
components = (
{
name = C;
},
{
name = circumflex.case;
transform = "{1, 0, 0, 1, 59, 0}";
}
);
layerId = "5E87F462-D40B-43EC-958D-42003ED2F346";
width = 651;
},
{
anchors = (
{
name = bottom;
position = "{338, 0}";
}
);
background = {
paths = (
{
closed = 1;
nodes = (
"436 -12 OFFCURVE",
"514 49 OFFCURVE",
"550 140 CURVE",
"531 148 LINE",
"497 61 OFFCURVE",
"428 8 OFFCURVE",
"329 8 CURVE SMOOTH",
"183 8 OFFCURVE",
"94 113 OFFCURVE",
"94 328 CURVE SMOOTH",
"94 370 LINE SMOOTH",
"94 585 OFFCURVE",
"183 690 OFFCURVE",
"329 690 CURVE SMOOTH",
"420 690 OFFCURVE",
"490 640 OFFCURVE",
"526 558 CURVE",
"545 567 LINE",
"507 652 OFFCURVE",
"431 710 OFFCURVE",
"329 710 CURVE SMOOTH",
"164 710 OFFCURVE",
"70 589 OFFCURVE",
"70 349 CURVE SMOOTH",
"70 109 OFFCURVE",
"164 -12 OFFCURVE",
"329 -12 CURVE SMOOTH"
);
},
{
closed = 1;
nodes = (
"329 906 LINE",
"455 779 LINE",
"469 790 LINE",
"341 923 LINE",
"317 923 LINE",
"189 790 LINE",
"203 779 LINE"
);
}
);
};
components = (
{
name = C;
},
{
name = circumflex.case;
transform = "{1, 0, 0, 1, 32, 0}";
}
);
layerId = "D69F2138-E7D7-470A-972F-2AC6B0C54BA2";
width = 610;
}
);
leftKerningGroup = uc_o;
rightKerningGroup = uc_c;
unicode = 0108;
userData = {
com.typemytype.robofont.mark = (
0.6,
0.986,
1,
1
);
};
},
{
glyphname = Cdotaccent;
lastChange = "2019-12-12 08:17:59 +0000";
layers = (
{
anchors = (
{
name = bottom;
position = "{338, 0}";
}
);
components = (
{
name = C;
},
{
name = dotaccent.case;
transform = "{1, 0, 0, 1, 38, 0}";
}
);
layerId = "E49AE6DE-96A1-45B5-978D-9231980F4AB5";
width = 621;
},
{
anchors = (
{
name = bottom;
position = "{338, 0}";
}
);
background = {
paths = (
{
closed = 1;
nodes = (
"487 -12 OFFCURVE",
"570 49 OFFCURVE",
"622 155 CURVE",
"498 227 LINE",
"477 170 OFFCURVE",
"434 123 OFFCURVE",
"359 123 CURVE SMOOTH",
"270 123 OFFCURVE",
"211 183 OFFCURVE",
"211 293 CURVE SMOOTH",
"211 405 LINE SMOOTH",
"211 515 OFFCURVE",
"270 575 OFFCURVE",
"359 575 CURVE SMOOTH",
"434 575 OFFCURVE",
"471 536 OFFCURVE",
"489 478 CURVE",
"620 546 LINE",
"569 658 OFFCURVE",
"487 710 OFFCURVE",
"359 710 CURVE SMOOTH",
"171 710 OFFCURVE",
"50 580 OFFCURVE",
"50 344 CURVE SMOOTH",
"50 108 OFFCURVE",
"171 -12 OFFCURVE",
"359 -12 CURVE SMOOTH"
);
},
{
closed = 1;
nodes = (
"421 752 OFFCURVE",
"444 783 OFFCURVE",
"444 822 CURVE SMOOTH",
"444 851 LINE SMOOTH",
"444 890 OFFCURVE",
"421 921 OFFCURVE",
"355 921 CURVE SMOOTH",
"289 921 OFFCURVE",
"266 890 OFFCURVE",
"266 851 CURVE SMOOTH",
"266 822 LINE SMOOTH",
"266 783 OFFCURVE",
"289 752 OFFCURVE",
"355 752 CURVE SMOOTH"
);
}
);
};
components = (
{
name = C;
},
{
name = dotaccent.case;
transform = "{1, 0, 0, 1, 59, 0}";
}
);
layerId = "5E87F462-D40B-43EC-958D-42003ED2F346";
width = 651;
},
{
anchors = (
{
name = bottom;
position = "{338, 0}";
}
);
background = {
paths = (
{
closed = 1;
nodes = (
"436 -12 OFFCURVE",
"514 49 OFFCURVE",
"550 140 CURVE",
"531 148 LINE",
"497 61 OFFCURVE",
"428 8 OFFCURVE",
"329 8 CURVE SMOOTH",
"183 8 OFFCURVE",
"94 113 OFFCURVE",
"94 328 CURVE SMOOTH",
"94 370 LINE SMOOTH",
"94 585 OFFCURVE",
"183 690 OFFCURVE",
"329 690 CURVE SMOOTH",
"420 690 OFFCURVE",
"490 640 OFFCURVE",
"526 558 CURVE",
"545 567 LINE",
"507 652 OFFCURVE",
"431 710 OFFCURVE",
"329 710 CURVE SMOOTH",
"164 710 OFFCURVE",
"70 589 OFFCURVE",
"70 349 CURVE SMOOTH",
"70 109 OFFCURVE",
"164 -12 OFFCURVE",
"329 -12 CURVE SMOOTH"
);
},
{
closed = 1;
nodes = (
"346 822 OFFCURVE",
"352 832 OFFCURVE",
"352 843 CURVE SMOOTH",
"352 850 LINE SMOOTH",
"352 861 OFFCURVE",
"346 871 OFFCURVE",
"329 871 CURVE SMOOTH",
"312 871 OFFCURVE",
"306 861 OFFCURVE",
"306 850 CURVE SMOOTH",
"306 843 LINE SMOOTH",
"306 832 OFFCURVE",
"312 822 OFFCURVE",
"329 822 CURVE SMOOTH"
);
}
);
};
components = (
{
name = C;
},
{
name = dotaccent.case;
transform = "{1, 0, 0, 1, 32, 0}";
}
);
layerId = "D69F2138-E7D7-470A-972F-2AC6B0C54BA2";
width = 610;
}
);
leftKerningGroup = uc_o;
rightKerningGroup = uc_c;
unicode = 010A;
userData = {
com.typemytype.robofont.mark = (
0.6,
0.986,
1,
1
);
};
},
{
glyphname = D;
lastChange = "2019-12-12 08:19:13 +0000";
layers = (
{
anchors = (
{
name = bottom;
position = "{307, 0}";
},
{
name = top;
position = "{307, 698}";
}
);
layerId = "E49AE6DE-96A1-45B5-978D-9231980F4AB5";
paths = (
{
closed = 1;
nodes = (
"327 0 LINE SMOOTH",
"501 0 OFFCURVE",
"613 116 OFFCURVE",
"613 349 CURVE SMOOTH",
"613 582 OFFCURVE",
"501 698 OFFCURVE",
"327 698 CURVE SMOOTH",
"93 698 LINE",
"93 0 LINE {name = hr00;}"
);
},
{
closed = 1;
nodes = (
"177 624 LINE",
"327 624 LINE SMOOTH",
"442 624 OFFCURVE",
"523 544 OFFCURVE",
"523 406 CURVE SMOOTH",
"523 292 LINE SMOOTH",
"523 154 OFFCURVE",
"442 74 OFFCURVE",
"327 74 CURVE SMOOTH",
"177 74 LINE"
);
}
);
width = 671;
},
{
anchors = (
{
name = bottom;
position = "{322, 0}";
},
{
name = top;
position = "{322, 698}";
}
);
background = {
paths = (
{
closed = 1;
nodes = (
"340 0 LINE SMOOTH",
"525 0 OFFCURVE",
"647 117 OFFCURVE",
"647 349 CURVE SMOOTH",
"647 581 OFFCURVE",
"525 698 OFFCURVE",
"340 698 CURVE SMOOTH",
"77 698 LINE",
"77 0 LINE"
);
},
{
closed = 1;
nodes = (
"229 563 LINE",
"340 563 LINE SMOOTH",
"430 563 OFFCURVE",
"486 514 OFFCURVE",
"486 403 CURVE SMOOTH",
"486 295 LINE SMOOTH",
"486 184 OFFCURVE",
"430 135 OFFCURVE",
"340 135 CURVE SMOOTH",
"229 135 LINE"
);
}
);
};
layerId = "5E87F462-D40B-43EC-958D-42003ED2F346";
paths = (
{
closed = 1;
nodes = (
"340 0 LINE SMOOTH",
"525 0 OFFCURVE",
"647 117 OFFCURVE",
"647 349 CURVE SMOOTH",
"647 581 OFFCURVE",
"525 698 OFFCURVE",
"340 698 CURVE SMOOTH",
"77 698 LINE",
"77 0 LINE"
);
},
{
closed = 1;
nodes = (
"229 563 LINE",
"340 563 LINE SMOOTH",
"430 563 OFFCURVE",
"486 514 OFFCURVE",
"486 403 CURVE SMOOTH",
"486 295 LINE SMOOTH",
"486 184 OFFCURVE",
"430 135 OFFCURVE",
"340 135 CURVE SMOOTH",
"229 135 LINE"
);
}
);
width = 697;
},
{
anchors = (
{
name = bottom;
position = "{299, 0}";
},
{
name = top;
position = "{299, 698}";
}
);
layerId = "D69F2138-E7D7-470A-972F-2AC6B0C54BA2";
paths = (
{
closed = 1;
nodes = (
"312 0 LINE SMOOTH",
"498 0 OFFCURVE",
"588 118 OFFCURVE",
"588 349 CURVE SMOOTH",
"588 580 OFFCURVE",
"498 698 OFFCURVE",
"312 698 CURVE SMOOTH",
"108 698 LINE",
"108 0 LINE"
);
},
{
closed = 1;
nodes = (
"130 678 LINE",
"313 678 LINE SMOOTH",
"486 678 OFFCURVE",
"564 560 OFFCURVE",
"564 379 CURVE SMOOTH",
"564 319 LINE SMOOTH",
"564 138 OFFCURVE",
"486 20 OFFCURVE",
"313 20 CURVE SMOOTH",
"130 20 LINE"
);
}
);
width = 658;
}
);
rightKerningGroup = uc_d;
unicode = 0044;
},
{
glyphname = Eth;
lastChange = "2019-12-12 08:18:32 +0000";
layers = (
{
components = (
{
name = Dcroat;
}
);
layerId = "E49AE6DE-96A1-45B5-978D-9231980F4AB5";
width = 674;
},
{
background = {
paths = (
{
closed = 1;
nodes = (
"345 0 LINE SMOOTH",
"530 0 OFFCURVE",
"652 117 OFFCURVE",
"652 349 CURVE SMOOTH",
"652 581 OFFCURVE",
"530 698 OFFCURVE",
"345 698 CURVE SMOOTH",
"82 698 LINE",
"82 411 LINE",
"7 411 LINE",
"7 297 LINE",
"82 297 LINE",
"82 0 LINE"
);
},
{
closed = 1;
nodes = (
"234 297 LINE",
"353 297 LINE",
"353 411 LINE",
"234 411 LINE",
"234 563 LINE",
"345 563 LINE SMOOTH",
"435 563 OFFCURVE",
"491 514 OFFCURVE",
"491 403 CURVE SMOOTH",
"491 295 LINE SMOOTH",
"491 184 OFFCURVE",
"435 135 OFFCURVE",
"345 135 CURVE SMOOTH",
"234 135 LINE"
);
}
);
};
components = (
{
name = Dcroat;
}
);
layerId = "5E87F462-D40B-43EC-958D-42003ED2F346";
width = 702;
},
{
background = {
paths = (
{
closed = 1;
nodes = (
"315 0 LINE SMOOTH",
"501 0 OFFCURVE",
"591 118 OFFCURVE",
"591 349 CURVE SMOOTH",
"591 580 OFFCURVE",
"501 698 OFFCURVE",
"315 698 CURVE SMOOTH",
"111 698 LINE",
"111 378 LINE",
"28 378 LINE",
"28 359 LINE",
"111 359 LINE",
"111 0 LINE"
);
},
{
closed = 1;
nodes = (
"133 359 LINE",
"305 359 LINE",
"305 378 LINE",
"133 378 LINE",
"133 678 LINE",
"316 678 LINE SMOOTH",
"489 678 OFFCURVE",
"567 560 OFFCURVE",
"567 379 CURVE SMOOTH",
"567 319 LINE SMOOTH",
"567 138 OFFCURVE",
"489 20 OFFCURVE",
"316 20 CURVE SMOOTH",
"133 20 LINE"
);
}
);
};
components = (
{
name = Dcroat;
}
);
layerId = "D69F2138-E7D7-470A-972F-2AC6B0C54BA2";
width = 661;
}
);
rightKerningGroup = uc_d;
unicode = 00D0;
userData = {
com.typemytype.robofont.mark = (
0.6,
0.986,
1,
1
);
};
},
{
glyphname = Dcaron;
lastChange = "2019-12-12 08:19:06 +0000";
layers = (
{
anchors = (
{
name = bottom;
position = "{307, 0}";
}
);
components = (
{
name = D;
},
{
name = caron.case;
transform = "{1, 0, 0, 1, 7, 0}";
}
);
layerId = "E49AE6DE-96A1-45B5-978D-9231980F4AB5";
width = 671;
},
{
anchors = (
{
name = bottom;
position = "{307, 0}";
}
);
background = {
paths = (
{
closed = 1;
nodes = (
"340 0 LINE SMOOTH",
"525 0 OFFCURVE",
"647 117 OFFCURVE",
"647 349 CURVE SMOOTH",
"647 581 OFFCURVE",
"525 698 OFFCURVE",
"340 698 CURVE SMOOTH",
"77 698 LINE",
"77 0 LINE"
);
},
{
closed = 1;
nodes = (
"229 563 LINE",
"340 563 LINE SMOOTH",
"430 563 OFFCURVE",
"486 514 OFFCURVE",
"486 403 CURVE SMOOTH",
"486 295 LINE SMOOTH",
"486 184 OFFCURVE",
"430 135 OFFCURVE",
"340 135 CURVE SMOOTH",
"229 135 LINE"
);
},
{
closed = 1;
nodes = (
"385 748 LINE",
"517 907 LINE",
"444 965 LINE",
"323 850 LINE",
"202 965 LINE",
"129 907 LINE",
"261 748 LINE"
);
}
);
};
components = (
{
name = D;
},
{
name = caron.case;
transform = "{1, 0, 0, 1, 22, 0}";
}
);
layerId = "5E87F462-D40B-43EC-958D-42003ED2F346";
width = 697;
},
{
anchors = (
{
name = bottom;
position = "{307, 0}";
}
);
background = {
paths = (
{
closed = 1;
nodes = (
"312 0 LINE SMOOTH",
"498 0 OFFCURVE",
"588 118 OFFCURVE",
"588 349 CURVE SMOOTH",
"588 580 OFFCURVE",
"498 698 OFFCURVE",
"312 698 CURVE SMOOTH",
"108 698 LINE",
"108 0 LINE"
);
},
{
closed = 1;
nodes = (
"130 678 LINE",
"313 678 LINE SMOOTH",
"486 678 OFFCURVE",
"564 560 OFFCURVE",
"564 379 CURVE SMOOTH",
"564 319 LINE SMOOTH",
"564 138 OFFCURVE",
"486 20 OFFCURVE",
"313 20 CURVE SMOOTH",
"130 20 LINE"
);
},
{
closed = 1;
nodes = (
"311 783 LINE",
"439 916 LINE",
"425 927 LINE",
"299 800 LINE",
"173 927 LINE",
"159 916 LINE",
"287 783 LINE"
);
}
);
};
components = (
{
name = D;
},
{
name = caron.case;
transform = "{1, 0, 0, 1, -1, 0}";
}
);
layerId = "D69F2138-E7D7-470A-972F-2AC6B0C54BA2";
width = 658;
}
);
rightKerningGroup = uc_d;
unicode = 010E;
userData = {
com.typemytype.robofont.mark = (
0.6,
0.986,
1,
1
);
};
},
{
glyphname = Dcroat;
lastChange = "2019-12-09 08:04:08 +0000";
layers = (
{
layerId = "E49AE6DE-96A1-45B5-978D-9231980F4AB5";
paths = (
{
closed = 1;
nodes = (
"330 0 LINE SMOOTH",
"504 0 OFFCURVE",
"616 116 OFFCURVE",
"616 349 CURVE SMOOTH",
"616 582 OFFCURVE",
"504 698 OFFCURVE",
"330 698 CURVE SMOOTH",
"96 698 LINE",
"96 401 LINE",
"17 401 LINE",
"17 337 LINE",
"96 337 LINE",
"96 0 LINE {name = hr00;}"
);
},
{
closed = 1;
nodes = (
"180 337 LINE",
"317 337 LINE",
"317 401 LINE",
"180 401 LINE",
"180 624 LINE",
"330 624 LINE SMOOTH",
"445 624 OFFCURVE",
"526 544 OFFCURVE",
"526 406 CURVE SMOOTH",
"526 292 LINE SMOOTH",
"526 154 OFFCURVE",
"445 74 OFFCURVE",
"330 74 CURVE SMOOTH",
"180 74 LINE"
);
}
);
width = 674;
},
{
layerId = "5E87F462-D40B-43EC-958D-42003ED2F346";
paths = (
{
closed = 1;
nodes = (
"345 0 LINE SMOOTH",
"530 0 OFFCURVE",
"652 117 OFFCURVE",
"652 349 CURVE SMOOTH",
"652 581 OFFCURVE",
"530 698 OFFCURVE",
"345 698 CURVE SMOOTH",
"82 698 LINE",
"82 411 LINE",
"7 411 LINE",
"7 297 LINE",
"82 297 LINE",
"82 0 LINE"
);
},
{
closed = 1;
nodes = (
"234 297 LINE",
"353 297 LINE",
"353 411 LINE",
"234 411 LINE",
"234 563 LINE",
"345 563 LINE SMOOTH",
"435 563 OFFCURVE",
"491 514 OFFCURVE",
"491 403 CURVE SMOOTH",
"491 295 LINE SMOOTH",
"491 184 OFFCURVE",
"435 135 OFFCURVE",
"345 135 CURVE SMOOTH",
"234 135 LINE"
);
}
);
width = 702;
},
{
layerId = "D69F2138-E7D7-470A-972F-2AC6B0C54BA2";
paths = (
{
closed = 1;
nodes = (
"315 0 LINE SMOOTH",
"501 0 OFFCURVE",
"591 118 OFFCURVE",
"591 349 CURVE SMOOTH",
"591 580 OFFCURVE",
"501 698 OFFCURVE",
"315 698 CURVE SMOOTH",
"111 698 LINE",
"111 378 LINE",
"28 378 LINE",
"28 359 LINE",
"111 359 LINE",
"111 0 LINE"
);
},
{
closed = 1;
nodes = (
"133 359 LINE",
"305 359 LINE",
"305 378 LINE",
"133 378 LINE",
"133 678 LINE",
"316 678 LINE SMOOTH",
"489 678 OFFCURVE",
"567 560 OFFCURVE",
"567 379 CURVE SMOOTH",
"567 319 LINE SMOOTH",
"567 138 OFFCURVE",
"489 20 OFFCURVE",
"316 20 CURVE SMOOTH",
"133 20 LINE"
);
}
);
width = 661;
}
);
rightKerningGroup = uc_d;
unicode = 0110;
},
{
glyphname = E;
lastChange = "2019-12-12 08:20:30 +0000";
layers = (
{
anchors = (
{
name = bottom;
position = "{304, 0}";
},
{
name = bottomright;
position = "{519, 0}";
},
{
name = top;
position = "{304, 698}";
}
);
layerId = "E49AE6DE-96A1-45B5-978D-9231980F4AB5";
paths = (
{
closed = 1;
nodes = (
"519 0 LINE {name = hr00;}",
"519 74 LINE",
"177 74 LINE",
"177 316 LINE",
"499 316 LINE",
"499 390 LINE",
"177 390 LINE",
"177 624 LINE",
"519 624 LINE",
"519 698 LINE",
"93 698 LINE",
"93 0 LINE"
);
}
);
width = 583;
},
{
anchors = (
{
name = bottom;
position = "{316, 0}";
},
{
name = bottomright;
position = "{552, 0}";
},
{
name = top;
position = "{316, 698}";
}
);
layerId = "5E87F462-D40B-43EC-958D-42003ED2F346";
paths = (
{
closed = 1;
nodes = (
"552 0 LINE",
"552 135 LINE",
"229 135 LINE",
"229 286 LINE",
"506 286 LINE",
"506 420 LINE",
"229 420 LINE",
"229 563 LINE",
"552 563 LINE",
"552 698 LINE",
"77 698 LINE",
"77 0 LINE"
);
}
);
width = 607;
},
{
anchors = (
{
name = bottom;
position = "{299, 0}";
},
{
name = bottomright;
position = "{489, 0}";
},
{
name = top;
position = "{299, 698}";
}
);
layerId = "D69F2138-E7D7-470A-972F-2AC6B0C54BA2";
paths = (
{
closed = 1;
nodes = (
"489 0 LINE",
"489 20 LINE",
"130 20 LINE",
"130 344 LINE",
"477 344 LINE",
"477 364 LINE",
"130 364 LINE",
"130 678 LINE",
"489 678 LINE",
"489 698 LINE",
"108 698 LINE",
"108 0 LINE"
);
}
);
width = 561;
}
);
rightKerningGroup = uc_e;
unicode = 0045;
},
{
glyphname = Eacute;
lastChange = "2019-12-12 08:20:27 +0000";
layers = (
{
anchors = (
{
name = bottom;
position = "{304, 0}";
},
{
name = bottomright;
position = "{519, 0}";
}
);
components = (
{
name = E;
},
{
name = acute.case;
transform = "{1, 0, 0, 1, 4, 0}";
}
);
layerId = "E49AE6DE-96A1-45B5-978D-9231980F4AB5";
width = 583;
},
{
anchors = (
{
name = bottom;
position = "{304, 0}";
},
{
name = bottomright;
position = "{552, 0}";
}
);
background = {
paths = (
{
closed = 1;
nodes = (
"552 0 LINE",
"552 135 LINE",
"229 135 LINE",
"229 286 LINE",
"506 286 LINE",
"506 420 LINE",
"229 420 LINE",
"229 563 LINE",
"552 563 LINE",
"552 698 LINE",
"77 698 LINE",
"77 0 LINE"
);
},
{
closed = 1;
nodes = (
"465 916 LINE",
"342 977 LINE",
"243 783 LINE",
"331 740 LINE"
);
}
);
};
components = (
{
name = E;
},
{
name = acute.case;
transform = "{1, 0, 0, 1, 15, 0}";
}
);
layerId = "5E87F462-D40B-43EC-958D-42003ED2F346";
width = 607;
},
{
anchors = (
{
name = bottom;
position = "{304, 0}";
},
{
name = bottomright;
position = "{489, 0}";
}
);
background = {
paths = (
{
closed = 1;
nodes = (
"489 0 LINE",
"489 20 LINE",
"130 20 LINE",
"130 344 LINE",
"477 344 LINE",
"477 364 LINE",
"130 364 LINE",
"130 678 LINE",
"489 678 LINE",
"489 698 LINE",
"108 698 LINE",
"108 0 LINE"
);
},
{
closed = 1;
nodes = (
"396 919 LINE",
"377 931 LINE",
"266 777 LINE",
"281 767 LINE"
);
}
);
};
components = (
{
name = E;
},
{
name = acute.case;
transform = "{1, 0, 0, 1, -1, 0}";
}
);
layerId = "D69F2138-E7D7-470A-972F-2AC6B0C54BA2";
width = 561;
}
);
rightKerningGroup = uc_e;
unicode = 00C9;
userData = {
com.typemytype.robofont.mark = (
0.6,
0.986,
1,
1
);
};
},
{
glyphname = Ebreve;
lastChange = "2019-12-12 08:20:46 +0000";
layers = (
{
anchors = (
{
name = bottom;
position = "{304, 0}";
},
{
name = bottomright;
position = "{519, 0}";
}
);
components = (
{
name = E;
},
{
name = breve.case;
transform = "{1, 0, 0, 1, 4, 0}";
}
);
layerId = "E49AE6DE-96A1-45B5-978D-9231980F4AB5";
width = 583;
},
{
anchors = (
{
name = bottom;
position = "{304, 0}";
},
{
name = bottomright;
position = "{552, 0}";
}
);
background = {
paths = (
{
closed = 1;
nodes = (
"552 0 LINE",
"552 135 LINE",
"229 135 LINE",
"229 286 LINE",
"506 286 LINE",
"506 420 LINE",
"229 420 LINE",
"229 563 LINE",
"552 563 LINE",
"552 698 LINE",
"77 698 LINE",
"77 0 LINE"
);
},
{
closed = 1;
nodes = (
"428 740 OFFCURVE",
"481 838 OFFCURVE",
"505 910 CURVE",
"425 952 LINE",
"406 920 LINE SMOOTH",
"377 871 OFFCURVE",
"352 843 OFFCURVE",
"315 843 CURVE SMOOTH",
"278 843 OFFCURVE",
"254 871 OFFCURVE",
"225 920 CURVE SMOOTH",
"206 952 LINE",
"125 910 LINE",
"149 838 OFFCURVE",
"197 740 OFFCURVE",
"315 740 CURVE SMOOTH"
);
}
);
};
components = (
{
name = E;
},
{
name = breve.case;
transform = "{1, 0, 0, 1, 16, 0}";
}
);
layerId = "5E87F462-D40B-43EC-958D-42003ED2F346";
width = 607;
},
{
anchors = (
{
name = bottom;
position = "{304, 0}";
},
{
name = bottomright;
position = "{489, 0}";
}
);
background = {
paths = (
{
closed = 1;
nodes = (
"489 0 LINE",
"489 20 LINE",
"130 20 LINE",
"130 344 LINE",
"477 344 LINE",
"477 364 LINE",
"130 364 LINE",
"130 678 LINE",
"489 678 LINE",
"489 698 LINE",
"108 698 LINE",
"108 0 LINE"
);
},
{
closed = 1;
nodes = (
"367 786 OFFCURVE",
"394 830 OFFCURVE",
"431 903 CURVE",
"415 910 LINE",
"400 883 LINE SMOOTH",
"365 820 OFFCURVE",
"343 805 OFFCURVE",
"299 805 CURVE SMOOTH",
"255 805 OFFCURVE",
"233 820 OFFCURVE",
"198 883 CURVE SMOOTH",
"183 910 LINE",
"167 903 LINE",
"204 830 OFFCURVE",
"231 786 OFFCURVE",
"299 786 CURVE SMOOTH"
);
}
);
};
components = (
{
name = E;
},
{
name = breve.case;
transform = "{1, 0, 0, 1, -1, 0}";
}
);
layerId = "D69F2138-E7D7-470A-972F-2AC6B0C54BA2";
width = 561;
}
);
rightKerningGroup = uc_e;
unicode = 0114;
userData = {
com.typemytype.robofont.mark = (
0.6,
0.986,
1,
1
);
};
},
{
glyphname = Ecaron;
lastChange = "2019-12-12 08:21:07 +0000";
layers = (
{
anchors = (
{
name = bottom;
position = "{304, 0}";
},
{
name = bottomright;
position = "{519, 0}";
}
);
components = (
{
name = E;
},
{
name = caron.case;
transform = "{1, 0, 0, 1, 4, 0}";
}
);
layerId = "E49AE6DE-96A1-45B5-978D-9231980F4AB5";
width = 583;
},
{
anchors = (
{
name = bottom;
position = "{304, 0}";
},
{
name = bottomright;
position = "{552, 0}";
}
);
background = {
paths = (
{
closed = 1;
nodes = (
"552 0 LINE",
"552 135 LINE",
"229 135 LINE",
"229 286 LINE",
"506 286 LINE",
"506 420 LINE",
"229 420 LINE",
"229 563 LINE",
"552 563 LINE",
"552 698 LINE",
"77 698 LINE",
"77 0 LINE"
);
},
{
closed = 1;
nodes = (
"377 748 LINE",
"509 907 LINE",
"436 965 LINE",
"315 850 LINE",
"194 965 LINE",
"121 907 LINE",
"253 748 LINE"
);
}
);
};
components = (
{
name = E;
},
{
name = caron.case;
transform = "{1, 0, 0, 1, 16, 0}";
}
);
layerId = "5E87F462-D40B-43EC-958D-42003ED2F346";
width = 607;
},
{
anchors = (
{
name = bottom;
position = "{304, 0}";
},
{
name = bottomright;
position = "{489, 0}";
}
);
background = {
paths = (
{
closed = 1;
nodes = (
"489 0 LINE",
"489 20 LINE",
"130 20 LINE",
"130 344 LINE",
"477 344 LINE",
"477 364 LINE",
"130 364 LINE",
"130 678 LINE",
"489 678 LINE",
"489 698 LINE",
"108 698 LINE",
"108 0 LINE"
);
},
{
closed = 1;
nodes = (
"311 783 LINE",
"439 916 LINE",
"425 927 LINE",
"299 800 LINE",
"173 927 LINE",
"159 916 LINE",
"287 783 LINE"
);
}
);
};
components = (
{
name = E;
},
{
name = caron.case;
transform = "{1, 0, 0, 1, -1, 0}";
}
);
layerId = "D69F2138-E7D7-470A-972F-2AC6B0C54BA2";
width = 561;
}
);
rightKerningGroup = uc_e;
unicode = 011A;
userData = {
com.typemytype.robofont.mark = (
0.6,
0.986,
1,
1
);
};
},
{
glyphname = Ecircumflex;
lastChange = "2019-12-12 08:21:18 +0000";
layers = (
{
anchors = (
{
name = bottom;
position = "{304, 0}";
},
{
name = bottomright;
position = "{519, 0}";
}
);
components = (
{
name = E;
},
{
name = circumflex.case;
transform = "{1, 0, 0, 1, 4, 0}";
}
);
layerId = "E49AE6DE-96A1-45B5-978D-9231980F4AB5";
width = 583;
},
{
anchors = (
{
name = bottom;
position = "{304, 0}";
},
{
name = bottomright;
position = "{552, 0}";
}
);
background = {
paths = (
{
closed = 1;
nodes = (
"552 0 LINE",
"552 135 LINE",
"229 135 LINE",
"229 286 LINE",
"506 286 LINE",
"506 420 LINE",
"229 420 LINE",
"229 563 LINE",
"552 563 LINE",
"552 698 LINE",
"77 698 LINE",
"77 0 LINE"
);
},
{
closed = 1;
nodes = (
"315 854 LINE",
"436 739 LINE",
"509 797 LINE",
"377 956 LINE",
"253 956 LINE",
"121 797 LINE",
"194 739 LINE"
);
}
);
};
components = (
{
name = E;
},
{
name = circumflex.case;
transform = "{1, 0, 0, 1, 16, 0}";
}
);
layerId = "5E87F462-D40B-43EC-958D-42003ED2F346";
width = 607;
},
{
anchors = (
{
name = bottom;
position = "{304, 0}";
},
{
name = bottomright;
position = "{489, 0}";
}
);
background = {
paths = (
{
closed = 1;
nodes = (
"489 0 LINE",
"489 20 LINE",
"130 20 LINE",
"130 344 LINE",
"477 344 LINE",
"477 364 LINE",
"130 364 LINE",
"130 678 LINE",
"489 678 LINE",
"489 698 LINE",
"108 698 LINE",
"108 0 LINE"
);
},
{
closed = 1;
nodes = (
"299 906 LINE",
"425 779 LINE",
"439 790 LINE",
"311 923 LINE",
"287 923 LINE",
"159 790 LINE",
"173 779 LINE"
);
}
);
};
components = (
{
name = E;
},
{
name = circumflex.case;
transform = "{1, 0, 0, 1, -1, 0}";
}
);
layerId = "D69F2138-E7D7-470A-972F-2AC6B0C54BA2";
width = 561;
}
);
rightKerningGroup = uc_e;
unicode = 00CA;
userData = {
com.typemytype.robofont.mark = (
0.6,
0.986,
1,
1
);
};
},
{
glyphname = Ecircumflexacute;
lastChange = "2019-12-12 08:22:07 +0000";
layers = (
{
anchors = (
{
name = bottom;
position = "{304, 0}";
},
{
name = bottomright;
position = "{519, 0}";
}
);
components = (
{
name = E;
},
{
name = circumflexacute.case;
transform = "{1, 0, 0, 1, 304, 0}";
}
);
layerId = "E49AE6DE-96A1-45B5-978D-9231980F4AB5";
width = 583;
},
{
anchors = (
{
name = bottom;
position = "{304, 0}";
},
{
name = bottomright;
position = "{519, 0}";
}
);
background = {
paths = (
{
closed = 1;
nodes = (
"552 0 LINE",
"552 135 LINE",
"229 135 LINE",
"229 286 LINE",
"506 286 LINE",
"506 420 LINE",
"229 420 LINE",
"229 563 LINE",
"552 563 LINE",
"552 698 LINE",
"77 698 LINE",
"77 0 LINE"
);
},
{
closed = 1;
nodes = (
"315 835 LINE",
"439 731 LINE",
"507 795 LINE",
"362 942 LINE",
"268 942 LINE",
"123 795 LINE",
"191 731 LINE"
);
},
{
closed = 1;
nodes = (
"622 1070 LINE",
"508 1127 LINE",
"409 933 LINE",
"488 894 LINE"
);
}
);
};
components = (
{
name = E;
},
{
name = circumflexacute.case;
transform = "{1, 0, 0, 1, 316, 0}";
}
);
layerId = "5E87F462-D40B-43EC-958D-42003ED2F346";
width = 607;
},
{
anchors = (
{
name = bottom;
position = "{304, 0}";
},
{
name = bottomright;
position = "{519, 0}";
}
);
background = {
paths = (
{
closed = 1;
nodes = (
"489 0 LINE",
"489 20 LINE",
"130 20 LINE",
"130 344 LINE",
"477 344 LINE",
"477 364 LINE",
"130 364 LINE",
"130 678 LINE",
"489 678 LINE",
"489 698 LINE",
"108 698 LINE",
"108 0 LINE"
);
},
{
closed = 1;
nodes = (
"299 898 LINE",
"425 771 LINE",
"439 782 LINE",
"311 915 LINE",
"287 915 LINE",
"159 782 LINE",
"173 771 LINE"
);
},
{
closed = 1;
nodes = (
"528 1029 LINE",
"509 1041 LINE",
"398 887 LINE",
"413 877 LINE"
);
}
);
};
components = (
{
name = E;
},
{
name = circumflexacute.case;
transform = "{1, 0, 0, 1, 299, 0}";
}
);
layerId = "D69F2138-E7D7-470A-972F-2AC6B0C54BA2";
width = 561;
}
);
rightKerningGroup = uc_e;
unicode = 1EBE;
userData = {
com.typemytype.robofont.mark = (
0.6,
0.986,
1,
1
);
};
},
{
glyphname = Ecircumflexdotbelow;
lastChange = "2019-12-12 08:22:32 +0000";
layers = (
{
anchors = (
{
name = bottomright;
position = "{519, 0}";
}
);
components = (
{
name = E;
},
{
name = circumflex.case;
transform = "{1, 0, 0, 1, 4, 0}";
},
{
name = dotbelowcomb;
transform = "{1, 0, 0, 1, 304, 0}";
}
);
layerId = "E49AE6DE-96A1-45B5-978D-9231980F4AB5";
width = 583;
},
{
anchors = (
{
name = bottomright;
position = "{552, 0}";
}
);
background = {
paths = (
{
closed = 1;
nodes = (
"552 0 LINE",
"552 135 LINE",
"229 135 LINE",
"229 286 LINE",
"506 286 LINE",
"506 420 LINE",
"229 420 LINE",
"229 563 LINE",
"552 563 LINE",
"552 698 LINE",
"77 698 LINE",
"77 0 LINE"
);
},
{
closed = 1;
nodes = (
"374 -204 OFFCURVE",
"396 -176 OFFCURVE",
"396 -141 CURVE SMOOTH",
"396 -115 LINE SMOOTH",
"396 -80 OFFCURVE",
"374 -52 OFFCURVE",
"315 -52 CURVE SMOOTH",
"256 -52 OFFCURVE",
"234 -80 OFFCURVE",
"234 -115 CURVE SMOOTH",
"234 -141 LINE SMOOTH",
"234 -176 OFFCURVE",
"256 -204 OFFCURVE",
"315 -204 CURVE SMOOTH"
);
},
{
closed = 1;
nodes = (
"315 854 LINE",
"436 739 LINE",
"509 797 LINE",
"377 956 LINE",
"253 956 LINE",
"121 797 LINE",
"194 739 LINE"
);
}
);
};
components = (
{
name = E;
},
{
name = circumflex.case;
transform = "{1, 0, 0, 1, 16, 0}";
},
{
name = dotbelowcomb;
transform = "{1, 0, 0, 1, 316, 0}";
}
);
layerId = "5E87F462-D40B-43EC-958D-42003ED2F346";
width = 607;
},
{
anchors = (
{
name = bottomright;
position = "{489, 0}";
}
);
background = {
paths = (
{
closed = 1;
nodes = (
"489 0 LINE",
"489 20 LINE",
"130 20 LINE",
"130 344 LINE",
"477 344 LINE",
"477 364 LINE",
"130 364 LINE",
"130 678 LINE",
"489 678 LINE",
"489 698 LINE",
"108 698 LINE",
"108 0 LINE"
);
},
{
closed = 1;
nodes = (
"316 -134 OFFCURVE",
"322 -124 OFFCURVE",
"322 -113 CURVE SMOOTH",
"322 -106 LINE SMOOTH",
"322 -95 OFFCURVE",
"316 -85 OFFCURVE",
"299 -85 CURVE SMOOTH",
"282 -85 OFFCURVE",
"276 -95 OFFCURVE",
"276 -106 CURVE SMOOTH",
"276 -113 LINE SMOOTH",
"276 -124 OFFCURVE",
"282 -134 OFFCURVE",
"299 -134 CURVE SMOOTH"
);
},
{
closed = 1;
nodes = (
"299 906 LINE",
"425 779 LINE",
"439 790 LINE",
"311 923 LINE",
"287 923 LINE",
"159 790 LINE",
"173 779 LINE"
);
}
);
};
components = (
{
name = E;
},
{
name = circumflex.case;
transform = "{1, 0, 0, 1, -1, 0}";
},
{
name = dotbelowcomb;
transform = "{1, 0, 0, 1, 299, 0}";
}
);
layerId = "D69F2138-E7D7-470A-972F-2AC6B0C54BA2";
width = 561;
}
);
rightKerningGroup = uc_e;
unicode = 1EC6;
userData = {
com.typemytype.robofont.mark = (
0.6,
0.986,
1,
1
);
};
},
{
glyphname = Ecircumflexgrave;
lastChange = "2019-12-12 08:22:27 +0000";
layers = (
{
anchors = (
{
name = bottom;
position = "{304, 0}";
},
{
name = bottomright;
position = "{519, 0}";
}
);
components = (
{
name = E;
},
{
name = circumflexgrave.case;
transform = "{1, 0, 0, 1, 304, 0}";
}
);
layerId = "E49AE6DE-96A1-45B5-978D-9231980F4AB5";
width = 583;
},
{
anchors = (
{
name = bottom;
position = "{304, 0}";
},
{
name = bottomright;
position = "{552, 0}";
}
);
background = {
paths = (
{
closed = 1;
nodes = (
"552 0 LINE",
"552 135 LINE",
"229 135 LINE",
"229 286 LINE",
"506 286 LINE",
"506 420 LINE",
"229 420 LINE",
"229 563 LINE",
"552 563 LINE",
"552 698 LINE",
"77 698 LINE",
"77 0 LINE"
);
},
{
closed = 1;
nodes = (
"221 933 LINE",
"122 1127 LINE",
"8 1070 LINE",
"142 894 LINE"
);
},
{
closed = 1;
nodes = (
"315 835 LINE",
"439 731 LINE",
"507 795 LINE",
"362 942 LINE",
"268 942 LINE",
"123 795 LINE",
"191 731 LINE"
);
}
);
};
components = (
{
name = E;
},
{
name = circumflexgrave.case;
transform = "{1, 0, 0, 1, 316, 0}";
}
);
layerId = "5E87F462-D40B-43EC-958D-42003ED2F346";
width = 607;
},
{
anchors = (
{
name = bottom;
position = "{304, 0}";
},
{
name = bottomright;
position = "{489, 0}";
}
);
background = {
paths = (
{
closed = 1;
nodes = (
"489 0 LINE",
"489 20 LINE",
"130 20 LINE",
"130 344 LINE",
"477 344 LINE",
"477 364 LINE",
"130 364 LINE",
"130 678 LINE",
"489 678 LINE",
"489 698 LINE",
"108 698 LINE",
"108 0 LINE"
);
},
{
closed = 1;
nodes = (
"200 887 LINE",
"89 1041 LINE",
"70 1029 LINE",
"185 877 LINE"
);
},
{
closed = 1;
nodes = (
"299 898 LINE",
"425 771 LINE",
"439 782 LINE",
"311 915 LINE",
"287 915 LINE",
"159 782 LINE",
"173 771 LINE"
);
}
);
};
components = (
{
name = E;
},
{
name = circumflexgrave.case;
transform = "{1, 0, 0, 1, 299, 0}";
}
);
layerId = "D69F2138-E7D7-470A-972F-2AC6B0C54BA2";
width = 561;
}
);
rightKerningGroup = uc_e;
unicode = 1EC0;
userData = {
com.typemytype.robofont.mark = (
0.6,
0.986,
1,
1
);
};
},
{
glyphname = Ecircumflexhookabove;
lastChange = "2019-12-12 08:23:03 +0000";
layers = (
{
anchors = (
{
name = bottom;
position = "{304, 0}";
},
{
name = bottomright;
position = "{519, 0}";
}
);
components = (
{
name = E;
},
{
name = circumflexhook.case;
transform = "{1, 0, 0, 1, 304, 0}";
}
);
layerId = "E49AE6DE-96A1-45B5-978D-9231980F4AB5";
width = 583;
},
{
anchors = (
{
name = bottom;
position = "{304, 0}";
},
{
name = bottomright;
position = "{552, 0}";
}
);
background = {
paths = (
{
closed = 1;
nodes = (
"552 0 LINE",
"552 135 LINE",
"229 135 LINE",
"229 286 LINE",
"506 286 LINE",
"506 420 LINE",
"229 420 LINE",
"229 563 LINE",
"552 563 LINE",
"552 698 LINE",
"77 698 LINE",
"77 0 LINE"
);
},
{
closed = 1;
nodes = (
"315 835 LINE",
"439 731 LINE",
"507 795 LINE",
"362 942 LINE",
"268 942 LINE",
"123 795 LINE",
"191 731 LINE"
);
},
{
closed = 1;
nodes = (
"522 914 LINE SMOOTH",
"555 954 OFFCURVE",
"585 1001 OFFCURVE",
"585 1041 CURVE SMOOTH",
"585 1079 OFFCURVE",
"561 1113 OFFCURVE",
"487 1113 CURVE SMOOTH",
"353 1113 LINE",
"353 1012 LINE",
"472 1012 LINE",
"429 915 LINE",
"495 881 LINE"
);
}
);
};
components = (
{
name = E;
},
{
name = circumflexhook.case;
transform = "{1, 0, 0, 1, 316, 0}";
}
);
layerId = "5E87F462-D40B-43EC-958D-42003ED2F346";
width = 607;
},
{
anchors = (
{
name = bottom;
position = "{304, 0}";
},
{
name = bottomright;
position = "{489, 0}";
}
);
background = {
paths = (
{
closed = 1;
nodes = (
"489 0 LINE",
"489 20 LINE",
"130 20 LINE",
"130 344 LINE",
"477 344 LINE",
"477 364 LINE",
"130 364 LINE",
"130 678 LINE",
"489 678 LINE",
"489 698 LINE",
"108 698 LINE",
"108 0 LINE"
);
},
{
closed = 1;
nodes = (
"299 898 LINE",
"425 771 LINE",
"439 782 LINE",
"311 915 LINE",
"287 915 LINE",
"159 782 LINE",
"173 771 LINE"
);
},
{
closed = 1;
nodes = (
"467 951 LINE SMOOTH",
"493 991 OFFCURVE",
"498 1001 OFFCURVE",
"498 1009 CURVE SMOOTH",
"498 1020 OFFCURVE",
"490 1027 OFFCURVE",
"475 1027 CURVE SMOOTH",
"338 1027 LINE",
"338 1009 LINE",
"479 1009 LINE",
"402 883 LINE",
"418 875 LINE"
);
}
);
};
components = (
{
name = E;
},
{
name = circumflexhook.case;
transform = "{1, 0, 0, 1, 299, 0}";
}
);
layerId = "D69F2138-E7D7-470A-972F-2AC6B0C54BA2";
width = 561;
}
);
rightKerningGroup = uc_e;
unicode = 1EC2;
userData = {
com.typemytype.robofont.mark = (
0.6,
0.986,
1,
1
);
};
},
{
glyphname = Ecircumflextilde;
lastChange = "2019-12-12 08:23:16 +0000";
layers = (
{
anchors = (
{
name = bottom;
position = "{304, 0}";
},
{
name = bottomright;
position = "{519, 0}";
}
);
components = (
{
name = E;
},
{
name = circumflextilde.case;
transform = "{1, 0, 0, 1, 304, 0}";
}
);
layerId = "E49AE6DE-96A1-45B5-978D-9231980F4AB5";
width = 583;
},
{
anchors = (
{
name = bottom;
position = "{304, 0}";
},
{
name = bottomright;
position = "{552, 0}";
}
);
background = {
paths = (
{
closed = 1;
nodes = (
"552 0 LINE",
"552 135 LINE",
"229 135 LINE",
"229 286 LINE",
"506 286 LINE",
"506 420 LINE",
"229 420 LINE",
"229 563 LINE",
"552 563 LINE",
"552 698 LINE",
"77 698 LINE",
"77 0 LINE"
);
},
{
closed = 1;
nodes = (
"315 826 LINE",
"439 731 LINE",
"505 795 LINE",
"363 929 LINE",
"267 929 LINE",
"125 795 LINE",
"191 731 LINE"
);
},
{
closed = 1;
nodes = (
"443 958 OFFCURVE",
"480 986 OFFCURVE",
"504 1022 CURVE",
"454 1086 LINE",
"433 1069 OFFCURVE",
"418 1061 OFFCURVE",
"395 1061 CURVE SMOOTH",
"369 1061 OFFCURVE",
"346 1071 OFFCURVE",
"317 1083 CURVE SMOOTH",
"292 1094 OFFCURVE",
"270 1103 OFFCURVE",
"240 1103 CURVE SMOOTH",
"187 1103 OFFCURVE",
"150 1075 OFFCURVE",
"126 1039 CURVE",
"176 975 LINE",
"197 992 OFFCURVE",
"212 1000 OFFCURVE",
"235 1000 CURVE SMOOTH",
"261 1000 OFFCURVE",
"284 990 OFFCURVE",
"313 978 CURVE SMOOTH",
"338 967 OFFCURVE",
"360 958 OFFCURVE",
"390 958 CURVE SMOOTH"
);
}
);
};
components = (
{
name = E;
},
{
name = circumflextilde.case;
transform = "{1, 0, 0, 1, 316, 0}";
}
);
layerId = "5E87F462-D40B-43EC-958D-42003ED2F346";
width = 607;
},
{
anchors = (
{
name = bottom;
position = "{304, 0}";
},
{
name = bottomright;
position = "{489, 0}";
}
);
background = {
paths = (
{
closed = 1;
nodes = (
"489 0 LINE",
"489 20 LINE",
"130 20 LINE",
"130 344 LINE",
"477 344 LINE",
"477 364 LINE",
"130 364 LINE",
"130 678 LINE",
"489 678 LINE",
"489 698 LINE",
"108 698 LINE",
"108 0 LINE"
);
},
{
closed = 1;
nodes = (
"299 898 LINE",
"425 771 LINE",
"439 782 LINE",
"311 915 LINE",
"287 915 LINE",
"159 782 LINE",
"173 771 LINE"
);
},
{
closed = 1;
nodes = (
"398 953 OFFCURVE",
"424 965 OFFCURVE",
"448 992 CURVE",
"436 1004 LINE",
"415 982 OFFCURVE",
"395 971 OFFCURVE",
"371 971 CURVE SMOOTH",
"352 971 OFFCURVE",
"334 978 OFFCURVE",
"305 997 CURVE SMOOTH",
"271 1019 OFFCURVE",
"251 1027 OFFCURVE",
"228 1027 CURVE SMOOTH",
"200 1027 OFFCURVE",
"174 1015 OFFCURVE",
"150 988 CURVE",
"162 976 LINE",
"183 998 OFFCURVE",
"203 1009 OFFCURVE",
"227 1009 CURVE SMOOTH",
"246 1009 OFFCURVE",
"264 1002 OFFCURVE",
"293 983 CURVE SMOOTH",
"327 961 OFFCURVE",
"347 953 OFFCURVE",
"370 953 CURVE SMOOTH"
);
}
);
};
components = (
{
name = E;
},
{
name = circumflextilde.case;
transform = "{1, 0, 0, 1, 299, 0}";
}
);
layerId = "D69F2138-E7D7-470A-972F-2AC6B0C54BA2";
width = 561;
}
);
rightKerningGroup = uc_e;
unicode = 1EC4;
userData = {
com.typemytype.robofont.mark = (
0.6,
0.986,
1,
1
);
};
},
{
glyphname = Edieresis;
lastChange = "2019-12-12 08:23:28 +0000";
layers = (
{
anchors = (
{
name = bottom;
position = "{304, 0}";
},
{
name = bottomright;
position = "{519, 0}";
}
);
components = (
{
name = E;
},
{
name = dieresis.case;
transform = "{1, 0, 0, 1, 4, 0}";
}
);
layerId = "E49AE6DE-96A1-45B5-978D-9231980F4AB5";
width = 583;
},
{
anchors = (
{
name = bottom;
position = "{304, 0}";
},
{
name = bottomright;
position = "{552, 0}";
}
);
background = {
paths = (
{
closed = 1;
nodes = (
"552 0 LINE",
"552 135 LINE",
"229 135 LINE",
"229 286 LINE",
"506 286 LINE",
"506 420 LINE",
"229 420 LINE",
"229 563 LINE",
"552 563 LINE",
"552 698 LINE",
"77 698 LINE",
"77 0 LINE"
);
},
{
closed = 1;
nodes = (
"265 761 OFFCURVE",
"285 789 OFFCURVE",
"285 824 CURVE SMOOTH",
"285 849 LINE SMOOTH",
"285 884 OFFCURVE",
"265 912 OFFCURVE",
"205 912 CURVE SMOOTH",
"145 912 OFFCURVE",
"125 884 OFFCURVE",
"125 849 CURVE SMOOTH",
"125 824 LINE SMOOTH",
"125 789 OFFCURVE",
"145 761 OFFCURVE",
"205 761 CURVE SMOOTH"
);
},
{
closed = 1;
nodes = (
"485 761 OFFCURVE",
"505 789 OFFCURVE",
"505 824 CURVE SMOOTH",
"505 849 LINE SMOOTH",
"505 884 OFFCURVE",
"485 912 OFFCURVE",
"425 912 CURVE SMOOTH",
"365 912 OFFCURVE",
"345 884 OFFCURVE",
"345 849 CURVE SMOOTH",
"345 824 LINE SMOOTH",
"345 789 OFFCURVE",
"365 761 OFFCURVE",
"425 761 CURVE SMOOTH"
);
}
);
};
components = (
{
name = E;
},
{
name = dieresis.case;
transform = "{1, 0, 0, 1, 16, 0}";
}
);
layerId = "5E87F462-D40B-43EC-958D-42003ED2F346";
width = 607;
},
{
anchors = (
{
name = bottom;
position = "{304, 0}";
},
{
name = bottomright;
position = "{489, 0}";
}
);
background = {
paths = (
{
closed = 1;
nodes = (
"489 0 LINE",
"489 20 LINE",
"130 20 LINE",
"130 344 LINE",
"477 344 LINE",
"477 364 LINE",
"130 364 LINE",
"130 678 LINE",
"489 678 LINE",
"489 698 LINE",
"108 698 LINE",
"108 0 LINE"
);
},
{
closed = 1;
nodes = (
"225 819 OFFCURVE",
"231 829 OFFCURVE",
"231 840 CURVE SMOOTH",
"231 847 LINE SMOOTH",
"231 858 OFFCURVE",
"225 868 OFFCURVE",
"208 868 CURVE SMOOTH",
"191 868 OFFCURVE",
"185 858 OFFCURVE",
"185 847 CURVE SMOOTH",
"185 840 LINE SMOOTH",
"185 829 OFFCURVE",
"191 819 OFFCURVE",
"208 819 CURVE SMOOTH"
);
},
{
closed = 1;
nodes = (
"407 819 OFFCURVE",
"413 829 OFFCURVE",
"413 840 CURVE SMOOTH",
"413 847 LINE SMOOTH",
"413 858 OFFCURVE",
"407 868 OFFCURVE",
"390 868 CURVE SMOOTH",
"373 868 OFFCURVE",
"367 858 OFFCURVE",
"367 847 CURVE SMOOTH",
"367 840 LINE SMOOTH",
"367 829 OFFCURVE",
"373 819 OFFCURVE",
"390 819 CURVE SMOOTH"
);
}
);
};
components = (
{
name = E;
},
{
name = dieresis.case;
transform = "{1, 0, 0, 1, -1, 0}";
}
);
layerId = "D69F2138-E7D7-470A-972F-2AC6B0C54BA2";
width = 561;
}
);
rightKerningGroup = uc_e;
unicode = 00CB;
userData = {
com.typemytype.robofont.mark = (
0.6,
0.986,
1,
1
);
};
},
{
glyphname = Edotaccent;
lastChange = "2019-12-12 08:23:38 +0000";
layers = (
{
anchors = (
{
name = bottom;
position = "{304, 0}";
},
{
name = bottomright;
position = "{519, 0}";
}
);
components = (
{
name = E;
},
{
name = dotaccent.case;
transform = "{1, 0, 0, 1, 4, 0}";
}
);
layerId = "E49AE6DE-96A1-45B5-978D-9231980F4AB5";
width = 583;
},
{
anchors = (
{
name = bottom;
position = "{304, 0}";
},
{
name = bottomright;
position = "{552, 0}";
}
);
background = {
paths = (
{
closed = 1;
nodes = (
"552 0 LINE",
"552 135 LINE",
"229 135 LINE",
"229 286 LINE",
"506 286 LINE",
"506 420 LINE",
"229 420 LINE",
"229 563 LINE",
"552 563 LINE",
"552 698 LINE",
"77 698 LINE",
"77 0 LINE"
);
},
{
closed = 1;
nodes = (
"381 752 OFFCURVE",
"404 783 OFFCURVE",
"404 822 CURVE SMOOTH",
"404 851 LINE SMOOTH",
"404 890 OFFCURVE",
"381 921 OFFCURVE",
"315 921 CURVE SMOOTH",
"249 921 OFFCURVE",
"226 890 OFFCURVE",
"226 851 CURVE SMOOTH",
"226 822 LINE SMOOTH",
"226 783 OFFCURVE",
"249 752 OFFCURVE",
"315 752 CURVE SMOOTH"
);
}
);
};
components = (
{
name = E;
},
{
name = dotaccent.case;
transform = "{1, 0, 0, 1, 16, 0}";
}
);
layerId = "5E87F462-D40B-43EC-958D-42003ED2F346";
width = 607;
},
{
anchors = (
{
name = bottom;
position = "{304, 0}";
},
{
name = bottomright;
position = "{489, 0}";
}
);
background = {
paths = (
{
closed = 1;
nodes = (
"489 0 LINE",
"489 20 LINE",
"130 20 LINE",
"130 344 LINE",
"477 344 LINE",
"477 364 LINE",
"130 364 LINE",
"130 678 LINE",
"489 678 LINE",
"489 698 LINE",
"108 698 LINE",
"108 0 LINE"
);
},
{
closed = 1;
nodes = (
"316 822 OFFCURVE",
"322 832 OFFCURVE",
"322 843 CURVE SMOOTH",
"322 850 LINE SMOOTH",
"322 861 OFFCURVE",
"316 871 OFFCURVE",
"299 871 CURVE SMOOTH",
"282 871 OFFCURVE",
"276 861 OFFCURVE",
"276 850 CURVE SMOOTH",
"276 843 LINE SMOOTH",
"276 832 OFFCURVE",
"282 822 OFFCURVE",
"299 822 CURVE SMOOTH"
);
}
);
};
components = (
{
name = E;
},
{
name = dotaccent.case;
transform = "{1, 0, 0, 1, -1, 0}";
}
);
layerId = "D69F2138-E7D7-470A-972F-2AC6B0C54BA2";
width = 561;
}
);
rightKerningGroup = uc_e;
unicode = 0116;
userData = {
com.typemytype.robofont.mark = (
0.6,
0.986,
1,
1
);
};
},
{
glyphname = Edotbelow;
lastChange = "2019-12-12 08:23:50 +0000";
layers = (
{
anchors = (
{
name = bottomright;
position = "{519, 0}";
},
{
name = top;
position = "{304, 698}";
}
);
components = (
{
name = E;
},
{
name = dotbelowcomb;
transform = "{1, 0, 0, 1, 304, 0}";
}
);
layerId = "E49AE6DE-96A1-45B5-978D-9231980F4AB5";
width = 583;
},
{
anchors = (
{
name = bottomright;
position = "{552, 0}";
},
{
name = top;
position = "{304, 698}";
}
);
background = {
paths = (
{
closed = 1;
nodes = (
"552 0 LINE",
"552 135 LINE",
"229 135 LINE",
"229 286 LINE",
"506 286 LINE",
"506 420 LINE",
"229 420 LINE",
"229 563 LINE",
"552 563 LINE",
"552 698 LINE",
"77 698 LINE",
"77 0 LINE"
);
},
{
closed = 1;
nodes = (
"374 -204 OFFCURVE",
"396 -176 OFFCURVE",
"396 -141 CURVE SMOOTH",
"396 -115 LINE SMOOTH",
"396 -80 OFFCURVE",
"374 -52 OFFCURVE",
"315 -52 CURVE SMOOTH",
"256 -52 OFFCURVE",
"234 -80 OFFCURVE",
"234 -115 CURVE SMOOTH",
"234 -141 LINE SMOOTH",
"234 -176 OFFCURVE",
"256 -204 OFFCURVE",
"315 -204 CURVE SMOOTH"
);
}
);
};
components = (
{
name = E;
},
{
name = dotbelowcomb;
transform = "{1, 0, 0, 1, 316, 0}";
}
);
layerId = "5E87F462-D40B-43EC-958D-42003ED2F346";
width = 607;
},
{
anchors = (
{
name = bottomright;
position = "{489, 0}";
},
{
name = top;
position = "{304, 698}";
}
);
background = {
paths = (
{
closed = 1;
nodes = (
"489 0 LINE",
"489 20 LINE",
"130 20 LINE",
"130 344 LINE",
"477 344 LINE",
"477 364 LINE",
"130 364 LINE",
"130 678 LINE",
"489 678 LINE",
"489 698 LINE",
"108 698 LINE",
"108 0 LINE"
);
},
{
closed = 1;
nodes = (
"316 -134 OFFCURVE",
"322 -124 OFFCURVE",
"322 -113 CURVE SMOOTH",
"322 -106 LINE SMOOTH",
"322 -95 OFFCURVE",
"316 -85 OFFCURVE",
"299 -85 CURVE SMOOTH",
"282 -85 OFFCURVE",
"276 -95 OFFCURVE",
"276 -106 CURVE SMOOTH",
"276 -113 LINE SMOOTH",
"276 -124 OFFCURVE",
"282 -134 OFFCURVE",
"299 -134 CURVE SMOOTH"
);
}
);
};
components = (
{
name = E;
},
{
name = dotbelowcomb;
transform = "{1, 0, 0, 1, 299, 0}";
}
);
layerId = "D69F2138-E7D7-470A-972F-2AC6B0C54BA2";
width = 561;
}
);
rightKerningGroup = uc_e;
unicode = 1EB8;
userData = {
com.typemytype.robofont.mark = (
0.6,
0.986,
1,
1
);
};
},
{
glyphname = Egrave;
lastChange = "2019-12-12 08:24:06 +0000";
layers = (
{
anchors = (
{
name = bottom;
position = "{304, 0}";
},
{
name = bottomright;
position = "{519, 0}";
}
);
components = (
{
name = E;
},
{
name = grave.case;
transform = "{1, 0, 0, 1, 4, 0}";
}
);
layerId = "E49AE6DE-96A1-45B5-978D-9231980F4AB5";
width = 583;
},
{
anchors = (
{
name = bottom;
position = "{304, 0}";
},
{
name = bottomright;
position = "{552, 0}";
}
);
background = {
paths = (
{
closed = 1;
nodes = (
"552 0 LINE",
"552 135 LINE",
"229 135 LINE",
"229 286 LINE",
"506 286 LINE",
"506 420 LINE",
"229 420 LINE",
"229 563 LINE",
"552 563 LINE",
"552 698 LINE",
"77 698 LINE",
"77 0 LINE"
);
},
{
closed = 1;
nodes = (
"387 783 LINE",
"288 977 LINE",
"165 916 LINE",
"299 740 LINE"
);
}
);
};
components = (
{
name = E;
},
{
name = grave.case;
transform = "{1, 0, 0, 1, 16, 0}";
}
);
layerId = "5E87F462-D40B-43EC-958D-42003ED2F346";
width = 607;
},
{
anchors = (
{
name = bottom;
position = "{304, 0}";
},
{
name = bottomright;
position = "{489, 0}";
}
);
background = {
paths = (
{
closed = 1;
nodes = (
"489 0 LINE",
"489 20 LINE",
"130 20 LINE",
"130 344 LINE",
"477 344 LINE",
"477 364 LINE",
"130 364 LINE",
"130 678 LINE",
"489 678 LINE",
"489 698 LINE",
"108 698 LINE",
"108 0 LINE"
);
},
{
closed = 1;
nodes = (
"331 777 LINE",
"220 931 LINE",
"201 919 LINE",
"316 767 LINE"
);
}
);
};
components = (
{
name = E;
},
{
name = grave.case;
transform = "{1, 0, 0, 1, -1, 0}";
}
);
layerId = "D69F2138-E7D7-470A-972F-2AC6B0C54BA2";
width = 561;
}
);
rightKerningGroup = uc_e;
unicode = 00C8;
userData = {
com.typemytype.robofont.mark = (
0.6,
0.986,
1,
1
);
};
},
{
glyphname = Ehookabove;
lastChange = "2019-12-12 13:31:24 +0000";
layers = (
{
anchors = (
{
name = bottom;
position = "{304, 0}";
},
{
name = bottomright;
position = "{519, 0}";
}
);
components = (
{
name = E;
},
{
name = hookabovecomb;
transform = "{1, 0, 0, 1, 304, 170}";
}
);
layerId = "E49AE6DE-96A1-45B5-978D-9231980F4AB5";
width = 583;
},
{
anchors = (
{
name = bottom;
position = "{304, 0}";
},
{
name = bottomright;
position = "{552, 0}";
}
);
background = {
paths = (
{
closed = 1;
nodes = (
"552 0 LINE",
"552 135 LINE",
"229 135 LINE",
"229 286 LINE",
"506 286 LINE",
"506 420 LINE",
"229 420 LINE",
"229 563 LINE",
"552 563 LINE",
"552 698 LINE",
"77 698 LINE",
"77 0 LINE"
);
},
{
closed = 1;
nodes = (
"379 764 LINE SMOOTH",
"412 804 OFFCURVE",
"436 851 OFFCURVE",
"436 890 CURVE SMOOTH",
"436 929 OFFCURVE",
"413 963 OFFCURVE",
"338 963 CURVE SMOOTH",
"195 963 LINE",
"195 857 LINE",
"317 857 LINE",
"276 765 LINE",
"351 730 LINE"
);
}
);
};
components = (
{
name = E;
},
{
name = hookabovecomb;
transform = "{1, 0, 0, 1, 316, 159}";
}
);
layerId = "5E87F462-D40B-43EC-958D-42003ED2F346";
width = 607;
},
{
anchors = (
{
name = bottom;
position = "{304, 0}";
},
{
name = bottomright;
position = "{489, 0}";
}
);
background = {
paths = (
{
closed = 1;
nodes = (
"489 0 LINE",
"489 20 LINE",
"130 20 LINE",
"130 344 LINE",
"477 344 LINE",
"477 364 LINE",
"130 364 LINE",
"130 678 LINE",
"489 678 LINE",
"489 698 LINE",
"108 698 LINE",
"108 0 LINE"
);
},
{
closed = 1;
nodes = (
"354 841 LINE SMOOTH",
"380 881 OFFCURVE",
"385 891 OFFCURVE",
"385 899 CURVE SMOOTH",
"385 910 OFFCURVE",
"377 917 OFFCURVE",
"362 917 CURVE SMOOTH",
"225 917 LINE",
"225 899 LINE",
"366 899 LINE",
"289 773 LINE",
"305 765 LINE"
);
}
);
};
components = (
{
name = E;
},
{
name = hookabovecomb;
transform = "{1, 0, 0, 1, 298, 180}";
}
);
layerId = "D69F2138-E7D7-470A-972F-2AC6B0C54BA2";
width = 561;
}
);
rightKerningGroup = uc_e;
unicode = 1EBA;
userData = {
com.typemytype.robofont.mark = (
0.6,
0.986,
1,
1
);
};
},
{
glyphname = Emacron;
lastChange = "2019-12-12 08:25:03 +0000";
layers = (
{
anchors = (
{
name = bottom;
position = "{304, 0}";
},
{
name = bottomright;
position = "{519, 0}";
}
);
components = (
{
name = E;
},
{
name = macron.case;
transform = "{1, 0, 0, 1, 4, 0}";
}
);
layerId = "E49AE6DE-96A1-45B5-978D-9231980F4AB5";
width = 583;
},
{
anchors = (
{
name = bottom;
position = "{304, 0}";
},
{
name = bottomright;
position = "{552, 0}";
}
);
background = {
paths = (
{
closed = 1;
nodes = (
"552 0 LINE",
"552 135 LINE",
"229 135 LINE",
"229 286 LINE",
"506 286 LINE",
"506 420 LINE",
"229 420 LINE",
"229 563 LINE",
"552 563 LINE",
"552 698 LINE",
"77 698 LINE",
"77 0 LINE"
);
},
{
closed = 1;
nodes = (
"468 785 LINE",
"468 888 LINE",
"162 888 LINE",
"162 785 LINE"
);
}
);
};
components = (
{
name = E;
},
{
name = macron.case;
transform = "{1, 0, 0, 1, 16, 0}";
}
);
layerId = "5E87F462-D40B-43EC-958D-42003ED2F346";
width = 607;
},
{
anchors = (
{
name = bottom;
position = "{304, 0}";
},
{
name = bottomright;
position = "{489, 0}";
}
);
background = {
paths = (
{
closed = 1;
nodes = (
"489 0 LINE",
"489 20 LINE",
"130 20 LINE",
"130 344 LINE",
"477 344 LINE",
"477 364 LINE",
"130 364 LINE",
"130 678 LINE",
"489 678 LINE",
"489 698 LINE",
"108 698 LINE",
"108 0 LINE"
);
},
{
closed = 1;
nodes = (
"428 838 LINE",
"428 856 LINE",
"170 856 LINE",
"170 838 LINE"
);
}
);
};
components = (
{
name = E;
},
{
name = macron.case;
transform = "{1, 0, 0, 1, -1, 0}";
}
);
layerId = "D69F2138-E7D7-470A-972F-2AC6B0C54BA2";
width = 561;
}
);
rightKerningGroup = uc_e;
unicode = 0112;
userData = {
com.typemytype.robofont.mark = (
0.6,
0.986,
1,
1
);
};
},
{
glyphname = Eogonek;
lastChange = "2019-12-09 08:04:08 +0000";
layers = (
{
layerId = "E49AE6DE-96A1-45B5-978D-9231980F4AB5";
paths = (
{
closed = 1;
nodes = (
"498 -207 OFFCURVE",
"528 -189 OFFCURVE",
"540 -168 CURVE",
"500 -129 LINE",
"488 -144 OFFCURVE",
"471 -153 OFFCURVE",
"452 -153 CURVE SMOOTH",
"434 -153 OFFCURVE",
"421 -145 OFFCURVE",
"421 -123 CURVE SMOOTH",
"421 -101 OFFCURVE",
"434 -78 OFFCURVE",
"519 0 CURVE",
"519 74 LINE",
"177 74 LINE",
"177 316 LINE",
"499 316 LINE",
"499 390 LINE",
"177 390 LINE",
"177 624 LINE",
"519 624 LINE",
"519 698 LINE",
"93 698 LINE",
"93 0 LINE {name = hr00;}",
"457 0 LINE",
"458 -5 LINE",
"403 -42 OFFCURVE",
"357 -80 OFFCURVE",
"357 -131 CURVE SMOOTH",
"357 -184 OFFCURVE",
"400 -207 OFFCURVE",
"452 -207 CURVE SMOOTH"
);
}
);
width = 583;
},
{
layerId = "5E87F462-D40B-43EC-958D-42003ED2F346";
paths = (
{
closed = 1;
nodes = (
"526 -212 OFFCURVE",
"568 -193 OFFCURVE",
"585 -161 CURVE",
"532 -110 LINE",
"518 -126 OFFCURVE",
"501 -138 OFFCURVE",
"477 -138 CURVE SMOOTH",
"457 -138 OFFCURVE",
"439 -130 OFFCURVE",
"439 -105 CURVE SMOOTH",
"439 -81 OFFCURVE",
"454 -60 OFFCURVE",
"552 0 CURVE",
"552 135 LINE",
"229 135 LINE",
"229 286 LINE",
"506 286 LINE",
"506 420 LINE",
"229 420 LINE",
"229 563 LINE",
"552 563 LINE",
"552 698 LINE",
"77 698 LINE",
"77 0 LINE",
"457 0 LINE",
"458 -4 LINE",
"384 -38 OFFCURVE",
"339 -71 OFFCURVE",
"339 -127 CURVE SMOOTH",
"339 -191 OFFCURVE",
"397 -212 OFFCURVE",
"463 -212 CURVE SMOOTH"
);
}
);
width = 607;
},
{
layerId = "D69F2138-E7D7-470A-972F-2AC6B0C54BA2";
paths = (
{
closed = 1;
nodes = (
"464 -202 OFFCURVE",
"490 -188 OFFCURVE",
"503 -170 CURVE",
"489 -159 LINE",
"479 -171 OFFCURVE",
"461 -184 OFFCURVE",
"429 -184 CURVE SMOOTH",
"394 -184 OFFCURVE",
"370 -169 OFFCURVE",
"370 -132 CURVE SMOOTH",
"370 -82 OFFCURVE",
"410 -51 OFFCURVE",
"489 0 CURVE",
"489 20 LINE",
"130 20 LINE",
"130 344 LINE",
"477 344 LINE",
"477 364 LINE",
"130 364 LINE",
"130 678 LINE",
"489 678 LINE",
"489 698 LINE",
"108 698 LINE",
"108 0 LINE",
"460 0 LINE",
"461 -3 LINE",
"373 -54 OFFCURVE",
"349 -97 OFFCURVE",
"349 -135 CURVE SMOOTH",
"349 -179 OFFCURVE",
"383 -202 OFFCURVE",
"428 -202 CURVE SMOOTH"
);
}
);
width = 561;
}
);
rightKerningGroup = uc_e;
unicode = 0118;
},
{
glyphname = Etilde;
lastChange = "2019-12-12 08:25:22 +0000";
layers = (
{
anchors = (
{
name = bottom;
position = "{304, 0}";
},
{
name = bottomright;
position = "{519, 0}";
}
);
components = (
{
name = E;
},
{
name = tilde.case;
transform = "{1, 0, 0, 1, 4, 0}";
}
);
layerId = "E49AE6DE-96A1-45B5-978D-9231980F4AB5";
width = 583;
},
{
anchors = (
{
name = bottom;
position = "{304, 0}";
},
{
name = bottomright;
position = "{552, 0}";
}
);
background = {
paths = (
{
closed = 1;
nodes = (
"552 0 LINE",
"552 135 LINE",
"229 135 LINE",
"229 286 LINE",
"506 286 LINE",
"506 420 LINE",
"229 420 LINE",
"229 563 LINE",
"552 563 LINE",
"552 698 LINE",
"77 698 LINE",
"77 0 LINE"
);
},
{
closed = 1;
nodes = (
"444 762 OFFCURVE",
"481 790 OFFCURVE",
"505 826 CURVE",
"453 894 LINE",
"432 877 OFFCURVE",
"417 869 OFFCURVE",
"394 869 CURVE SMOOTH",
"368 869 OFFCURVE",
"345 879 OFFCURVE",
"316 891 CURVE SMOOTH",
"291 902 OFFCURVE",
"269 911 OFFCURVE",
"239 911 CURVE SMOOTH",
"186 911 OFFCURVE",
"149 883 OFFCURVE",
"125 847 CURVE",
"177 779 LINE",
"198 796 OFFCURVE",
"213 804 OFFCURVE",
"236 804 CURVE SMOOTH",
"262 804 OFFCURVE",
"285 794 OFFCURVE",
"314 782 CURVE SMOOTH",
"339 771 OFFCURVE",
"361 762 OFFCURVE",
"391 762 CURVE SMOOTH"
);
}
);
};
components = (
{
name = E;
},
{
name = tilde.case;
transform = "{1, 0, 0, 1, 16, 0}";
}
);
layerId = "5E87F462-D40B-43EC-958D-42003ED2F346";
width = 607;
},
{
anchors = (
{
name = bottom;
position = "{304, 0}";
},
{
name = bottomright;
position = "{489, 0}";
}
);
background = {
paths = (
{
closed = 1;
nodes = (
"489 0 LINE",
"489 20 LINE",
"130 20 LINE",
"130 344 LINE",
"477 344 LINE",
"477 364 LINE",
"130 364 LINE",
"130 678 LINE",
"489 678 LINE",
"489 698 LINE",
"108 698 LINE",
"108 0 LINE"
);
},
{
closed = 1;
nodes = (
"398 808 OFFCURVE",
"424 820 OFFCURVE",
"448 847 CURVE",
"436 859 LINE",
"415 837 OFFCURVE",
"395 826 OFFCURVE",
"371 826 CURVE SMOOTH",
"352 826 OFFCURVE",
"334 833 OFFCURVE",
"305 852 CURVE SMOOTH",
"271 874 OFFCURVE",
"251 882 OFFCURVE",
"228 882 CURVE SMOOTH",
"200 882 OFFCURVE",
"174 870 OFFCURVE",
"150 843 CURVE",
"162 831 LINE",
"183 853 OFFCURVE",
"203 864 OFFCURVE",
"227 864 CURVE SMOOTH",
"246 864 OFFCURVE",
"264 857 OFFCURVE",
"293 838 CURVE SMOOTH",
"327 816 OFFCURVE",
"347 808 OFFCURVE",
"370 808 CURVE SMOOTH"
);
}
);
};
components = (
{
name = E;
},
{
name = tilde.case;
transform = "{1, 0, 0, 1, -1, 0}";
}
);
layerId = "D69F2138-E7D7-470A-972F-2AC6B0C54BA2";
width = 561;
}
);
rightKerningGroup = uc_e;
unicode = 1EBC;
userData = {
com.typemytype.robofont.mark = (
0.6,
0.986,
1,
1
);
};
},
{
glyphname = F;
lastChange = "2019-12-09 12:18:51 +0000";
layers = (
{
anchors = (
{
name = bottom;
position = "{139, 0}";
},
{
name = top;
position = "{301, 698}";
}
);
layerId = "E49AE6DE-96A1-45B5-978D-9231980F4AB5";
paths = (
{
closed = 1;
nodes = (
"177 0 LINE {name = hr00;}",
"177 316 LINE",
"480 316 LINE",
"480 390 LINE",
"177 390 LINE",
"177 624 LINE",
"509 624 LINE",
"509 698 LINE",
"93 698 LINE",
"93 0 LINE"
);
}
);
width = 559;
},
{
anchors = (
{
name = bottom;
position = "{158, 0}";
},
{
name = top;
position = "{293, 698}";
}
);
layerId = "5E87F462-D40B-43EC-958D-42003ED2F346";
paths = (
{
closed = 1;
nodes = (
"229 0 LINE",
"229 286 LINE",
"494 286 LINE",
"494 420 LINE",
"229 420 LINE",
"229 563 LINE",
"540 563 LINE",
"540 698 LINE",
"77 698 LINE",
"77 0 LINE"
);
}
);
width = 585;
},
{
anchors = (
{
name = bottom;
position = "{120, 0}";
},
{
name = top;
position = "{268, 698}";
}
);
layerId = "D69F2138-E7D7-470A-972F-2AC6B0C54BA2";
paths = (
{
closed = 1;
nodes = (
"130 0 LINE",
"130 344 LINE",
"467 344 LINE",
"467 364 LINE",
"130 364 LINE",
"130 678 LINE",
"481 678 LINE",
"481 698 LINE",
"108 698 LINE",
"108 0 LINE"
);
}
);
width = 535;
}
);
unicode = 0046;
},
{
glyphname = G;
lastChange = "2019-12-12 08:26:10 +0000";
layers = (
{
anchors = (
{
name = bottom;
position = "{348, 0}";
},
{
name = top;
position = "{355, 698}";
}
);
layerId = "E49AE6DE-96A1-45B5-978D-9231980F4AB5";
paths = (
{
closed = 1;
nodes = (
"454 -12 OFFCURVE",
"525 37 OFFCURVE",
"542 102 CURVE {name = hr02;}",
"545 102 LINE",
"545 0 LINE",
"623 0 LINE",
"623 359 LINE",
"387 359 LINE",
"387 285 LINE",
"541 285 LINE",
"541 216 LINE SMOOTH",
"541 113 OFFCURVE",
"460 63 OFFCURVE",
"363 63 CURVE SMOOTH {name = hr01;}",
"230 63 OFFCURVE",
"148 155 OFFCURVE",
"148 293 CURVE SMOOTH",
"148 406 LINE SMOOTH",
"148 544 OFFCURVE",
"232 635 OFFCURVE",
"355 635 CURVE SMOOTH",
"443 635 OFFCURVE",
"508 589 OFFCURVE",
"540 515 CURVE",
"609 557 LINE",
"564 648 OFFCURVE",
"480 710 OFFCURVE",
"355 710 CURVE SMOOTH",
"176 710 OFFCURVE",
"58 581 OFFCURVE",
"58 349 CURVE SMOOTH",
"58 115 OFFCURVE",
"177 -12 OFFCURVE",
"348 -12 CURVE SMOOTH"
);
}
);
width = 695;
},
{
anchors = (
{
name = bottom;
position = "{350, 0}";
},
{
name = top;
position = "{358, 698}";
}
);
layerId = "5E87F462-D40B-43EC-958D-42003ED2F346";
paths = (
{
closed = 1;
nodes = (
"441 -12 OFFCURVE",
"505 41 OFFCURVE",
"515 111 CURVE",
"520 111 LINE",
"520 0 LINE",
"648 0 LINE",
"648 389 LINE",
"373 389 LINE",
"373 262 LINE",
"503 262 LINE",
"503 227 LINE SMOOTH",
"503 159 OFFCURVE",
"442 123 OFFCURVE",
"366 123 CURVE SMOOTH",
"272 123 OFFCURVE",
"211 177 OFFCURVE",
"211 293 CURVE SMOOTH",
"211 405 LINE SMOOTH",
"211 521 OFFCURVE",
"272 575 OFFCURVE",
"366 575 CURVE SMOOTH",
"447 575 OFFCURVE",
"490 531 OFFCURVE",
"511 477 CURVE",
"635 548 LINE",
"583 655 OFFCURVE",
"490 710 OFFCURVE",
"366 710 CURVE SMOOTH",
"177 710 OFFCURVE",
"50 581 OFFCURVE",
"50 346 CURVE SMOOTH",
"50 112 OFFCURVE",
"176 -12 OFFCURVE",
"336 -12 CURVE SMOOTH"
);
}
);
width = 719;
},
{
anchors = (
{
name = bottom;
position = "{340, 0}";
},
{
name = top;
position = "{340, 698}";
}
);
layerId = "D69F2138-E7D7-470A-972F-2AC6B0C54BA2";
paths = (
{
closed = 1;
nodes = (
"451 -12 OFFCURVE",
"524 34 OFFCURVE",
"562 114 CURVE",
"565 114 LINE",
"565 0 LINE",
"586 0 LINE",
"586 332 LINE",
"388 332 LINE",
"388 312 LINE",
"564 312 LINE",
"564 206 LINE SMOOTH",
"564 74 OFFCURVE",
"460 8 OFFCURVE",
"340 8 CURVE SMOOTH",
"187 8 OFFCURVE",
"94 117 OFFCURVE",
"94 328 CURVE SMOOTH",
"94 370 LINE SMOOTH",
"94 581 OFFCURVE",
"187 690 OFFCURVE",
"340 690 CURVE SMOOTH",
"437 690 OFFCURVE",
"514 641 OFFCURVE",
"550 558 CURVE",
"569 567 LINE",
"531 653 OFFCURVE",
"448 710 OFFCURVE",
"340 710 CURVE SMOOTH",
"167 710 OFFCURVE",
"70 589 OFFCURVE",
"70 349 CURVE SMOOTH",
"70 109 OFFCURVE",
"167 -12 OFFCURVE",
"340 -12 CURVE SMOOTH"
);
}
);
width = 666;
}
);
leftKerningGroup = uc_o;
rightKerningGroup = uc_g;
unicode = 0047;
},
{
glyphname = Gbreve;
lastChange = "2019-12-12 08:25:41 +0000";
layers = (
{
anchors = (
{
name = bottom;
position = "{348, 0}";
}
);
components = (
{
name = G;
},
{
name = breve.case;
transform = "{1, 0, 0, 1, 55, 0}";
}
);
layerId = "E49AE6DE-96A1-45B5-978D-9231980F4AB5";
width = 695;
},
{
anchors = (
{
name = bottom;
position = "{348, 0}";
}
);
background = {
paths = (
{
closed = 1;
nodes = (
"441 -12 OFFCURVE",
"505 41 OFFCURVE",
"515 111 CURVE",
"520 111 LINE",
"520 0 LINE",
"648 0 LINE",
"648 389 LINE",
"373 389 LINE",
"373 262 LINE",
"503 262 LINE",
"503 227 LINE SMOOTH",
"503 159 OFFCURVE",
"442 123 OFFCURVE",
"366 123 CURVE SMOOTH",
"272 123 OFFCURVE",
"211 177 OFFCURVE",
"211 293 CURVE SMOOTH",
"211 405 LINE SMOOTH",
"211 521 OFFCURVE",
"272 575 OFFCURVE",
"366 575 CURVE SMOOTH",
"447 575 OFFCURVE",
"490 531 OFFCURVE",
"511 477 CURVE",
"635 548 LINE",
"583 655 OFFCURVE",
"490 710 OFFCURVE",
"366 710 CURVE SMOOTH",
"177 710 OFFCURVE",
"50 581 OFFCURVE",
"50 346 CURVE SMOOTH",
"50 112 OFFCURVE",
"176 -12 OFFCURVE",
"336 -12 CURVE SMOOTH"
);
},
{
closed = 1;
nodes = (
"471 740 OFFCURVE",
"524 838 OFFCURVE",
"548 910 CURVE",
"468 952 LINE",
"449 920 LINE SMOOTH",
"420 871 OFFCURVE",
"395 843 OFFCURVE",
"358 843 CURVE SMOOTH",
"321 843 OFFCURVE",
"297 871 OFFCURVE",
"268 920 CURVE SMOOTH",
"249 952 LINE",
"168 910 LINE",
"192 838 OFFCURVE",
"240 740 OFFCURVE",
"358 740 CURVE SMOOTH"
);
}
);
};
components = (
{
name = G;
},
{
name = breve.case;
transform = "{1, 0, 0, 1, 58, 0}";
}
);
layerId = "5E87F462-D40B-43EC-958D-42003ED2F346";
width = 719;
},
{
anchors = (
{
name = bottom;
position = "{348, 0}";
}
);
background = {
paths = (
{
closed = 1;
nodes = (
"451 -12 OFFCURVE",
"524 34 OFFCURVE",
"562 114 CURVE",
"565 114 LINE",
"565 0 LINE",
"586 0 LINE",
"586 332 LINE",
"388 332 LINE",
"388 312 LINE",
"564 312 LINE",
"564 206 LINE SMOOTH",
"564 74 OFFCURVE",
"460 8 OFFCURVE",
"340 8 CURVE SMOOTH",
"187 8 OFFCURVE",
"94 117 OFFCURVE",
"94 328 CURVE SMOOTH",
"94 370 LINE SMOOTH",
"94 581 OFFCURVE",
"187 690 OFFCURVE",
"340 690 CURVE SMOOTH",
"437 690 OFFCURVE",
"514 641 OFFCURVE",
"550 558 CURVE",
"569 567 LINE",
"531 653 OFFCURVE",
"448 710 OFFCURVE",
"340 710 CURVE SMOOTH",
"167 710 OFFCURVE",
"70 589 OFFCURVE",
"70 349 CURVE SMOOTH",
"70 109 OFFCURVE",
"167 -12 OFFCURVE",
"340 -12 CURVE SMOOTH"
);
},
{
closed = 1;
nodes = (
"408 786 OFFCURVE",
"435 830 OFFCURVE",
"472 903 CURVE",
"456 910 LINE",
"441 883 LINE SMOOTH",
"406 820 OFFCURVE",
"384 805 OFFCURVE",
"340 805 CURVE SMOOTH",
"296 805 OFFCURVE",
"274 820 OFFCURVE",
"239 883 CURVE SMOOTH",
"224 910 LINE",
"208 903 LINE",
"245 830 OFFCURVE",
"272 786 OFFCURVE",
"340 786 CURVE SMOOTH"
);
}
);
};
components = (
{
name = G;
},
{
name = breve.case;
transform = "{1, 0, 0, 1, 40, 0}";
}
);
layerId = "D69F2138-E7D7-470A-972F-2AC6B0C54BA2";
width = 666;
}
);
leftKerningGroup = uc_o;
rightKerningGroup = uc_g;
unicode = 011E;
userData = {
com.typemytype.robofont.mark = (
0.6,
0.986,
1,
1
);
};
},
{
glyphname = Gcircumflex;
lastChange = "2019-12-12 08:25:55 +0000";
layers = (
{
anchors = (
{
name = bottom;
position = "{348, 0}";
}
);
components = (
{
name = G;
},
{
name = circumflex.case;
transform = "{1, 0, 0, 1, 55, 0}";
}
);
layerId = "E49AE6DE-96A1-45B5-978D-9231980F4AB5";
width = 695;
},
{
anchors = (
{
name = bottom;
position = "{348, 0}";
}
);
background = {
paths = (
{
closed = 1;
nodes = (
"441 -12 OFFCURVE",
"505 41 OFFCURVE",
"515 111 CURVE",
"520 111 LINE",
"520 0 LINE",
"648 0 LINE",
"648 389 LINE",
"373 389 LINE",
"373 262 LINE",
"503 262 LINE",
"503 227 LINE SMOOTH",
"503 159 OFFCURVE",
"442 123 OFFCURVE",
"366 123 CURVE SMOOTH",
"272 123 OFFCURVE",
"211 177 OFFCURVE",
"211 293 CURVE SMOOTH",
"211 405 LINE SMOOTH",
"211 521 OFFCURVE",
"272 575 OFFCURVE",
"366 575 CURVE SMOOTH",
"447 575 OFFCURVE",
"490 531 OFFCURVE",
"511 477 CURVE",
"635 548 LINE",
"583 655 OFFCURVE",
"490 710 OFFCURVE",
"366 710 CURVE SMOOTH",
"177 710 OFFCURVE",
"50 581 OFFCURVE",
"50 346 CURVE SMOOTH",
"50 112 OFFCURVE",
"176 -12 OFFCURVE",
"336 -12 CURVE SMOOTH"
);
},
{
closed = 1;
nodes = (
"358 854 LINE",
"479 739 LINE",
"552 797 LINE",
"420 956 LINE",
"296 956 LINE",
"164 797 LINE",
"237 739 LINE"
);
}
);
};
components = (
{
name = G;
},
{
name = circumflex.case;
transform = "{1, 0, 0, 1, 58, 0}";
}
);
layerId = "5E87F462-D40B-43EC-958D-42003ED2F346";
width = 719;
},
{
anchors = (
{
name = bottom;
position = "{348, 0}";
}
);
background = {
paths = (
{
closed = 1;
nodes = (
"451 -12 OFFCURVE",
"524 34 OFFCURVE",
"562 114 CURVE",
"565 114 LINE",
"565 0 LINE",
"586 0 LINE",
"586 332 LINE",
"388 332 LINE",
"388 312 LINE",
"564 312 LINE",
"564 206 LINE SMOOTH",
"564 74 OFFCURVE",
"460 8 OFFCURVE",
"340 8 CURVE SMOOTH",
"187 8 OFFCURVE",
"94 117 OFFCURVE",
"94 328 CURVE SMOOTH",
"94 370 LINE SMOOTH",
"94 581 OFFCURVE",
"187 690 OFFCURVE",
"340 690 CURVE SMOOTH",
"437 690 OFFCURVE",
"514 641 OFFCURVE",
"550 558 CURVE",
"569 567 LINE",
"531 653 OFFCURVE",
"448 710 OFFCURVE",
"340 710 CURVE SMOOTH",
"167 710 OFFCURVE",
"70 589 OFFCURVE",
"70 349 CURVE SMOOTH",
"70 109 OFFCURVE",
"167 -12 OFFCURVE",
"340 -12 CURVE SMOOTH"
);
},
{
closed = 1;
nodes = (
"340 906 LINE",
"466 779 LINE",
"480 790 LINE",
"352 923 LINE",
"328 923 LINE",
"200 790 LINE",
"214 779 LINE"
);
}
);
};
components = (
{
name = G;
},
{
name = circumflex.case;
transform = "{1, 0, 0, 1, 40, 0}";
}
);
layerId = "D69F2138-E7D7-470A-972F-2AC6B0C54BA2";
width = 666;
}
);
leftKerningGroup = uc_o;
rightKerningGroup = uc_g;
unicode = 011C;
userData = {
com.typemytype.robofont.mark = (
0.6,
0.986,
1,
1
);
};
},
{
glyphname = Gcommaaccent;
lastChange = "2019-12-12 08:26:10 +0000";
layers = (
{
anchors = (
{
name = top;
position = "{355, 698}";
}
);
components = (
{
name = G;
},
{
name = commaaccentcomb;
transform = "{1, 0, 0, 1, 348, 0}";
}
);
layerId = "E49AE6DE-96A1-45B5-978D-9231980F4AB5";
width = 695;
},
{
anchors = (
{
name = top;
position = "{355, 698}";
}
);
background = {
paths = (
{
closed = 1;
nodes = (
"441 -12 OFFCURVE",
"505 41 OFFCURVE",
"515 111 CURVE",
"520 111 LINE",
"520 0 LINE",
"648 0 LINE",
"648 389 LINE",
"373 389 LINE",
"373 262 LINE",
"503 262 LINE",
"503 227 LINE SMOOTH",
"503 159 OFFCURVE",
"442 123 OFFCURVE",
"366 123 CURVE SMOOTH",
"272 123 OFFCURVE",
"211 177 OFFCURVE",
"211 293 CURVE SMOOTH",
"211 405 LINE SMOOTH",
"211 521 OFFCURVE",
"272 575 OFFCURVE",
"366 575 CURVE SMOOTH",
"447 575 OFFCURVE",
"490 531 OFFCURVE",
"511 477 CURVE",
"635 548 LINE",
"583 655 OFFCURVE",
"490 710 OFFCURVE",
"366 710 CURVE SMOOTH",
"177 710 OFFCURVE",
"50 581 OFFCURVE",
"50 346 CURVE SMOOTH",
"50 112 OFFCURVE",
"176 -12 OFFCURVE",
"336 -12 CURVE SMOOTH"
);
},
{
closed = 1;
nodes = (
"351 -275 LINE",
"389 -242 OFFCURVE",
"418 -179 OFFCURVE",
"418 -118 CURVE SMOOTH",
"418 -104 LINE SMOOTH",
"418 -64 OFFCURVE",
"392 -42 OFFCURVE",
"348 -42 CURVE SMOOTH",
"304 -42 OFFCURVE",
"278 -64 OFFCURVE",
"278 -104 CURVE SMOOTH",
"278 -115 LINE SMOOTH",
"278 -144 OFFCURVE",
"290 -173 OFFCURVE",
"328 -176 CURVE",
"318 -216 OFFCURVE",
"300 -246 OFFCURVE",
"266 -275 CURVE"
);
}
);
};
components = (
{
name = G;
},
{
name = commaaccentcomb;
transform = "{1, 0, 0, 1, 350, 0}";
}
);
layerId = "5E87F462-D40B-43EC-958D-42003ED2F346";
width = 719;
},
{
anchors = (
{
name = top;
position = "{355, 698}";
}
);
background = {
paths = (
{
closed = 1;
nodes = (
"451 -12 OFFCURVE",
"524 34 OFFCURVE",
"562 114 CURVE",
"565 114 LINE",
"565 0 LINE",
"586 0 LINE",
"586 332 LINE",
"388 332 LINE",
"388 312 LINE",
"564 312 LINE",
"564 206 LINE SMOOTH",
"564 74 OFFCURVE",
"460 8 OFFCURVE",
"340 8 CURVE SMOOTH",
"187 8 OFFCURVE",
"94 117 OFFCURVE",
"94 328 CURVE SMOOTH",
"94 370 LINE SMOOTH",
"94 581 OFFCURVE",
"187 690 OFFCURVE",
"340 690 CURVE SMOOTH",
"437 690 OFFCURVE",
"514 641 OFFCURVE",
"550 558 CURVE",
"569 567 LINE",
"531 653 OFFCURVE",
"448 710 OFFCURVE",
"340 710 CURVE SMOOTH",
"167 710 OFFCURVE",
"70 589 OFFCURVE",
"70 349 CURVE SMOOTH",
"70 109 OFFCURVE",
"167 -12 OFFCURVE",
"340 -12 CURVE SMOOTH"
);
},
{
closed = 1;
nodes = (
"318 -212 LINE",
"344 -183 OFFCURVE",
"363 -133 OFFCURVE",
"363 -99 CURVE SMOOTH",
"363 -88 LINE SMOOTH",
"363 -75 OFFCURVE",
"357 -66 OFFCURVE",
"341 -66 CURVE SMOOTH",
"323 -66 OFFCURVE",
"317 -75 OFFCURVE",
"317 -88 CURVE SMOOTH",
"317 -96 LINE SMOOTH",
"317 -107 OFFCURVE",
"323 -116 OFFCURVE",
"345 -116 CURVE",
"342 -138 OFFCURVE",
"329 -180 OFFCURVE",
"300 -212 CURVE"
);
}
);
};
components = (
{
name = G;
},
{
name = commaaccentcomb;
transform = "{1, 0, 0, 1, 340, 0}";
}
);
layerId = "D69F2138-E7D7-470A-972F-2AC6B0C54BA2";
width = 666;
}
);
leftKerningGroup = uc_o;
rightKerningGroup = uc_g;
unicode = 0122;
userData = {
com.typemytype.robofont.mark = (
0.6,
0.986,
1,
1
);
};
},
{
glyphname = Gdotaccent;
lastChange = "2019-12-12 08:26:25 +0000";
layers = (
{
anchors = (
{
name = bottom;
position = "{348, 0}";
}
);
components = (
{
name = G;
},
{
name = dotaccent.case;
transform = "{1, 0, 0, 1, 55, 0}";
}
);
layerId = "E49AE6DE-96A1-45B5-978D-9231980F4AB5";
width = 695;
},
{
anchors = (
{
name = bottom;
position = "{348, 0}";
}
);
background = {
paths = (
{
closed = 1;
nodes = (
"441 -12 OFFCURVE",
"505 41 OFFCURVE",
"515 111 CURVE",
"520 111 LINE",
"520 0 LINE",
"648 0 LINE",
"648 389 LINE",
"373 389 LINE",
"373 262 LINE",
"503 262 LINE",
"503 227 LINE SMOOTH",
"503 159 OFFCURVE",
"442 123 OFFCURVE",
"366 123 CURVE SMOOTH",
"272 123 OFFCURVE",
"211 177 OFFCURVE",
"211 293 CURVE SMOOTH",
"211 405 LINE SMOOTH",
"211 521 OFFCURVE",
"272 575 OFFCURVE",
"366 575 CURVE SMOOTH",
"447 575 OFFCURVE",
"490 531 OFFCURVE",
"511 477 CURVE",
"635 548 LINE",
"583 655 OFFCURVE",
"490 710 OFFCURVE",
"366 710 CURVE SMOOTH",
"177 710 OFFCURVE",
"50 581 OFFCURVE",
"50 346 CURVE SMOOTH",
"50 112 OFFCURVE",
"176 -12 OFFCURVE",
"336 -12 CURVE SMOOTH"
);
},
{
closed = 1;
nodes = (
"424 752 OFFCURVE",
"447 783 OFFCURVE",
"447 822 CURVE SMOOTH",
"447 851 LINE SMOOTH",
"447 890 OFFCURVE",
"424 921 OFFCURVE",
"358 921 CURVE SMOOTH",
"292 921 OFFCURVE",
"269 890 OFFCURVE",
"269 851 CURVE SMOOTH",
"269 822 LINE SMOOTH",
"269 783 OFFCURVE",
"292 752 OFFCURVE",
"358 752 CURVE SMOOTH"
);
}
);
};
components = (
{
name = G;
},
{
name = dotaccent.case;
transform = "{1, 0, 0, 1, 58, 0}";
}
);
layerId = "5E87F462-D40B-43EC-958D-42003ED2F346";
width = 719;
},
{
anchors = (
{
name = bottom;
position = "{348, 0}";
}
);
background = {
paths = (
{
closed = 1;
nodes = (
"451 -12 OFFCURVE",
"524 34 OFFCURVE",
"562 114 CURVE",
"565 114 LINE",
"565 0 LINE",
"586 0 LINE",
"586 332 LINE",
"388 332 LINE",
"388 312 LINE",
"564 312 LINE",
"564 206 LINE SMOOTH",
"564 74 OFFCURVE",
"460 8 OFFCURVE",
"340 8 CURVE SMOOTH",
"187 8 OFFCURVE",
"94 117 OFFCURVE",
"94 328 CURVE SMOOTH",
"94 370 LINE SMOOTH",
"94 581 OFFCURVE",
"187 690 OFFCURVE",
"340 690 CURVE SMOOTH",
"437 690 OFFCURVE",
"514 641 OFFCURVE",
"550 558 CURVE",
"569 567 LINE",
"531 653 OFFCURVE",
"448 710 OFFCURVE",
"340 710 CURVE SMOOTH",
"167 710 OFFCURVE",
"70 589 OFFCURVE",
"70 349 CURVE SMOOTH",
"70 109 OFFCURVE",
"167 -12 OFFCURVE",
"340 -12 CURVE SMOOTH"
);
},
{
closed = 1;
nodes = (
"357 822 OFFCURVE",
"363 832 OFFCURVE",
"363 843 CURVE SMOOTH",
"363 850 LINE SMOOTH",
"363 861 OFFCURVE",
"357 871 OFFCURVE",
"340 871 CURVE SMOOTH",
"323 871 OFFCURVE",
"317 861 OFFCURVE",
"317 850 CURVE SMOOTH",
"317 843 LINE SMOOTH",
"317 832 OFFCURVE",
"323 822 OFFCURVE",
"340 822 CURVE SMOOTH"
);
}
);
};
components = (
{
name = G;
},
{
name = dotaccent.case;
transform = "{1, 0, 0, 1, 40, 0}";
}
);
layerId = "D69F2138-E7D7-470A-972F-2AC6B0C54BA2";
width = 666;
}
);
leftKerningGroup = uc_o;
rightKerningGroup = uc_g;
unicode = 0120;
userData = {
com.typemytype.robofont.mark = (
0.6,
0.986,
1,
1
);
};
},
{
glyphname = H;
lastChange = "2019-12-09 08:04:49 +0000";
layers = (
{
anchors = (
{
name = bottom;
position = "{354, 0}";
},
{
name = center;
position = "{354, 349}";
},
{
name = top;
position = "{354, 698}";
},
{
name = topleft;
position = "{20, 698}";
}
);
layerId = "E49AE6DE-96A1-45B5-978D-9231980F4AB5";
paths = (
{
closed = 1;
nodes = (
"177 0 LINE",
"177 316 LINE",
"530 316 LINE",
"530 0 LINE {name = hr00;}",
"614 0 LINE",
"614 698 LINE",
"530 698 LINE",
"530 390 LINE",
"177 390 LINE",
"177 698 LINE",
"93 698 LINE",
"93 0 LINE"
);
}
);
width = 707;
},
{
anchors = (
{
name = bottom;
position = "{362, 0}";
},
{
name = center;
position = "{362, 349}";
},
{
name = top;
position = "{362, 698}";
},
{
name = topleft;
position = "{20, 698}";
}
);
layerId = "5E87F462-D40B-43EC-958D-42003ED2F346";
paths = (
{
closed = 1;
nodes = (
"229 0 LINE",
"229 286 LINE",
"495 286 LINE",
"495 0 LINE",
"647 0 LINE",
"647 698 LINE",
"495 698 LINE",
"495 420 LINE",
"229 420 LINE",
"229 698 LINE",
"77 698 LINE",
"77 0 LINE"
);
}
);
width = 724;
},
{
anchors = (
{
name = bottom;
position = "{346, 0}";
},
{
name = center;
position = "{346, 349}";
},
{
name = top;
position = "{346, 698}";
},
{
name = topleft;
position = "{20, 698}";
}
);
layerId = "D69F2138-E7D7-470A-972F-2AC6B0C54BA2";
paths = (
{
closed = 1;
nodes = (
"130 0 LINE",
"130 344 LINE",
"562 344 LINE",
"562 0 LINE",
"584 0 LINE",
"584 698 LINE",
"562 698 LINE",
"562 364 LINE",
"130 364 LINE",
"130 698 LINE",
"108 698 LINE",
"108 0 LINE"
);
}
);
width = 692;
}
);
unicode = 0048;
},
{
glyphname = Hbar;
lastChange = "2019-12-09 08:04:08 +0000";
layers = (
{
layerId = "E49AE6DE-96A1-45B5-978D-9231980F4AB5";
paths = (
{
closed = 1;
nodes = (
"180 0 LINE",
"180 316 LINE",
"533 316 LINE",
"533 0 LINE {name = hr00;}",
"617 0 LINE",
"617 518 LINE",
"686 518 LINE",
"686 582 LINE",
"617 582 LINE",
"617 698 LINE",
"533 698 LINE",
"533 582 LINE",
"180 582 LINE",
"180 698 LINE",
"96 698 LINE",
"96 582 LINE",
"27 582 LINE",
"27 518 LINE",
"96 518 LINE",
"96 0 LINE"
);
},
{
closed = 1;
nodes = (
"180 518 LINE",
"533 518 LINE",
"533 390 LINE",
"180 390 LINE"
);
}
);
width = 713;
},
{
layerId = "5E87F462-D40B-43EC-958D-42003ED2F346";
paths = (
{
closed = 1;
nodes = (
"234 0 LINE",
"234 286 LINE",
"500 286 LINE",
"500 0 LINE",
"652 0 LINE",
"652 506 LINE",
"726 506 LINE",
"726 620 LINE",
"652 620 LINE",
"652 698 LINE",
"500 698 LINE",
"500 620 LINE",
"234 620 LINE",
"234 698 LINE",
"82 698 LINE",
"82 620 LINE",
"8 620 LINE",
"8 506 LINE",
"82 506 LINE",
"82 0 LINE"
);
},
{
closed = 1;
nodes = (
"234 506 LINE",
"500 506 LINE",
"500 420 LINE",
"234 420 LINE"
);
}
);
width = 734;
},
{
layerId = "D69F2138-E7D7-470A-972F-2AC6B0C54BA2";
paths = (
{
closed = 1;
nodes = (
"133 0 LINE",
"133 344 LINE",
"565 344 LINE",
"565 0 LINE",
"587 0 LINE",
"587 537 LINE",
"670 537 LINE",
"670 556 LINE",
"587 556 LINE",
"587 698 LINE",
"565 698 LINE",
"565 556 LINE",
"133 556 LINE",
"133 698 LINE",
"111 698 LINE",
"111 556 LINE",
"28 556 LINE",
"28 537 LINE",
"111 537 LINE",
"111 0 LINE"
);
},
{
closed = 1;
nodes = (
"133 537 LINE",
"565 537 LINE",
"565 364 LINE",
"133 364 LINE"
);
}
);
width = 698;
}
);
unicode = 0126;
},
{
glyphname = Hcircumflex;
lastChange = "2019-12-12 08:26:42 +0000";
layers = (
{
anchors = (
{
name = bottom;
position = "{354, 0}";
}
);
components = (
{
name = H;
},
{
name = circumflex.case;
transform = "{1, 0, 0, 1, 54, 0}";
}
);
layerId = "E49AE6DE-96A1-45B5-978D-9231980F4AB5";
width = 707;
},
{
anchors = (
{
name = bottom;
position = "{354, 0}";
}
);
background = {
paths = (
{
closed = 1;
nodes = (
"229 0 LINE",
"229 286 LINE",
"495 286 LINE",
"495 0 LINE",
"647 0 LINE",
"647 698 LINE",
"495 698 LINE",
"495 420 LINE",
"229 420 LINE",
"229 698 LINE",
"77 698 LINE",
"77 0 LINE"
);
},
{
closed = 1;
nodes = (
"362 854 LINE",
"483 739 LINE",
"556 797 LINE",
"424 956 LINE",
"300 956 LINE",
"168 797 LINE",
"241 739 LINE"
);
}
);
};
components = (
{
name = H;
},
{
name = circumflex.case;
transform = "{1, 0, 0, 1, 62, 0}";
}
);
layerId = "5E87F462-D40B-43EC-958D-42003ED2F346";
width = 724;
},
{
anchors = (
{
name = bottom;
position = "{354, 0}";
}
);
background = {
paths = (
{
closed = 1;
nodes = (
"130 0 LINE",
"130 344 LINE",
"562 344 LINE",
"562 0 LINE",
"584 0 LINE",
"584 698 LINE",
"562 698 LINE",
"562 364 LINE",
"130 364 LINE",
"130 698 LINE",
"108 698 LINE",
"108 0 LINE"
);
},
{
closed = 1;
nodes = (
"346 906 LINE",
"472 779 LINE",
"486 790 LINE",
"358 923 LINE",
"334 923 LINE",
"206 790 LINE",
"220 779 LINE"
);
}
);
};
components = (
{
name = H;
},
{
name = circumflex.case;
transform = "{1, 0, 0, 1, 46, 0}";
}
);
layerId = "D69F2138-E7D7-470A-972F-2AC6B0C54BA2";
width = 692;
}
);
unicode = 0124;
userData = {
com.typemytype.robofont.mark = (
0.6,
0.986,
1,
1
);
};
},
{
glyphname = I;
lastChange = "2019-12-09 12:20:36 +0000";
layers = (
{
anchors = (
{
name = bottom;
position = "{200, 0}";
},
{
name = bottomright;
position = "{340, 0}";
},
{
name = top;
position = "{200, 698}";
}
);
layerId = "E49AE6DE-96A1-45B5-978D-9231980F4AB5";
paths = (
{
closed = 1;
nodes = (
"340 0 LINE {name = hr00;}",
"340 70 LINE",
"242 70 LINE",
"242 628 LINE",
"340 628 LINE",
"340 698 LINE",
"60 698 LINE",
"60 628 LINE",
"158 628 LINE",
"158 70 LINE",
"60 70 LINE",
"60 0 LINE"
);
}
);
width = 400;
},
{
anchors = (
{
name = bottom;
position = "{216, 0}";
},
{
name = bottomright;
position = "{382, 0}";
},
{
name = top;
position = "{216, 698}";
}
);
layerId = "5E87F462-D40B-43EC-958D-42003ED2F346";
paths = (
{
closed = 1;
nodes = (
"382 0 LINE",
"382 121 LINE",
"292 121 LINE",
"292 577 LINE",
"382 577 LINE",
"382 698 LINE",
"50 698 LINE",
"50 577 LINE",
"140 577 LINE",
"140 121 LINE",
"50 121 LINE",
"50 0 LINE"
);
}
);
width = 432;
},
{
anchors = (
{
name = bottom;
position = "{186, 0}";
},
{
name = bottomright;
position = "{304, 0}";
},
{
name = top;
position = "{186, 698}";
}
);
layerId = "D69F2138-E7D7-470A-972F-2AC6B0C54BA2";
paths = (
{
closed = 1;
nodes = (
"304 0 LINE",
"304 19 LINE",
"197 19 LINE",
"197 679 LINE",
"304 679 LINE",
"304 698 LINE",
"68 698 LINE",
"68 679 LINE",
"175 679 LINE",
"175 19 LINE",
"68 19 LINE",
"68 0 LINE"
);
}
);
width = 372;
}
);
leftKerningGroup = uc_i;
rightKerningGroup = uc_i;
unicode = 0049;
},
{
glyphname = IJ;
lastChange = "2019-12-09 08:04:08 +0000";
layers = (
{
layerId = "E49AE6DE-96A1-45B5-978D-9231980F4AB5";
paths = (
{
closed = 1;
nodes = (
"468 -12 OFFCURVE",
"557 78 OFFCURVE",
"557 225 CURVE SMOOTH",
"557 698 LINE",
"321 698 LINE",
"321 623 LINE",
"473 623 LINE",
"473 208 LINE SMOOTH",
"473 109 OFFCURVE",
"416 63 OFFCURVE",
"323 63 CURVE SMOOTH",
"229 63 OFFCURVE",
"184 110 OFFCURVE",
"169 172 CURVE",
"93 154 LINE",
"113 59 OFFCURVE",
"187 -12 OFFCURVE",
"320 -12 CURVE SMOOTH {name = hr00;}"
);
},
{
closed = 1;
nodes = (
"172 290 LINE",
"172 698 LINE",
"88 698 LINE",
"88 290 LINE"
);
}
);
width = 645;
},
{
layerId = "5E87F462-D40B-43EC-958D-42003ED2F346";
paths = (
{
closed = 1;
nodes = (
"482 -11 OFFCURVE",
"583 74 OFFCURVE",
"583 210 CURVE SMOOTH",
"583 698 LINE",
"343 698 LINE",
"343 576 LINE",
"431 576 LINE",
"431 219 LINE SMOOTH",
"431 149 OFFCURVE",
"381 122 OFFCURVE",
"329 122 CURVE SMOOTH",
"272 122 OFFCURVE",
"233 154 OFFCURVE",
"222 213 CURVE",
"80 185 LINE",
"100 68 OFFCURVE",
"182 -11 OFFCURVE",
"330 -11 CURVE SMOOTH"
);
},
{
closed = 1;
nodes = (
"225 309 LINE",
"225 698 LINE",
"73 698 LINE",
"73 309 LINE"
);
}
);
width = 656;
},
{
layerId = "D69F2138-E7D7-470A-972F-2AC6B0C54BA2";
paths = (
{
closed = 1;
nodes = (
"453 -12 OFFCURVE",
"531 64 OFFCURVE",
"531 202 CURVE SMOOTH",
"531 698 LINE",
"313 698 LINE",
"313 678 LINE",
"509 678 LINE",
"509 202 LINE SMOOTH",
"509 77 OFFCURVE",
"438 8 OFFCURVE",
"310 8 CURVE SMOOTH",
"201 8 OFFCURVE",
"146 48 OFFCURVE",
"119 139 CURVE",
"100 133 LINE",
"124 33 OFFCURVE",
"188 -12 OFFCURVE",
"310 -12 CURVE SMOOTH"
);
},
{
closed = 1;
nodes = (
"122 290 LINE",
"122 698 LINE",
"100 698 LINE",
"100 290 LINE"
);
}
);
width = 631;
}
);
leftKerningGroup = uc_u;
rightKerningGroup = uc_u;
unicode = 0132;
},
{
glyphname = Iacute;
lastChange = "2019-12-12 08:27:00 +0000";
layers = (
{
anchors = (
{
name = bottom;
position = "{200, 0}";
},
{
name = bottomright;
position = "{340, 0}";
}
);
components = (
{
name = I;
},
{
name = acute.case;
transform = "{1, 0, 0, 1, -100, 0}";
}
);
layerId = "E49AE6DE-96A1-45B5-978D-9231980F4AB5";
width = 400;
},
{
anchors = (
{
name = bottom;
position = "{200, 0}";
},
{
name = bottomright;
position = "{382, 0}";
}
);
background = {
paths = (
{
closed = 1;
nodes = (
"382 0 LINE",
"382 121 LINE",
"292 121 LINE",
"292 577 LINE",
"382 577 LINE",
"382 698 LINE",
"50 698 LINE",
"50 577 LINE",
"140 577 LINE",
"140 121 LINE",
"50 121 LINE",
"50 0 LINE"
);
},
{
closed = 1;
nodes = (
"366 916 LINE",
"243 977 LINE",
"144 783 LINE",
"232 740 LINE"
);
}
);
};
components = (
{
name = I;
},
{
name = acute.case;
transform = "{1, 0, 0, 1, -85, 0}";
}
);
layerId = "5E87F462-D40B-43EC-958D-42003ED2F346";
width = 432;
},
{
anchors = (
{
name = bottom;
position = "{200, 0}";
},
{
name = bottomright;
position = "{304, 0}";
}
);
background = {
paths = (
{
closed = 1;
nodes = (
"304 0 LINE",
"304 19 LINE",
"197 19 LINE",
"197 679 LINE",
"304 679 LINE",
"304 698 LINE",
"68 698 LINE",
"68 679 LINE",
"175 679 LINE",
"175 19 LINE",
"68 19 LINE",
"68 0 LINE"
);
},
{
closed = 1;
nodes = (
"282 919 LINE",
"263 931 LINE",
"152 777 LINE",
"167 767 LINE"
);
}
);
};
components = (
{
name = I;
},
{
name = acute.case;
transform = "{1, 0, 0, 1, -114, 0}";
}
);
layerId = "D69F2138-E7D7-470A-972F-2AC6B0C54BA2";
width = 372;
}
);
leftKerningGroup = uc_i;
rightKerningGroup = uc_i;
unicode = 00CD;
userData = {
com.typemytype.robofont.mark = (
0.6,
0.986,
1,
1
);
};
},
{
glyphname = Ibreve;
lastChange = "2019-12-12 08:27:24 +0000";
layers = (
{
anchors = (
{
name = bottom;
position = "{200, 0}";
},
{
name = bottomright;
position = "{340, 0}";
}
);
components = (
{
name = I;
},
{
name = breve.case;
transform = "{1, 0, 0, 1, -100, 0}";
}
);
layerId = "E49AE6DE-96A1-45B5-978D-9231980F4AB5";
width = 400;
},
{
anchors = (
{
name = bottom;
position = "{200, 0}";
},
{
name = bottomright;
position = "{382, 0}";
}
);
background = {
paths = (
{
closed = 1;
nodes = (
"382 0 LINE",
"382 121 LINE",
"292 121 LINE",
"292 577 LINE",
"382 577 LINE",
"382 698 LINE",
"50 698 LINE",
"50 577 LINE",
"140 577 LINE",
"140 121 LINE",
"50 121 LINE",
"50 0 LINE"
);
},
{
closed = 1;
nodes = (
"329 740 OFFCURVE",
"382 838 OFFCURVE",
"406 910 CURVE",
"326 952 LINE",
"307 920 LINE SMOOTH",
"278 871 OFFCURVE",
"253 843 OFFCURVE",
"216 843 CURVE SMOOTH",
"179 843 OFFCURVE",
"155 871 OFFCURVE",
"126 920 CURVE SMOOTH",
"107 952 LINE",
"26 910 LINE",
"50 838 OFFCURVE",
"98 740 OFFCURVE",
"216 740 CURVE SMOOTH"
);
}
);
};
components = (
{
name = I;
},
{
name = breve.case;
transform = "{1, 0, 0, 1, -84, 0}";
}
);
layerId = "5E87F462-D40B-43EC-958D-42003ED2F346";
width = 432;
},
{
anchors = (
{
name = bottom;
position = "{200, 0}";
},
{
name = bottomright;
position = "{304, 0}";
}
);
background = {
paths = (
{
closed = 1;
nodes = (
"304 0 LINE",
"304 19 LINE",
"197 19 LINE",
"197 679 LINE",
"304 679 LINE",
"304 698 LINE",
"68 698 LINE",
"68 679 LINE",
"175 679 LINE",
"175 19 LINE",
"68 19 LINE",
"68 0 LINE"
);
},
{
closed = 1;
nodes = (
"253 786 OFFCURVE",
"280 830 OFFCURVE",
"317 903 CURVE",
"301 910 LINE",
"286 883 LINE SMOOTH",
"251 820 OFFCURVE",
"229 805 OFFCURVE",
"185 805 CURVE SMOOTH",
"141 805 OFFCURVE",
"119 820 OFFCURVE",
"84 883 CURVE SMOOTH",
"69 910 LINE",
"53 903 LINE",
"90 830 OFFCURVE",
"117 786 OFFCURVE",
"185 786 CURVE SMOOTH"
);
}
);
};
components = (
{
name = I;
},
{
name = breve.case;
transform = "{1, 0, 0, 1, -114, 0}";
}
);
layerId = "D69F2138-E7D7-470A-972F-2AC6B0C54BA2";
width = 372;
}
);
leftKerningGroup = uc_i;
rightKerningGroup = uc_i;
unicode = 012C;
userData = {
com.typemytype.robofont.mark = (
0.6,
0.986,
1,
1
);
};
},
{
glyphname = Icircumflex;
lastChange = "2019-12-12 08:27:36 +0000";
layers = (
{
anchors = (
{
name = bottom;
position = "{200, 0}";
},
{
name = bottomright;
position = "{340, 0}";
}
);
components = (
{
name = I;
},
{
name = circumflex.case;
transform = "{1, 0, 0, 1, -100, 0}";
}
);
layerId = "E49AE6DE-96A1-45B5-978D-9231980F4AB5";
width = 400;
},
{
anchors = (
{
name = bottom;
position = "{200, 0}";
},
{
name = bottomright;
position = "{382, 0}";
}
);
background = {
paths = (
{
closed = 1;
nodes = (
"382 0 LINE",
"382 121 LINE",
"292 121 LINE",
"292 577 LINE",
"382 577 LINE",
"382 698 LINE",
"50 698 LINE",
"50 577 LINE",
"140 577 LINE",
"140 121 LINE",
"50 121 LINE",
"50 0 LINE"
);
},
{
closed = 1;
nodes = (
"216 854 LINE",
"337 739 LINE",
"410 797 LINE",
"278 956 LINE",
"154 956 LINE",
"22 797 LINE",
"95 739 LINE"
);
}
);
};
components = (
{
name = I;
},
{
name = circumflex.case;
transform = "{1, 0, 0, 1, -84, 0}";
}
);
layerId = "5E87F462-D40B-43EC-958D-42003ED2F346";
width = 432;
},
{
anchors = (
{
name = bottom;
position = "{200, 0}";
},
{
name = bottomright;
position = "{304, 0}";
}
);
background = {
paths = (
{
closed = 1;
nodes = (
"304 0 LINE",
"304 19 LINE",
"197 19 LINE",
"197 679 LINE",
"304 679 LINE",
"304 698 LINE",
"68 698 LINE",
"68 679 LINE",
"175 679 LINE",
"175 19 LINE",
"68 19 LINE",
"68 0 LINE"
);
},
{
closed = 1;
nodes = (
"185 906 LINE",
"311 779 LINE",
"325 790 LINE",
"197 923 LINE",
"173 923 LINE",
"45 790 LINE",
"59 779 LINE"
);
}
);
};
components = (
{
name = I;
},
{
name = circumflex.case;
transform = "{1, 0, 0, 1, -114, 0}";
}
);
layerId = "D69F2138-E7D7-470A-972F-2AC6B0C54BA2";
width = 372;
}
);
leftKerningGroup = uc_i;
rightKerningGroup = uc_i;
unicode = 00CE;
userData = {
com.typemytype.robofont.mark = (
0.6,
0.986,
1,
1
);
};
},
{
glyphname = Idieresis;
lastChange = "2019-12-12 08:27:47 +0000";
layers = (
{
anchors = (
{
name = bottom;
position = "{200, 0}";
},
{
name = bottomright;
position = "{340, 0}";
}
);
components = (
{
name = I;
},
{
name = dieresis.case;
transform = "{1, 0, 0, 1, -100, 0}";
}
);
layerId = "E49AE6DE-96A1-45B5-978D-9231980F4AB5";
width = 400;
},
{
anchors = (
{
name = bottom;
position = "{200, 0}";
},
{
name = bottomright;
position = "{382, 0}";
}
);
background = {
paths = (
{
closed = 1;
nodes = (
"382 0 LINE",
"382 121 LINE",
"292 121 LINE",
"292 577 LINE",
"382 577 LINE",
"382 698 LINE",
"50 698 LINE",
"50 577 LINE",
"140 577 LINE",
"140 121 LINE",
"50 121 LINE",
"50 0 LINE"
);
},
{
closed = 1;
nodes = (
"166 761 OFFCURVE",
"186 789 OFFCURVE",
"186 824 CURVE SMOOTH",
"186 849 LINE SMOOTH",
"186 884 OFFCURVE",
"166 912 OFFCURVE",
"106 912 CURVE SMOOTH",
"46 912 OFFCURVE",
"26 884 OFFCURVE",
"26 849 CURVE SMOOTH",
"26 824 LINE SMOOTH",
"26 789 OFFCURVE",
"46 761 OFFCURVE",
"106 761 CURVE SMOOTH"
);
},
{
closed = 1;
nodes = (
"386 761 OFFCURVE",
"406 789 OFFCURVE",
"406 824 CURVE SMOOTH",
"406 849 LINE SMOOTH",
"406 884 OFFCURVE",
"386 912 OFFCURVE",
"326 912 CURVE SMOOTH",
"266 912 OFFCURVE",
"246 884 OFFCURVE",
"246 849 CURVE SMOOTH",
"246 824 LINE SMOOTH",
"246 789 OFFCURVE",
"266 761 OFFCURVE",
"326 761 CURVE SMOOTH"
);
}
);
};
components = (
{
name = I;
},
{
name = dieresis.case;
transform = "{1, 0, 0, 1, -84, 0}";
}
);
layerId = "5E87F462-D40B-43EC-958D-42003ED2F346";
width = 432;
},
{
anchors = (
{
name = bottom;
position = "{200, 0}";
},
{
name = bottomright;
position = "{304, 0}";
}
);
background = {
paths = (
{
closed = 1;
nodes = (
"304 0 LINE",
"304 19 LINE",
"197 19 LINE",
"197 679 LINE",
"304 679 LINE",
"304 698 LINE",
"68 698 LINE",
"68 679 LINE",
"175 679 LINE",
"175 19 LINE",
"68 19 LINE",
"68 0 LINE"
);
},
{
closed = 1;
nodes = (
"111 819 OFFCURVE",
"117 829 OFFCURVE",
"117 840 CURVE SMOOTH",
"117 847 LINE SMOOTH",
"117 858 OFFCURVE",
"111 868 OFFCURVE",
"94 868 CURVE SMOOTH",
"77 868 OFFCURVE",
"71 858 OFFCURVE",
"71 847 CURVE SMOOTH",
"71 840 LINE SMOOTH",
"71 829 OFFCURVE",
"77 819 OFFCURVE",
"94 819 CURVE SMOOTH"
);
},
{
closed = 1;
nodes = (
"293 819 OFFCURVE",
"299 829 OFFCURVE",
"299 840 CURVE SMOOTH",
"299 847 LINE SMOOTH",
"299 858 OFFCURVE",
"293 868 OFFCURVE",
"276 868 CURVE SMOOTH",
"259 868 OFFCURVE",
"253 858 OFFCURVE",
"253 847 CURVE SMOOTH",
"253 840 LINE SMOOTH",
"253 829 OFFCURVE",
"259 819 OFFCURVE",
"276 819 CURVE SMOOTH"
);
}
);
};
components = (
{
name = I;
},
{
name = dieresis.case;
transform = "{1, 0, 0, 1, -114, 0}";
}
);
layerId = "D69F2138-E7D7-470A-972F-2AC6B0C54BA2";
width = 372;
}
);
leftKerningGroup = uc_i;
rightKerningGroup = uc_i;
unicode = 00CF;
userData = {
com.typemytype.robofont.mark = (
0.6,
0.986,
1,
1
);
};
},
{
glyphname = Idotaccent;
lastChange = "2019-12-12 08:27:58 +0000";
layers = (
{
anchors = (
{
name = bottom;
position = "{200, 0}";
},
{
name = bottomright;
position = "{340, 0}";
}
);
components = (
{
name = I;
},
{
name = dotaccent.case;
transform = "{1, 0, 0, 1, -100, 0}";
}
);
layerId = "E49AE6DE-96A1-45B5-978D-9231980F4AB5";
width = 400;
},
{
anchors = (
{
name = bottom;
position = "{200, 0}";
},
{
name = bottomright;
position = "{382, 0}";
}
);
background = {
paths = (
{
closed = 1;
nodes = (
"382 0 LINE",
"382 121 LINE",
"292 121 LINE",
"292 577 LINE",
"382 577 LINE",
"382 698 LINE",
"50 698 LINE",
"50 577 LINE",
"140 577 LINE",
"140 121 LINE",
"50 121 LINE",
"50 0 LINE"
);
},
{
closed = 1;
nodes = (
"282 752 OFFCURVE",
"305 783 OFFCURVE",
"305 822 CURVE SMOOTH",
"305 851 LINE SMOOTH",
"305 890 OFFCURVE",
"282 921 OFFCURVE",
"216 921 CURVE SMOOTH",
"150 921 OFFCURVE",
"127 890 OFFCURVE",
"127 851 CURVE SMOOTH",
"127 822 LINE SMOOTH",
"127 783 OFFCURVE",
"150 752 OFFCURVE",
"216 752 CURVE SMOOTH"
);
}
);
};
components = (
{
name = I;
},
{
name = dotaccent.case;
transform = "{1, 0, 0, 1, -84, 0}";
}
);
layerId = "5E87F462-D40B-43EC-958D-42003ED2F346";
width = 432;
},
{
anchors = (
{
name = bottom;
position = "{200, 0}";
},
{
name = bottomright;
position = "{304, 0}";
}
);
background = {
paths = (
{
closed = 1;
nodes = (
"304 0 LINE",
"304 19 LINE",
"197 19 LINE",
"197 679 LINE",
"304 679 LINE",
"304 698 LINE",
"68 698 LINE",
"68 679 LINE",
"175 679 LINE",
"175 19 LINE",
"68 19 LINE",
"68 0 LINE"
);
},
{
closed = 1;
nodes = (
"202 822 OFFCURVE",
"208 832 OFFCURVE",
"208 843 CURVE SMOOTH",
"208 850 LINE SMOOTH",
"208 861 OFFCURVE",
"202 871 OFFCURVE",
"185 871 CURVE SMOOTH",
"168 871 OFFCURVE",
"162 861 OFFCURVE",
"162 850 CURVE SMOOTH",
"162 843 LINE SMOOTH",
"162 832 OFFCURVE",
"168 822 OFFCURVE",
"185 822 CURVE SMOOTH"
);
}
);
};
components = (
{
name = I;
},
{
name = dotaccent.case;
transform = "{1, 0, 0, 1, -114, 0}";
}
);
layerId = "D69F2138-E7D7-470A-972F-2AC6B0C54BA2";
width = 372;
}
);
leftKerningGroup = uc_i;
rightKerningGroup = uc_i;
unicode = 0130;
userData = {
com.typemytype.robofont.mark = (
0.6,
0.986,
1,
1
);
};
},
{
glyphname = Idotbelow;
lastChange = "2019-12-12 08:30:49 +0000";
layers = (
{
anchors = (
{
name = bottomright;
position = "{340, 0}";
},
{
name = top;
position = "{200, 698}";
}
);
components = (
{
name = I;
},
{
name = dotbelowcomb;
transform = "{1, 0, 0, 1, 200, 0}";
}
);
layerId = "E49AE6DE-96A1-45B5-978D-9231980F4AB5";
width = 400;
},
{
anchors = (
{
name = bottomright;
position = "{382, 0}";
},
{
name = top;
position = "{200, 698}";
}
);
background = {
paths = (
{
closed = 1;
nodes = (
"382 0 LINE",
"382 121 LINE",
"292 121 LINE",
"292 577 LINE",
"382 577 LINE",
"382 698 LINE",
"50 698 LINE",
"50 577 LINE",
"140 577 LINE",
"140 121 LINE",
"50 121 LINE",
"50 0 LINE"
);
},
{
closed = 1;
nodes = (
"275 -204 OFFCURVE",
"297 -176 OFFCURVE",
"297 -141 CURVE SMOOTH",
"297 -115 LINE SMOOTH",
"297 -80 OFFCURVE",
"275 -52 OFFCURVE",
"216 -52 CURVE SMOOTH",
"157 -52 OFFCURVE",
"135 -80 OFFCURVE",
"135 -115 CURVE SMOOTH",
"135 -141 LINE SMOOTH",
"135 -176 OFFCURVE",
"157 -204 OFFCURVE",
"216 -204 CURVE SMOOTH"
);
}
);
};
components = (
{
name = I;
},
{
name = dotbelowcomb;
transform = "{1, 0, 0, 1, 216, 0}";
}
);
layerId = "5E87F462-D40B-43EC-958D-42003ED2F346";
width = 432;
},
{
anchors = (
{
name = bottomright;
position = "{304, 0}";
},
{
name = top;
position = "{200, 698}";
}
);
background = {
paths = (
{
closed = 1;
nodes = (
"304 0 LINE",
"304 19 LINE",
"197 19 LINE",
"197 679 LINE",
"304 679 LINE",
"304 698 LINE",
"68 698 LINE",
"68 679 LINE",
"175 679 LINE",
"175 19 LINE",
"68 19 LINE",
"68 0 LINE"
);
},
{
closed = 1;
nodes = (
"202 -134 OFFCURVE",
"208 -124 OFFCURVE",
"208 -113 CURVE SMOOTH",
"208 -106 LINE SMOOTH",
"208 -95 OFFCURVE",
"202 -85 OFFCURVE",
"185 -85 CURVE SMOOTH",
"168 -85 OFFCURVE",
"162 -95 OFFCURVE",
"162 -106 CURVE SMOOTH",
"162 -113 LINE SMOOTH",
"162 -124 OFFCURVE",
"168 -134 OFFCURVE",
"185 -134 CURVE SMOOTH"
);
}
);
};
components = (
{
name = I;
},
{
name = dotbelowcomb;
transform = "{1, 0, 0, 1, 186, 0}";
}
);
layerId = "D69F2138-E7D7-470A-972F-2AC6B0C54BA2";
width = 372;
}
);
leftKerningGroup = uc_i;
rightKerningGroup = uc_i;
unicode = 1ECA;
userData = {
com.typemytype.robofont.mark = (
0.6,
0.986,
1,
1
);
};
},
{
glyphname = Igrave;
lastChange = "2019-12-12 08:30:45 +0000";
layers = (
{
anchors = (
{
name = bottom;
position = "{200, 0}";
},
{
name = bottomright;
position = "{340, 0}";
}
);
components = (
{
name = I;
},
{
name = grave.case;
transform = "{1, 0, 0, 1, -100, 0}";
}
);
layerId = "E49AE6DE-96A1-45B5-978D-9231980F4AB5";
width = 400;
},
{
anchors = (
{
name = bottom;
position = "{200, 0}";
},
{
name = bottomright;
position = "{382, 0}";
}
);
background = {
paths = (
{
closed = 1;
nodes = (
"382 0 LINE",
"382 121 LINE",
"292 121 LINE",
"292 577 LINE",
"382 577 LINE",
"382 698 LINE",
"50 698 LINE",
"50 577 LINE",
"140 577 LINE",
"140 121 LINE",
"50 121 LINE",
"50 0 LINE"
);
},
{
closed = 1;
nodes = (
"288 783 LINE",
"189 977 LINE",
"66 916 LINE",
"200 740 LINE"
);
}
);
};
components = (
{
name = I;
},
{
name = grave.case;
transform = "{1, 0, 0, 1, -84, 0}";
}
);
layerId = "5E87F462-D40B-43EC-958D-42003ED2F346";
width = 432;
},
{
anchors = (
{
name = bottom;
position = "{200, 0}";
},
{
name = bottomright;
position = "{304, 0}";
}
);
background = {
paths = (
{
closed = 1;
nodes = (
"304 0 LINE",
"304 19 LINE",
"197 19 LINE",
"197 679 LINE",
"304 679 LINE",
"304 698 LINE",
"68 698 LINE",
"68 679 LINE",
"175 679 LINE",
"175 19 LINE",
"68 19 LINE",
"68 0 LINE"
);
},
{
closed = 1;
nodes = (
"217 777 LINE",
"106 931 LINE",
"87 919 LINE",
"202 767 LINE"
);
}
);
};
components = (
{
name = I;
},
{
name = grave.case;
transform = "{1, 0, 0, 1, -114, 0}";
}
);
layerId = "D69F2138-E7D7-470A-972F-2AC6B0C54BA2";
width = 372;
}
);
leftKerningGroup = uc_i;
rightKerningGroup = uc_i;
unicode = 00CC;
userData = {
com.typemytype.robofont.mark = (
0.6,
0.986,
1,
1
);
};
},
{
glyphname = Ihookabove;
lastChange = "2019-12-12 13:31:24 +0000";
layers = (
{
anchors = (
{
name = bottom;
position = "{200, 0}";
},
{
name = bottomright;
position = "{340, 0}";
}
);
components = (
{
name = I;
},
{
name = hookabovecomb;
transform = "{1, 0, 0, 1, 200, 170}";
}
);
layerId = "E49AE6DE-96A1-45B5-978D-9231980F4AB5";
width = 400;
},
{
anchors = (
{
name = bottom;
position = "{200, 0}";
},
{
name = bottomright;
position = "{382, 0}";
}
);
background = {
paths = (
{
closed = 1;
nodes = (
"382 0 LINE",
"382 121 LINE",
"292 121 LINE",
"292 577 LINE",
"382 577 LINE",
"382 698 LINE",
"50 698 LINE",
"50 577 LINE",
"140 577 LINE",
"140 121 LINE",
"50 121 LINE",
"50 0 LINE"
);
},
{
closed = 1;
nodes = (
"280 764 LINE SMOOTH",
"313 804 OFFCURVE",
"337 851 OFFCURVE",
"337 890 CURVE SMOOTH",
"337 929 OFFCURVE",
"314 963 OFFCURVE",
"239 963 CURVE SMOOTH",
"96 963 LINE",
"96 857 LINE",
"218 857 LINE",
"177 765 LINE",
"252 730 LINE"
);
}
);
};
components = (
{
name = I;
},
{
name = hookabovecomb;
transform = "{1, 0, 0, 1, 216, 159}";
}
);
layerId = "5E87F462-D40B-43EC-958D-42003ED2F346";
width = 432;
},
{
anchors = (
{
name = bottom;
position = "{200, 0}";
},
{
name = bottomright;
position = "{304, 0}";
}
);
background = {
paths = (
{
closed = 1;
nodes = (
"304 0 LINE",
"304 19 LINE",
"197 19 LINE",
"197 679 LINE",
"304 679 LINE",
"304 698 LINE",
"68 698 LINE",
"68 679 LINE",
"175 679 LINE",
"175 19 LINE",
"68 19 LINE",
"68 0 LINE"
);
},
{
closed = 1;
nodes = (
"240 841 LINE SMOOTH",
"266 881 OFFCURVE",
"271 891 OFFCURVE",
"271 899 CURVE SMOOTH",
"271 910 OFFCURVE",
"263 917 OFFCURVE",
"248 917 CURVE SMOOTH",
"111 917 LINE",
"111 899 LINE",
"252 899 LINE",
"175 773 LINE",
"191 765 LINE"
);
}
);
};
components = (
{
name = I;
},
{
name = hookabovecomb;
transform = "{1, 0, 0, 1, 185, 180}";
}
);
layerId = "D69F2138-E7D7-470A-972F-2AC6B0C54BA2";
width = 372;
}
);
rightKerningGroup = uc_i;
unicode = 1EC8;
userData = {
com.typemytype.robofont.mark = (
0.6,
0.986,
1,
1
);
};
},
{
glyphname = Imacron;
lastChange = "2019-12-12 08:30:35 +0000";
layers = (
{
anchors = (
{
name = bottom;
position = "{200, 0}";
},
{
name = bottomright;
position = "{340, 0}";
}
);
components = (
{
name = I;
},
{
name = macron.case;
transform = "{1, 0, 0, 1, -100, 0}";
}
);
layerId = "E49AE6DE-96A1-45B5-978D-9231980F4AB5";
width = 400;
},
{
anchors = (
{
name = bottom;
position = "{200, 0}";
},
{
name = bottomright;
position = "{382, 0}";
}
);
background = {
paths = (
{
closed = 1;
nodes = (
"382 0 LINE",
"382 121 LINE",
"292 121 LINE",
"292 577 LINE",
"382 577 LINE",
"382 698 LINE",
"50 698 LINE",
"50 577 LINE",
"140 577 LINE",
"140 121 LINE",
"50 121 LINE",
"50 0 LINE"
);
},
{
closed = 1;
nodes = (
"369 785 LINE",
"369 888 LINE",
"63 888 LINE",
"63 785 LINE"
);
}
);
};
components = (
{
name = I;
},
{
name = macron.case;
transform = "{1, 0, 0, 1, -84, 0}";
}
);
layerId = "5E87F462-D40B-43EC-958D-42003ED2F346";
width = 432;
},
{
anchors = (
{
name = bottom;
position = "{200, 0}";
},
{
name = bottomright;
position = "{304, 0}";
}
);
background = {
paths = (
{
closed = 1;
nodes = (
"304 0 LINE",
"304 19 LINE",
"197 19 LINE",
"197 679 LINE",
"304 679 LINE",
"304 698 LINE",
"68 698 LINE",
"68 679 LINE",
"175 679 LINE",
"175 19 LINE",
"68 19 LINE",
"68 0 LINE"
);
},
{
closed = 1;
nodes = (
"314 838 LINE",
"314 856 LINE",
"56 856 LINE",
"56 838 LINE"
);
}
);
};
components = (
{
name = I;
},
{
name = macron.case;
transform = "{1, 0, 0, 1, -114, 0}";
}
);
layerId = "D69F2138-E7D7-470A-972F-2AC6B0C54BA2";
width = 372;
}
);
leftKerningGroup = uc_i;
rightKerningGroup = uc_i;
unicode = 012A;
userData = {
com.typemytype.robofont.mark = (
0.6,
0.986,
1,
1
);
};
},
{
glyphname = Iogonek;
lastChange = "2019-12-09 08:04:08 +0000";
layers = (
{
layerId = "E49AE6DE-96A1-45B5-978D-9231980F4AB5";
paths = (
{
closed = 1;
nodes = (
"319 -207 OFFCURVE",
"349 -189 OFFCURVE",
"361 -168 CURVE",
"321 -129 LINE",
"309 -144 OFFCURVE",
"292 -153 OFFCURVE",
"273 -153 CURVE SMOOTH",
"255 -153 OFFCURVE",
"242 -145 OFFCURVE",
"242 -123 CURVE SMOOTH",
"242 -101 OFFCURVE",
"255 -78 OFFCURVE",
"340 0 CURVE",
"340 70 LINE",
"242 70 LINE",
"242 628 LINE",
"340 628 LINE",
"340 698 LINE",
"60 698 LINE",
"60 628 LINE",
"158 628 LINE {name = hr01;}",
"158 70 LINE",
"60 70 LINE",
"60 0 LINE",
"278 0 LINE",
"279 -5 LINE",
"216 -47 OFFCURVE",
"178 -81 OFFCURVE",
"178 -131 CURVE SMOOTH",
"178 -184 OFFCURVE",
"221 -207 OFFCURVE",
"273 -207 CURVE SMOOTH"
);
}
);
width = 400;
},
{
layerId = "5E87F462-D40B-43EC-958D-42003ED2F346";
paths = (
{
closed = 1;
nodes = (
"356 -212 OFFCURVE",
"398 -193 OFFCURVE",
"415 -161 CURVE",
"362 -110 LINE",
"348 -126 OFFCURVE",
"331 -138 OFFCURVE",
"307 -138 CURVE SMOOTH",
"287 -138 OFFCURVE",
"269 -130 OFFCURVE",
"269 -105 CURVE SMOOTH",
"269 -81 OFFCURVE",
"285 -60 OFFCURVE",
"383 0 CURVE",
"383 121 LINE",
"292 121 LINE",
"292 577 LINE",
"383 577 LINE",
"383 698 LINE",
"50 698 LINE",
"50 577 LINE",
"140 577 LINE",
"140 121 LINE",
"50 121 LINE",
"50 0 LINE",
"287 0 LINE",
"288 -4 LINE",
"214 -38 OFFCURVE",
"169 -71 OFFCURVE",
"169 -127 CURVE SMOOTH",
"169 -191 OFFCURVE",
"227 -212 OFFCURVE",
"293 -212 CURVE SMOOTH"
);
}
);
width = 432;
},
{
layerId = "D69F2138-E7D7-470A-972F-2AC6B0C54BA2";
paths = (
{
closed = 1;
nodes = (
"279 -202 OFFCURVE",
"305 -188 OFFCURVE",
"318 -170 CURVE",
"304 -159 LINE",
"294 -171 OFFCURVE",
"276 -184 OFFCURVE",
"244 -184 CURVE SMOOTH",
"209 -184 OFFCURVE",
"185 -169 OFFCURVE",
"185 -132 CURVE SMOOTH",
"185 -82 OFFCURVE",
"225 -51 OFFCURVE",
"304 0 CURVE",
"304 19 LINE",
"197 19 LINE",
"197 679 LINE",
"304 679 LINE",
"304 698 LINE",
"68 698 LINE",
"68 679 LINE",
"175 679 LINE",
"175 19 LINE",
"68 19 LINE",
"68 0 LINE",
"275 0 LINE",
"276 -3 LINE",
"189 -54 OFFCURVE",
"164 -97 OFFCURVE",
"164 -135 CURVE SMOOTH",
"164 -179 OFFCURVE",
"198 -202 OFFCURVE",
"243 -202 CURVE SMOOTH"
);
}
);
width = 372;
}
);
leftKerningGroup = uc_i;
rightKerningGroup = uc_i;
unicode = 012E;
},
{
glyphname = Itilde;
lastChange = "2019-12-12 08:31:12 +0000";
layers = (
{
anchors = (
{
name = bottom;
position = "{200, 0}";
},
{
name = bottomright;
position = "{340, 0}";
}
);
components = (
{
name = I;
},
{
name = tilde.case;
transform = "{1, 0, 0, 1, -100, 0}";
}
);
layerId = "E49AE6DE-96A1-45B5-978D-9231980F4AB5";
width = 400;
},
{
anchors = (
{
name = bottom;
position = "{200, 0}";
},
{
name = bottomright;
position = "{382, 0}";
}
);
background = {
paths = (
{
closed = 1;
nodes = (
"382 0 LINE",
"382 121 LINE",
"292 121 LINE",
"292 577 LINE",
"382 577 LINE",
"382 698 LINE",
"50 698 LINE",
"50 577 LINE",
"140 577 LINE",
"140 121 LINE",
"50 121 LINE",
"50 0 LINE"
);
},
{
closed = 1;
nodes = (
"345 762 OFFCURVE",
"382 790 OFFCURVE",
"406 826 CURVE",
"354 894 LINE",
"333 877 OFFCURVE",
"318 869 OFFCURVE",
"295 869 CURVE SMOOTH",
"269 869 OFFCURVE",
"246 879 OFFCURVE",
"217 891 CURVE SMOOTH",
"192 902 OFFCURVE",
"170 911 OFFCURVE",
"140 911 CURVE SMOOTH",
"87 911 OFFCURVE",
"50 883 OFFCURVE",
"26 847 CURVE",
"78 779 LINE",
"99 796 OFFCURVE",
"114 804 OFFCURVE",
"137 804 CURVE SMOOTH",
"163 804 OFFCURVE",
"186 794 OFFCURVE",
"215 782 CURVE SMOOTH",
"240 771 OFFCURVE",
"262 762 OFFCURVE",
"292 762 CURVE SMOOTH"
);
}
);
};
components = (
{
name = I;
},
{
name = tilde.case;
transform = "{1, 0, 0, 1, -84, 0}";
}
);
layerId = "5E87F462-D40B-43EC-958D-42003ED2F346";
width = 432;
},
{
anchors = (
{
name = bottom;
position = "{200, 0}";
},
{
name = bottomright;
position = "{304, 0}";
}
);
background = {
paths = (
{
closed = 1;
nodes = (
"304 0 LINE",
"304 19 LINE",
"197 19 LINE",
"197 679 LINE",
"304 679 LINE",
"304 698 LINE",
"68 698 LINE",
"68 679 LINE",
"175 679 LINE",
"175 19 LINE",
"68 19 LINE",
"68 0 LINE"
);
},
{
closed = 1;
nodes = (
"284 808 OFFCURVE",
"310 820 OFFCURVE",
"334 847 CURVE",
"322 859 LINE",
"301 837 OFFCURVE",
"281 826 OFFCURVE",
"257 826 CURVE SMOOTH",
"238 826 OFFCURVE",
"220 833 OFFCURVE",
"191 852 CURVE SMOOTH",
"157 874 OFFCURVE",
"137 882 OFFCURVE",
"114 882 CURVE SMOOTH",
"86 882 OFFCURVE",
"60 870 OFFCURVE",
"36 843 CURVE",
"48 831 LINE",
"69 853 OFFCURVE",
"89 864 OFFCURVE",
"113 864 CURVE SMOOTH",
"132 864 OFFCURVE",
"150 857 OFFCURVE",
"179 838 CURVE SMOOTH",
"213 816 OFFCURVE",
"233 808 OFFCURVE",
"256 808 CURVE SMOOTH"
);
}
);
};
components = (
{
name = I;
},
{
name = tilde.case;
transform = "{1, 0, 0, 1, -114, 0}";
}
);
layerId = "D69F2138-E7D7-470A-972F-2AC6B0C54BA2";
width = 372;
}
);
leftKerningGroup = uc_i;
rightKerningGroup = uc_i;
unicode = 0128;
userData = {
com.typemytype.robofont.mark = (
0.6,
0.986,
1,
1
);
};
},
{
glyphname = J;
lastChange = "2019-12-12 08:31:49 +0000";
layers = (
{
anchors = (
{
name = bottom;
position = "{225, 0}";
},
{
name = top;
position = "{263, 698}";
}
);
layerId = "E49AE6DE-96A1-45B5-978D-9231980F4AB5";
paths = (
{
closed = 1;
nodes = (
"340 -12 OFFCURVE",
"422 63 OFFCURVE",
"422 181 CURVE SMOOTH",
"422 698 LINE",
"98 698 LINE {name = hr00;}",
"98 624 LINE",
"338 624 LINE",
"338 196 LINE SMOOTH",
"338 107 OFFCURVE",
"296 63 OFFCURVE",
"224 63 CURVE SMOOTH",
"153 63 OFFCURVE",
"117 105 OFFCURVE",
"104 165 CURVE",
"28 147 LINE",
"47 52 OFFCURVE",
"114 -12 OFFCURVE",
"222 -12 CURVE SMOOTH"
);
}
);
width = 510;
},
{
anchors = (
{
name = bottom;
position = "{266, 0}";
},
{
name = top;
position = "{305, 698}";
}
);
layerId = "5E87F462-D40B-43EC-958D-42003ED2F346";
paths = (
{
closed = 1;
nodes = (
"400 -11 OFFCURVE",
"486 74 OFFCURVE",
"486 202 CURVE SMOOTH",
"486 698 LINE",
"122 698 LINE",
"122 576 LINE",
"334 576 LINE",
"334 209 LINE SMOOTH",
"334 149 OFFCURVE",
"298 122 OFFCURVE",
"254 122 CURVE SMOOTH",
"207 122 OFFCURVE",
"178 154 OFFCURVE",
"167 213 CURVE",
"25 185 LINE",
"45 68 OFFCURVE",
"118 -11 OFFCURVE",
"256 -11 CURVE SMOOTH"
);
}
);
width = 559;
},
{
anchors = (
{
name = bottom;
position = "{206, 0}";
},
{
name = top;
position = "{232, 698}";
}
);
layerId = "D69F2138-E7D7-470A-972F-2AC6B0C54BA2";
paths = (
{
closed = 1;
nodes = (
"299 -12 OFFCURVE",
"364 55 OFFCURVE",
"364 183 CURVE SMOOTH",
"364 698 LINE",
"96 698 LINE",
"96 678 LINE",
"342 678 LINE",
"342 183 LINE SMOOTH",
"342 71 OFFCURVE",
"292 8 OFFCURVE",
"192 8 CURVE SMOOTH",
"115 8 OFFCURVE",
"60 56 OFFCURVE",
"41 119 CURVE",
"22 113 LINE",
"40 39 OFFCURVE",
"109 -12 OFFCURVE",
"192 -12 CURVE SMOOTH"
);
}
);
width = 464;
}
);
leftKerningGroup = uc_j;
rightKerningGroup = uc_j;
unicode = 004A;
},
{
glyphname = Jacute;
lastChange = "2019-12-12 08:33:22 +0000";
layers = (
{
anchors = (
{
name = bottom;
position = "{225, 0}";
}
);
components = (
{
name = J;
},
{
name = acute.case;
transform = "{1, 0, 0, 1, -37, 0}";
}
);
layerId = "E49AE6DE-96A1-45B5-978D-9231980F4AB5";
width = 510;
},
{
anchors = (
{
name = bottom;
position = "{265, 0}";
}
);
background = {
paths = (
{
closed = 1;
nodes = (
"400 -11 OFFCURVE",
"486 74 OFFCURVE",
"486 202 CURVE SMOOTH",
"486 698 LINE",
"122 698 LINE",
"122 576 LINE",
"334 576 LINE",
"334 209 LINE SMOOTH",
"334 149 OFFCURVE",
"298 122 OFFCURVE",
"254 122 CURVE SMOOTH",
"207 122 OFFCURVE",
"178 154 OFFCURVE",
"167 213 CURVE",
"25 185 LINE",
"45 68 OFFCURVE",
"118 -11 OFFCURVE",
"256 -11 CURVE SMOOTH"
);
},
{
closed = 1;
nodes = (
"453 916 LINE",
"330 977 LINE",
"231 783 LINE",
"319 740 LINE"
);
}
);
};
components = (
{
name = J;
},
{
name = acute.case;
transform = "{1, 0, 0, 1, 4, 0}";
}
);
layerId = "5E87F462-D40B-43EC-958D-42003ED2F346";
width = 559;
},
{
anchors = (
{
name = bottom;
position = "{196, 0}";
}
);
background = {
paths = (
{
closed = 1;
nodes = (
"299 -12 OFFCURVE",
"364 55 OFFCURVE",
"364 183 CURVE SMOOTH",
"364 698 LINE",
"96 698 LINE",
"96 678 LINE",
"342 678 LINE",
"342 183 LINE SMOOTH",
"342 71 OFFCURVE",
"292 8 OFFCURVE",
"192 8 CURVE SMOOTH",
"115 8 OFFCURVE",
"60 56 OFFCURVE",
"41 119 CURVE",
"22 113 LINE",
"40 39 OFFCURVE",
"109 -12 OFFCURVE",
"192 -12 CURVE SMOOTH"
);
},
{
closed = 1;
nodes = (
"329 919 LINE",
"310 931 LINE",
"199 777 LINE",
"214 767 LINE"
);
}
);
};
components = (
{
name = J;
},
{
name = acute.case;
transform = "{1, 0, 0, 1, -68, 0}";
}
);
layerId = "D69F2138-E7D7-470A-972F-2AC6B0C54BA2";
width = 464;
}
);
leftKerningGroup = uc_j;
rightKerningGroup = uc_j;
userData = {
com.typemytype.robofont.mark = (
0.6,
0.986,
1,
1
);
};
},
{
glyphname = Jcircumflex;
lastChange = "2019-12-12 08:33:48 +0000";
layers = (
{
anchors = (
{
name = bottom;
position = "{225, 0}";
}
);
components = (
{
name = J;
},
{
name = circumflex.case;
transform = "{1, 0, 0, 1, -37, 0}";
}
);
layerId = "E49AE6DE-96A1-45B5-978D-9231980F4AB5";
width = 510;
},
{
anchors = (
{
name = bottom;
position = "{225, 0}";
}
);
background = {
paths = (
{
closed = 1;
nodes = (
"400 -11 OFFCURVE",
"486 74 OFFCURVE",
"486 202 CURVE SMOOTH",
"486 698 LINE",
"122 698 LINE",
"122 576 LINE",
"334 576 LINE",
"334 209 LINE SMOOTH",
"334 149 OFFCURVE",
"298 122 OFFCURVE",
"254 122 CURVE SMOOTH",
"207 122 OFFCURVE",
"178 154 OFFCURVE",
"167 213 CURVE",
"25 185 LINE",
"45 68 OFFCURVE",
"118 -11 OFFCURVE",
"256 -11 CURVE SMOOTH"
);
},
{
closed = 1;
nodes = (
"303 854 LINE",
"424 739 LINE",
"497 797 LINE",
"365 956 LINE",
"241 956 LINE",
"109 797 LINE",
"182 739 LINE"
);
}
);
};
components = (
{
name = J;
},
{
name = circumflex.case;
transform = "{1, 0, 0, 1, 5, 0}";
}
);
layerId = "5E87F462-D40B-43EC-958D-42003ED2F346";
width = 559;
},
{
anchors = (
{
name = bottom;
position = "{225, 0}";
}
);
background = {
paths = (
{
closed = 1;
nodes = (
"299 -12 OFFCURVE",
"364 55 OFFCURVE",
"364 183 CURVE SMOOTH",
"364 698 LINE",
"96 698 LINE",
"96 678 LINE",
"342 678 LINE",
"342 183 LINE SMOOTH",
"342 71 OFFCURVE",
"292 8 OFFCURVE",
"192 8 CURVE SMOOTH",
"115 8 OFFCURVE",
"60 56 OFFCURVE",
"41 119 CURVE",
"22 113 LINE",
"40 39 OFFCURVE",
"109 -12 OFFCURVE",
"192 -12 CURVE SMOOTH"
);
},
{
closed = 1;
nodes = (
"232 906 LINE",
"358 779 LINE",
"372 790 LINE",
"244 923 LINE",
"220 923 LINE",
"92 790 LINE",
"106 779 LINE"
);
}
);
};
components = (
{
name = J;
},
{
name = circumflex.case;
transform = "{1, 0, 0, 1, -68, 0}";
}
);
layerId = "D69F2138-E7D7-470A-972F-2AC6B0C54BA2";
width = 464;
}
);
leftKerningGroup = uc_j;
rightKerningGroup = uc_j;
unicode = 0134;
userData = {
com.typemytype.robofont.mark = (
0.6,
0.986,
1,
1
);
};
},
{
glyphname = K;
lastChange = "2019-12-12 08:36:25 +0000";
layers = (
{
anchors = (
{
name = bottom;
position = "{336, 0}";
},
{
name = top;
position = "{321, 698}";
}
);
layerId = "E49AE6DE-96A1-45B5-978D-9231980F4AB5";
paths = (
{
closed = 1;
nodes = (
"177 0 LINE",
"177 233 LINE",
"276 343 LINE",
"508 0 LINE {name = hr00;}",
"612 0 LINE",
"334 399 LINE",
"594 698 LINE",
"491 698 LINE",
"280 448 LINE",
"180 327 LINE",
"177 327 LINE",
"177 698 LINE",
"93 698 LINE",
"93 0 LINE"
);
}
);
width = 634;
},
{
anchors = (
{
name = bottom;
position = "{365, 0}";
},
{
name = top;
position = "{348, 698}";
}
);
layerId = "5E87F462-D40B-43EC-958D-42003ED2F346";
paths = (
{
closed = 1;
nodes = (
"229 0 LINE",
"229 194 LINE",
"320 304 LINE",
"505 0 LINE",
"684 0 LINE",
"428 411 LINE",
"663 698 LINE",
"491 698 LINE",
"334 501 LINE",
"235 366 LINE",
"229 366 LINE",
"229 698 LINE",
"77 698 LINE",
"77 0 LINE"
);
}
);
width = 696;
},
{
anchors = (
{
name = bottom;
position = "{314, 0}";
},
{
name = top;
position = "{286, 698}";
}
);
layerId = "D69F2138-E7D7-470A-972F-2AC6B0C54BA2";
paths = (
{
closed = 1;
nodes = (
"130 0 LINE",
"130 239 LINE",
"265 387 LINE",
"526 0 LINE",
"552 0 LINE",
"280 403 LINE",
"549 698 LINE",
"521 698 LINE",
"262 413 LINE",
"132 271 LINE",
"130 271 LINE",
"130 698 LINE",
"108 698 LINE",
"108 0 LINE"
);
}
);
width = 572;
}
);
rightKerningGroup = uc_k;
unicode = 004B;
},
{
glyphname = Kcommaaccent;
lastChange = "2019-12-12 08:36:25 +0000";
layers = (
{
anchors = (
{
name = top;
position = "{321, 698}";
}
);
components = (
{
name = K;
},
{
name = commaaccentcomb;
transform = "{1, 0, 0, 1, 336, 0}";
}
);
layerId = "E49AE6DE-96A1-45B5-978D-9231980F4AB5";
width = 634;
},
{
anchors = (
{
name = top;
position = "{321, 698}";
}
);
background = {
paths = (
{
closed = 1;
nodes = (
"229 0 LINE",
"229 194 LINE",
"320 304 LINE",
"505 0 LINE",
"684 0 LINE",
"428 411 LINE",
"663 698 LINE",
"491 698 LINE",
"334 501 LINE",
"235 366 LINE",
"229 366 LINE",
"229 698 LINE",
"77 698 LINE",
"77 0 LINE"
);
},
{
closed = 1;
nodes = (
"367 -275 LINE",
"405 -242 OFFCURVE",
"434 -179 OFFCURVE",
"434 -118 CURVE SMOOTH",
"434 -104 LINE SMOOTH",
"434 -64 OFFCURVE",
"408 -42 OFFCURVE",
"364 -42 CURVE SMOOTH",
"320 -42 OFFCURVE",
"294 -64 OFFCURVE",
"294 -104 CURVE SMOOTH",
"294 -115 LINE SMOOTH",
"294 -144 OFFCURVE",
"306 -173 OFFCURVE",
"344 -176 CURVE",
"334 -216 OFFCURVE",
"316 -246 OFFCURVE",
"282 -275 CURVE"
);
}
);
};
components = (
{
name = K;
},
{
name = commaaccentcomb;
transform = "{1, 0, 0, 1, 365, 0}";
}
);
layerId = "5E87F462-D40B-43EC-958D-42003ED2F346";
width = 696;
},
{
anchors = (
{
name = top;
position = "{321, 698}";
}
);
background = {
paths = (
{
closed = 1;
nodes = (
"130 0 LINE",
"130 239 LINE",
"265 387 LINE",
"526 0 LINE",
"552 0 LINE",
"280 403 LINE",
"549 698 LINE",
"521 698 LINE",
"262 413 LINE",
"132 271 LINE",
"130 271 LINE",
"130 698 LINE",
"108 698 LINE",
"108 0 LINE"
);
},
{
closed = 1;
nodes = (
"292 -212 LINE",
"318 -183 OFFCURVE",
"337 -133 OFFCURVE",
"337 -99 CURVE SMOOTH",
"337 -88 LINE SMOOTH",
"337 -75 OFFCURVE",
"331 -66 OFFCURVE",
"315 -66 CURVE SMOOTH",
"297 -66 OFFCURVE",
"291 -75 OFFCURVE",
"291 -88 CURVE SMOOTH",
"291 -96 LINE SMOOTH",
"291 -107 OFFCURVE",
"297 -116 OFFCURVE",
"319 -116 CURVE",
"316 -138 OFFCURVE",
"303 -180 OFFCURVE",
"274 -212 CURVE"
);
}
);
};
components = (
{
name = K;
},
{
name = commaaccentcomb;
transform = "{1, 0, 0, 1, 314, 0}";
}
);
layerId = "D69F2138-E7D7-470A-972F-2AC6B0C54BA2";
width = 572;
}
);
rightKerningGroup = uc_k;
unicode = 0136;
userData = {
com.typemytype.robofont.mark = (
0.6,
0.986,
1,
1
);
};
},
{
glyphname = L;
lastChange = "2019-12-12 09:19:32 +0000";
layers = (
{
anchors = (
{
name = bottom;
position = "{298, 0}";
},
{
name = top;
position = "{135, 698}";
},
{
name = topright;
position = "{255, 740}";
}
);
layerId = "E49AE6DE-96A1-45B5-978D-9231980F4AB5";
paths = (
{
closed = 1;
nodes = (
"474 0 LINE {name = hr00;}",
"474 74 LINE",
"177 74 LINE",
"177 698 LINE",
"93 698 LINE",
"93 0 LINE"
);
}
);
width = 501;
},
{
anchors = (
{
name = bottom;
position = "{286, 0}";
},
{
name = top;
position = "{157, 698}";
},
{
name = topright;
position = "{295, 742}";
}
);
layerId = "5E87F462-D40B-43EC-958D-42003ED2F346";
paths = (
{
closed = 1;
nodes = (
"495 0 LINE",
"495 135 LINE",
"229 135 LINE",
"229 698 LINE",
"77 698 LINE",
"77 0 LINE"
);
}
);
width = 530;
},
{
anchors = (
{
name = bottom;
position = "{292, 0}";
},
{
name = top;
position = "{118, 698}";
},
{
name = topright;
position = "{234, 740}";
}
);
layerId = "D69F2138-E7D7-470A-972F-2AC6B0C54BA2";
paths = (
{
closed = 1;
nodes = (
"455 0 LINE",
"455 20 LINE",
"130 20 LINE",
"130 698 LINE",
"108 698 LINE",
"108 0 LINE"
);
}
);
width = 475;
}
);
rightKerningGroup = uc_l;
unicode = 004C;
},
{
glyphname = Lacute;
lastChange = "2019-12-12 09:16:48 +0000";
layers = (
{
anchors = (
{
name = bottom;
position = "{298, 0}";
},
{
name = topright;
position = "{255, 740}";
}
);
components = (
{
name = L;
},
{
name = acute.case;
transform = "{1, 0, 0, 1, -165, 0}";
}
);
layerId = "E49AE6DE-96A1-45B5-978D-9231980F4AB5";
width = 501;
},
{
anchors = (
{
name = bottom;
position = "{298, 0}";
},
{
name = topright;
position = "{255, 740}";
}
);
background = {
paths = (
{
closed = 1;
nodes = (
"495 0 LINE",
"495 135 LINE",
"229 135 LINE",
"229 698 LINE",
"77 698 LINE",
"77 0 LINE"
);
},
{
closed = 1;
nodes = (
"303 916 LINE",
"180 977 LINE",
"81 783 LINE",
"169 740 LINE"
);
}
);
};
components = (
{
name = L;
},
{
name = acute.case;
transform = "{1, 0, 0, 1, -144, 0}";
}
);
layerId = "5E87F462-D40B-43EC-958D-42003ED2F346";
width = 530;
},
{
anchors = (
{
name = bottom;
position = "{298, 0}";
},
{
name = topright;
position = "{255, 740}";
}
);
background = {
paths = (
{
closed = 1;
nodes = (
"455 0 LINE",
"455 20 LINE",
"130 20 LINE",
"130 698 LINE",
"108 698 LINE",
"108 0 LINE"
);
},
{
closed = 1;
nodes = (
"216 919 LINE",
"197 931 LINE",
"86 777 LINE",
"101 767 LINE"
);
}
);
};
components = (
{
name = L;
},
{
name = acute.case;
transform = "{1, 0, 0, 1, -182, 0}";
}
);
layerId = "D69F2138-E7D7-470A-972F-2AC6B0C54BA2";
width = 475;
}
);
rightKerningGroup = uc_l;
unicode = 0139;
userData = {
com.typemytype.robofont.mark = (
0.6,
0.986,
1,
1
);
};
},
{
glyphname = Lcaron;
lastChange = "2019-12-12 09:17:26 +0000";
layers = (
{
anchors = (
{
name = bottom;
position = "{298, 0}";
},
{
name = top;
position = "{135, 698}";
}
);
components = (
{
name = L;
},
{
name = apostrophemod;
transform = "{1, 0, 0, 1, -45, 0}";
}
);
layerId = "E49AE6DE-96A1-45B5-978D-9231980F4AB5";
width = 501;
},
{
anchors = (
{
name = bottom;
position = "{298, 0}";
},
{
name = top;
position = "{135, 698}";
}
);
background = {
paths = (
{
closed = 1;
nodes = (
"495 0 LINE",
"495 135 LINE",
"229 135 LINE",
"229 698 LINE",
"77 698 LINE",
"77 0 LINE"
);
},
{
closed = 1;
nodes = (
"398 525 LINE",
"464 740 LINE",
"307 740 LINE",
"301 525 LINE"
);
}
);
};
components = (
{
name = L;
},
{
name = apostrophemod;
transform = "{1, 0, 0, 1, 164, 2}";
}
);
layerId = "5E87F462-D40B-43EC-958D-42003ED2F346";
width = 530;
},
{
anchors = (
{
name = bottom;
position = "{298, 0}";
},
{
name = top;
position = "{135, 698}";
}
);
background = {
paths = (
{
closed = 1;
nodes = (
"455 0 LINE",
"455 20 LINE",
"130 20 LINE",
"130 698 LINE",
"108 698 LINE",
"108 0 LINE"
);
},
{
closed = 1;
nodes = (
"247 564 LINE",
"271 740 LINE",
"246 740 LINE",
"230 564 LINE"
);
}
);
};
components = (
{
name = L;
},
{
name = apostrophemod;
transform = "{1, 0, 0, 1, -7, 0}";
}
);
layerId = "D69F2138-E7D7-470A-972F-2AC6B0C54BA2";
width = 475;
}
);
rightKerningGroup = uc_l;
unicode = 013D;
userData = {
com.typemytype.robofont.mark = (
0.6,
0.986,
1,
1
);
};
},
{
glyphname = Lcommaaccent;
lastChange = "2019-12-12 09:18:17 +0000";
layers = (
{
anchors = (
{
name = top;
position = "{135, 698}";
},
{
name = topright;
position = "{255, 740}";
}
);
components = (
{
name = L;
},
{
name = commaaccentcomb;
transform = "{1, 0, 0, 1, 298, 0}";
}
);
layerId = "E49AE6DE-96A1-45B5-978D-9231980F4AB5";
width = 501;
},
{
anchors = (
{
name = top;
position = "{135, 698}";
},
{
name = topright;
position = "{255, 740}";
}
);
background = {
paths = (
{
closed = 1;
nodes = (
"495 0 LINE",
"495 135 LINE",
"229 135 LINE",
"229 698 LINE",
"77 698 LINE",
"77 0 LINE"
);
},
{
closed = 1;
nodes = (
"288 -275 LINE",
"326 -242 OFFCURVE",
"355 -179 OFFCURVE",
"355 -118 CURVE SMOOTH",
"355 -104 LINE SMOOTH",
"355 -64 OFFCURVE",
"329 -42 OFFCURVE",
"285 -42 CURVE SMOOTH",
"241 -42 OFFCURVE",
"215 -64 OFFCURVE",
"215 -104 CURVE SMOOTH",
"215 -115 LINE SMOOTH",
"215 -144 OFFCURVE",
"227 -173 OFFCURVE",
"265 -176 CURVE",
"255 -216 OFFCURVE",
"237 -246 OFFCURVE",
"203 -275 CURVE"
);
}
);
};
components = (
{
name = L;
},
{
name = commaaccentcomb;
transform = "{1, 0, 0, 1, 286, 0}";
}
);
layerId = "5E87F462-D40B-43EC-958D-42003ED2F346";
width = 530;
},
{
anchors = (
{
name = top;
position = "{135, 698}";
},
{
name = topright;
position = "{255, 740}";
}
);
background = {
paths = (
{
closed = 1;
nodes = (
"455 0 LINE",
"455 20 LINE",
"130 20 LINE",
"130 698 LINE",
"108 698 LINE",
"108 0 LINE"
);
},
{
closed = 1;
nodes = (
"270 -212 LINE",
"296 -183 OFFCURVE",
"315 -133 OFFCURVE",
"315 -99 CURVE SMOOTH",
"315 -88 LINE SMOOTH",
"315 -75 OFFCURVE",
"309 -66 OFFCURVE",
"293 -66 CURVE SMOOTH",
"275 -66 OFFCURVE",
"269 -75 OFFCURVE",
"269 -88 CURVE SMOOTH",
"269 -96 LINE SMOOTH",
"269 -107 OFFCURVE",
"275 -116 OFFCURVE",
"297 -116 CURVE",
"294 -138 OFFCURVE",
"281 -180 OFFCURVE",
"252 -212 CURVE"
);
}
);
};
components = (
{
name = L;
},
{
name = commaaccentcomb;
transform = "{1, 0, 0, 1, 292, 0}";
}
);
layerId = "D69F2138-E7D7-470A-972F-2AC6B0C54BA2";
width = 475;
}
);
rightKerningGroup = uc_l;
unicode = 013B;
userData = {
com.typemytype.robofont.mark = (
0.6,
0.986,
1,
1
);
};
},
{
glyphname = Ldot;
lastChange = "2019-12-12 09:19:56 +0000";
layers = (
{
anchors = (
{
name = bottom;
position = "{298, 0}";
},
{
name = topright;
position = "{255, 740}";
}
);
components = (
{
alignment = -1;
name = L;
},
{
alignment = -1;
name = dotaccent;
transform = "{1, 0, 0, 1, 85, -324}";
}
);
layerId = "E49AE6DE-96A1-45B5-978D-9231980F4AB5";
width = 501;
},
{
anchors = (
{
name = bottom;
position = "{298, 0}";
},
{
name = topright;
position = "{255, 740}";
}
);
background = {
paths = (
{
closed = 1;
nodes = (
"495 0 LINE",
"495 135 LINE",
"229 135 LINE",
"229 698 LINE",
"77 698 LINE",
"77 0 LINE"
);
},
{
closed = 1;
nodes = (
"480 321 OFFCURVE",
"503 352 OFFCURVE",
"503 391 CURVE SMOOTH",
"503 420 LINE SMOOTH",
"503 459 OFFCURVE",
"480 490 OFFCURVE",
"414 490 CURVE SMOOTH",
"348 490 OFFCURVE",
"325 459 OFFCURVE",
"325 420 CURVE SMOOTH",
"325 391 LINE SMOOTH",
"325 352 OFFCURVE",
"348 321 OFFCURVE",
"414 321 CURVE SMOOTH"
);
}
);
};
components = (
{
alignment = -1;
name = L;
},
{
alignment = -1;
name = dotaccent;
transform = "{1, 0, 0, 1, 114, -270}";
}
);
layerId = "5E87F462-D40B-43EC-958D-42003ED2F346";
width = 530;
},
{
anchors = (
{
name = bottom;
position = "{298, 0}";
},
{
name = topright;
position = "{255, 740}";
}
);
background = {
paths = (
{
closed = 1;
nodes = (
"455 0 LINE",
"455 20 LINE",
"130 20 LINE",
"130 698 LINE",
"108 698 LINE",
"108 0 LINE"
);
},
{
closed = 1;
nodes = (
"376 270 OFFCURVE",
"382 280 OFFCURVE",
"382 291 CURVE SMOOTH",
"382 298 LINE SMOOTH",
"382 309 OFFCURVE",
"376 319 OFFCURVE",
"359 319 CURVE SMOOTH",
"342 319 OFFCURVE",
"336 309 OFFCURVE",
"336 298 CURVE SMOOTH",
"336 291 LINE SMOOTH",
"336 280 OFFCURVE",
"342 270 OFFCURVE",
"359 270 CURVE SMOOTH"
);
}
);
};
components = (
{
alignment = -1;
name = L;
},
{
alignment = -1;
name = dotaccent;
transform = "{1, 0, 0, 1, 59, -372}";
}
);
layerId = "D69F2138-E7D7-470A-972F-2AC6B0C54BA2";
width = 475;
}
);
unicode = 013F;
userData = {
com.typemytype.robofont.mark = (
0.6,
0.986,
1,
1
);
};
},
{
glyphname = Lslash;
lastChange = "2019-12-09 08:04:08 +0000";
layers = (
{
layerId = "E49AE6DE-96A1-45B5-978D-9231980F4AB5";
paths = (
{
closed = 1;
nodes = (
"477 0 LINE",
"477 75 LINE {name = hr00;}",
"180 75 LINE",
"180 298 LINE",
"361 357 LINE",
"361 428 LINE",
"180 367 LINE",
"180 698 LINE",
"96 698 LINE",
"96 339 LINE",
"-7 304 LINE",
"-7 237 LINE",
"96 271 LINE",
"96 0 LINE"
);
}
);
width = 508;
},
{
layerId = "5E87F462-D40B-43EC-958D-42003ED2F346";
paths = (
{
closed = 1;
nodes = (
"500 0 LINE",
"500 135 LINE",
"234 135 LINE",
"234 291 LINE",
"392 342 LINE",
"392 455 LINE",
"234 404 LINE",
"234 698 LINE",
"82 698 LINE",
"82 356 LINE",
"-7 327 LINE",
"-7 214 LINE",
"82 243 LINE",
"82 0 LINE"
);
}
);
width = 540;
},
{
layerId = "D69F2138-E7D7-470A-972F-2AC6B0C54BA2";
paths = (
{
closed = 1;
nodes = (
"458 0 LINE",
"458 20 LINE",
"133 20 LINE",
"133 310 LINE",
"337 374 LINE",
"337 394 LINE",
"133 330 LINE",
"133 698 LINE",
"111 698 LINE",
"111 323 LINE",
"14 292 LINE",
"14 272 LINE",
"111 303 LINE",
"111 0 LINE"
);
}
);
width = 478;
}
);
rightKerningGroup = uc_l;
unicode = 0141;
},
{
glyphname = M;
lastChange = "2019-12-09 12:23:57 +0000";
layers = (
{
anchors = (
{
name = bottom;
position = "{406, 0}";
},
{
name = top;
position = "{406, 698}";
}
);
layerId = "E49AE6DE-96A1-45B5-978D-9231980F4AB5";
paths = (
{
closed = 1;
nodes = (
"175 0 LINE",
"175 588 LINE",
"180 588 LINE",
"239 471 LINE",
"406 167 LINE",
"573 471 LINE",
"632 588 LINE",
"637 588 LINE",
"637 0 LINE",
"719 0 LINE",
"719 698 LINE",
"611 698 LINE",
"410 322 LINE",
"405 322 LINE",
"205 698 LINE",
"93 698 LINE",
"93 0 LINE {name = hr00;}"
);
}
);
width = 812;
},
{
anchors = (
{
name = bottom;
position = "{410, 0}";
},
{
name = top;
position = "{410, 698}";
}
);
layerId = "5E87F462-D40B-43EC-958D-42003ED2F346";
paths = (
{
closed = 1;
nodes = (
"220 0 LINE",
"220 465 LINE",
"223 465 LINE",
"276 355 LINE",
"409 109 LINE",
"545 356 LINE",
"596 458 LINE",
"599 458 LINE",
"599 0 LINE",
"742 0 LINE",
"742 698 LINE",
"580 698 LINE",
"411 371 LINE",
"409 371 LINE",
"238 698 LINE",
"77 698 LINE",
"77 0 LINE"
);
}
);
width = 819;
},
{
anchors = (
{
name = bottom;
position = "{398, 0}";
},
{
name = top;
position = "{398, 698}";
}
);
layerId = "D69F2138-E7D7-470A-972F-2AC6B0C54BA2";
paths = (
{
closed = 1;
nodes = (
"129 0 LINE",
"129 673 LINE",
"132 673 LINE",
"232 508 LINE",
"398 236 LINE",
"563 507 LINE",
"664 673 LINE",
"667 673 LINE",
"667 0 LINE",
"688 0 LINE",
"688 698 LINE",
"655 698 LINE",
"400 278 LINE",
"397 278 LINE",
"141 698 LINE",
"108 698 LINE",
"108 0 LINE"
);
}
);
width = 796;
}
);
unicode = 004D;
},
{
glyphname = N;
lastChange = "2019-12-09 12:24:35 +0000";
layers = (
{
anchors = (
{
name = bottom;
position = "{353, 0}";
},
{
name = top;
position = "{353, 698}";
}
);
layerId = "E49AE6DE-96A1-45B5-978D-9231980F4AB5";
paths = (
{
closed = 1;
nodes = (
"175 0 LINE",
"175 581 LINE",
"178 581 LINE",
"262 426 LINE",
"517 0 LINE {name = hr00;}",
"614 0 LINE",
"614 698 LINE",
"532 698 LINE",
"532 117 LINE",
"529 117 LINE",
"445 272 LINE",
"190 698 LINE",
"93 698 LINE",
"93 0 LINE"
);
}
);
width = 707;
},
{
anchors = (
{
name = bottom;
position = "{362, 0}";
},
{
name = top;
position = "{362, 698}";
}
);
layerId = "5E87F462-D40B-43EC-958D-42003ED2F346";
paths = (
{
closed = 1;
nodes = (
"220 0 LINE",
"220 470 LINE",
"223 470 LINE",
"290 330 LINE",
"481 0 LINE",
"647 0 LINE",
"647 698 LINE",
"504 698 LINE",
"504 228 LINE",
"501 228 LINE",
"434 368 LINE",
"243 698 LINE",
"77 698 LINE",
"77 0 LINE"
);
}
);
width = 724;
},
{
anchors = (
{
name = bottom;
position = "{346, 0}";
},
{
name = top;
position = "{346, 698}";
}
);
layerId = "D69F2138-E7D7-470A-972F-2AC6B0C54BA2";
paths = (
{
closed = 1;
nodes = (
"129 0 LINE",
"129 671 LINE",
"132 671 LINE",
"235 506 LINE",
"552 0 LINE",
"584 0 LINE",
"584 698 LINE",
"563 698 LINE",
"563 27 LINE",
"560 27 LINE",
"375 323 LINE",
"140 698 LINE",
"108 698 LINE",
"108 0 LINE"
);
}
);
width = 692;
}
);
unicode = 004E;
},
{
glyphname = Nacute;
lastChange = "2019-12-12 09:20:18 +0000";
layers = (
{
anchors = (
{
name = bottom;
position = "{353, 0}";
}
);
components = (
{
name = N;
},
{
name = acute.case;
transform = "{1, 0, 0, 1, 53, 0}";
}
);
layerId = "E49AE6DE-96A1-45B5-978D-9231980F4AB5";
width = 707;
},
{
anchors = (
{
name = bottom;
position = "{353, 0}";
}
);
background = {
paths = (
{
closed = 1;
nodes = (
"220 0 LINE",
"220 470 LINE",
"223 470 LINE",
"290 330 LINE",
"481 0 LINE",
"647 0 LINE",
"647 698 LINE",
"504 698 LINE",
"504 228 LINE",
"501 228 LINE",
"434 368 LINE",
"243 698 LINE",
"77 698 LINE",
"77 0 LINE"
);
},
{
closed = 1;
nodes = (
"511 916 LINE",
"388 977 LINE",
"289 783 LINE",
"377 740 LINE"
);
}
);
};
components = (
{
name = N;
},
{
name = acute.case;
transform = "{1, 0, 0, 1, 61, 0}";
}
);
layerId = "5E87F462-D40B-43EC-958D-42003ED2F346";
width = 724;
},
{
anchors = (
{
name = bottom;
position = "{353, 0}";
}
);
background = {
paths = (
{
closed = 1;
nodes = (
"129 0 LINE",
"129 671 LINE",
"132 671 LINE",
"552 0 LINE",
"584 0 LINE",
"584 698 LINE",
"563 698 LINE",
"563 27 LINE",
"560 27 LINE",
"140 698 LINE",
"108 698 LINE",
"108 0 LINE"
);
},
{
closed = 1;
nodes = (
"443 919 LINE",
"424 931 LINE",
"313 777 LINE",
"328 767 LINE"
);
}
);
};
components = (
{
name = N;
},
{
name = acute.case;
transform = "{1, 0, 0, 1, 46, 0}";
}
);
layerId = "D69F2138-E7D7-470A-972F-2AC6B0C54BA2";
width = 692;
}
);
unicode = 0143;
userData = {
com.typemytype.robofont.mark = (
0.6,
0.986,
1,
1
);
};
},
{
glyphname = Ncaron;
lastChange = "2019-12-12 09:20:27 +0000";
layers = (
{
anchors = (
{
name = bottom;
position = "{353, 0}";
}
);
components = (
{
name = N;
},
{
name = caron.case;
transform = "{1, 0, 0, 1, 53, 0}";
}
);
layerId = "E49AE6DE-96A1-45B5-978D-9231980F4AB5";
width = 707;
},
{
anchors = (
{
name = bottom;
position = "{353, 0}";
}
);
background = {
paths = (
{
closed = 1;
nodes = (
"220 0 LINE",
"220 470 LINE",
"223 470 LINE",
"290 330 LINE",
"481 0 LINE",
"647 0 LINE",
"647 698 LINE",
"504 698 LINE",
"504 228 LINE",
"501 228 LINE",
"434 368 LINE",
"243 698 LINE",
"77 698 LINE",
"77 0 LINE"
);
},
{
closed = 1;
nodes = (
"423 748 LINE",
"555 907 LINE",
"482 965 LINE",
"361 850 LINE",
"240 965 LINE",
"167 907 LINE",
"299 748 LINE"
);
}
);
};
components = (
{
name = N;
},
{
name = caron.case;
transform = "{1, 0, 0, 1, 62, 0}";
}
);
layerId = "5E87F462-D40B-43EC-958D-42003ED2F346";
width = 724;
},
{
anchors = (
{
name = bottom;
position = "{353, 0}";
}
);
background = {
paths = (
{
closed = 1;
nodes = (
"129 0 LINE",
"129 671 LINE",
"132 671 LINE",
"552 0 LINE",
"584 0 LINE",
"584 698 LINE",
"563 698 LINE",
"563 27 LINE",
"560 27 LINE",
"140 698 LINE",
"108 698 LINE",
"108 0 LINE"
);
},
{
closed = 1;
nodes = (
"358 783 LINE",
"486 916 LINE",
"472 927 LINE",
"346 800 LINE",
"220 927 LINE",
"206 916 LINE",
"334 783 LINE"
);
}
);
};
components = (
{
name = N;
},
{
name = caron.case;
transform = "{1, 0, 0, 1, 46, 0}";
}
);
layerId = "D69F2138-E7D7-470A-972F-2AC6B0C54BA2";
width = 692;
}
);
unicode = 0147;
userData = {
com.typemytype.robofont.mark = (
0.6,
0.986,
1,
1
);
};
},
{
glyphname = Ncommaaccent;
lastChange = "2019-12-12 09:20:38 +0000";
layers = (
{
anchors = (
{
name = top;
position = "{353, 698}";
}
);
components = (
{
name = N;
},
{
name = commaaccentcomb;
transform = "{1, 0, 0, 1, 353, 0}";
}
);
layerId = "E49AE6DE-96A1-45B5-978D-9231980F4AB5";
width = 707;
},
{
anchors = (
{
name = top;
position = "{353, 698}";
}
);
background = {
paths = (
{
closed = 1;
nodes = (
"220 0 LINE",
"220 470 LINE",
"223 470 LINE",
"290 330 LINE",
"481 0 LINE",
"647 0 LINE",
"647 698 LINE",
"504 698 LINE",
"504 228 LINE",
"501 228 LINE",
"434 368 LINE",
"243 698 LINE",
"77 698 LINE",
"77 0 LINE"
);
},
{
closed = 1;
nodes = (
"363 -275 LINE",
"401 -242 OFFCURVE",
"430 -179 OFFCURVE",
"430 -118 CURVE SMOOTH",
"430 -104 LINE SMOOTH",
"430 -64 OFFCURVE",
"404 -42 OFFCURVE",
"360 -42 CURVE SMOOTH",
"316 -42 OFFCURVE",
"290 -64 OFFCURVE",
"290 -104 CURVE SMOOTH",
"290 -115 LINE SMOOTH",
"290 -144 OFFCURVE",
"302 -173 OFFCURVE",
"340 -176 CURVE",
"330 -216 OFFCURVE",
"312 -246 OFFCURVE",
"278 -275 CURVE"
);
}
);
};
components = (
{
name = N;
},
{
name = commaaccentcomb;
transform = "{1, 0, 0, 1, 362, 0}";
}
);
layerId = "5E87F462-D40B-43EC-958D-42003ED2F346";
width = 724;
},
{
anchors = (
{
name = top;
position = "{353, 698}";
}
);
background = {
paths = (
{
closed = 1;
nodes = (
"129 0 LINE",
"129 671 LINE",
"132 671 LINE",
"552 0 LINE",
"584 0 LINE",
"584 698 LINE",
"563 698 LINE",
"563 27 LINE",
"560 27 LINE",
"140 698 LINE",
"108 698 LINE",
"108 0 LINE"
);
},
{
closed = 1;
nodes = (
"324 -212 LINE",
"350 -183 OFFCURVE",
"369 -133 OFFCURVE",
"369 -99 CURVE SMOOTH",
"369 -88 LINE SMOOTH",
"369 -75 OFFCURVE",
"363 -66 OFFCURVE",
"347 -66 CURVE SMOOTH",
"329 -66 OFFCURVE",
"323 -75 OFFCURVE",
"323 -88 CURVE SMOOTH",
"323 -96 LINE SMOOTH",
"323 -107 OFFCURVE",
"329 -116 OFFCURVE",
"351 -116 CURVE",
"348 -138 OFFCURVE",
"335 -180 OFFCURVE",
"306 -212 CURVE"
);
}
);
};
components = (
{
name = N;
},
{
name = commaaccentcomb;
transform = "{1, 0, 0, 1, 346, 0}";
}
);
layerId = "D69F2138-E7D7-470A-972F-2AC6B0C54BA2";
width = 692;
}
);
unicode = 0145;
userData = {
com.typemytype.robofont.mark = (
0.6,
0.986,
1,
1
);
};
},
{
glyphname = Eng;
lastChange = "2019-12-12 09:41:39 +0000";
layers = (
{
layerId = "E49AE6DE-96A1-45B5-978D-9231980F4AB5";
paths = (
{
closed = 1;
nodes = (
"500 -200 LINE SMOOTH",
"577 -200 OFFCURVE",
"614 -149 OFFCURVE",
"614 -75 CURVE SMOOTH",
"614 698 LINE",
"532 698 LINE",
"532 117 LINE",
"529 117 LINE",
"445 272 LINE",
"190 698 LINE",
"93 698 LINE",
"93 0 LINE",
"175 0 LINE {name = hr00;}",
"175 581 LINE",
"178 581 LINE",
"262 426 LINE",
"517 0 LINE",
"532 0 LINE",
"532 -126 LINE",
"446 -126 LINE",
"446 -200 LINE"
);
}
);
width = 707;
},
{
layerId = "5E87F462-D40B-43EC-958D-42003ED2F346";
paths = (
{
closed = 1;
nodes = (
"499 -200 LINE SMOOTH",
"601 -200 OFFCURVE",
"647 -149 OFFCURVE",
"647 -56 CURVE SMOOTH",
"647 698 LINE",
"504 698 LINE",
"504 228 LINE",
"501 228 LINE",
"434 368 LINE",
"243 698 LINE",
"77 698 LINE",
"77 0 LINE",
"220 0 LINE",
"220 470 LINE",
"223 470 LINE",
"290 330 LINE",
"481 0 LINE",
"504 0 LINE",
"504 -85 LINE",
"420 -85 LINE",
"420 -200 LINE"
);
}
);
width = 724;
},
{
layerId = "D69F2138-E7D7-470A-972F-2AC6B0C54BA2";
paths = (
{
closed = 1;
nodes = (
"555 -200 LINE SMOOTH",
"575 -200 OFFCURVE",
"584 -191 OFFCURVE",
"584 -171 CURVE SMOOTH",
"584 698 LINE",
"563 698 LINE",
"563 27 LINE",
"560 27 LINE",
"343 373 LINE",
"140 698 LINE",
"108 698 LINE",
"108 0 LINE",
"129 0 LINE",
"129 671 LINE",
"132 671 LINE",
"351 321 LINE",
"552 0 LINE",
"563 0 LINE",
"563 -181 LINE",
"478 -181 LINE",
"478 -200 LINE"
);
}
);
width = 692;
}
);
unicode = 014A;
},
{
glyphname = Ntilde;
lastChange = "2019-12-12 09:41:58 +0000";
layers = (
{
anchors = (
{
name = bottom;
position = "{353, 0}";
}
);
components = (
{
name = N;
},
{
name = tilde.case;
transform = "{1, 0, 0, 1, 53, 0}";
}
);
layerId = "E49AE6DE-96A1-45B5-978D-9231980F4AB5";
width = 707;
},
{
anchors = (
{
name = bottom;
position = "{353, 0}";
}
);
background = {
paths = (
{
closed = 1;
nodes = (
"220 0 LINE",
"220 470 LINE",
"223 470 LINE",
"290 330 LINE",
"481 0 LINE",
"647 0 LINE",
"647 698 LINE",
"504 698 LINE",
"504 228 LINE",
"501 228 LINE",
"434 368 LINE",
"243 698 LINE",
"77 698 LINE",
"77 0 LINE"
);
},
{
closed = 1;
nodes = (
"490 762 OFFCURVE",
"527 790 OFFCURVE",
"551 826 CURVE",
"499 894 LINE",
"478 877 OFFCURVE",
"463 869 OFFCURVE",
"440 869 CURVE SMOOTH",
"414 869 OFFCURVE",
"391 879 OFFCURVE",
"362 891 CURVE SMOOTH",
"337 902 OFFCURVE",
"315 911 OFFCURVE",
"285 911 CURVE SMOOTH",
"232 911 OFFCURVE",
"195 883 OFFCURVE",
"171 847 CURVE",
"223 779 LINE",
"244 796 OFFCURVE",
"259 804 OFFCURVE",
"282 804 CURVE SMOOTH",
"308 804 OFFCURVE",
"331 794 OFFCURVE",
"360 782 CURVE SMOOTH",
"385 771 OFFCURVE",
"407 762 OFFCURVE",
"437 762 CURVE SMOOTH"
);
}
);
};
components = (
{
name = N;
},
{
name = tilde.case;
transform = "{1, 0, 0, 1, 62, 0}";
}
);
layerId = "5E87F462-D40B-43EC-958D-42003ED2F346";
width = 724;
},
{
anchors = (
{
name = bottom;
position = "{353, 0}";
}
);
components = (
{
name = N;
},
{
name = tilde.case;
transform = "{1, 0, 0, 1, 46, 0}";
}
);
layerId = "D69F2138-E7D7-470A-972F-2AC6B0C54BA2";
width = 692;
}
);
unicode = 00D1;
userData = {
com.typemytype.robofont.mark = (
0.6,
0.986,
1,
1
);
};
},
{
glyphname = O;
lastChange = "2019-12-09 12:25:03 +0000";
layers = (
{
anchors = (
{
name = bottom;
position = "{354, 0}";
},
{
name = top;
position = "{354, 698}";
}
);
layerId = "E49AE6DE-96A1-45B5-978D-9231980F4AB5";
paths = (
{
closed = 1;
nodes = (
"534 -12 OFFCURVE",
"650 115 OFFCURVE",
"650 349 CURVE SMOOTH",
"650 583 OFFCURVE",
"534 710 OFFCURVE",
"354 710 CURVE SMOOTH",
"174 710 OFFCURVE",
"58 583 OFFCURVE",
"58 349 CURVE SMOOTH",
"58 115 OFFCURVE",
"174 -12 OFFCURVE",
"354 -12 CURVE SMOOTH {name = hr00;}"
);
},
{
closed = 1;
nodes = (
"233 63 OFFCURVE",
"148 153 OFFCURVE",
"148 291 CURVE SMOOTH",
"148 407 LINE SMOOTH",
"148 545 OFFCURVE",
"233 635 OFFCURVE",
"354 635 CURVE SMOOTH",
"475 635 OFFCURVE",
"560 545 OFFCURVE",
"560 407 CURVE SMOOTH",
"560 291 LINE SMOOTH",
"560 153 OFFCURVE",
"475 63 OFFCURVE",
"354 63 CURVE SMOOTH"
);
}
);
width = 708;
},
{
anchors = (
{
name = bottom;
position = "{357, 0}";
},
{
name = top;
position = "{357, 698}";
}
);
layerId = "5E87F462-D40B-43EC-958D-42003ED2F346";
paths = (
{
closed = 1;
nodes = (
"542 -12 OFFCURVE",
"664 112 OFFCURVE",
"664 349 CURVE SMOOTH",
"664 586 OFFCURVE",
"542 710 OFFCURVE",
"357 710 CURVE SMOOTH",
"172 710 OFFCURVE",
"50 586 OFFCURVE",
"50 349 CURVE SMOOTH",
"50 112 OFFCURVE",
"172 -12 OFFCURVE",
"357 -12 CURVE SMOOTH"
);
},
{
closed = 1;
nodes = (
"266 123 OFFCURVE",
"211 186 OFFCURVE",
"211 297 CURVE SMOOTH",
"211 401 LINE SMOOTH",
"211 512 OFFCURVE",
"266 575 OFFCURVE",
"357 575 CURVE SMOOTH",
"448 575 OFFCURVE",
"503 512 OFFCURVE",
"503 401 CURVE SMOOTH",
"503 297 LINE SMOOTH",
"503 186 OFFCURVE",
"448 123 OFFCURVE",
"357 123 CURVE SMOOTH"
);
}
);
width = 714;
},
{
anchors = (
{
name = bottom;
position = "{340, 0}";
},
{
name = top;
position = "{340, 698}";
}
);
layerId = "D69F2138-E7D7-470A-972F-2AC6B0C54BA2";
paths = (
{
closed = 1;
nodes = (
"513 -12 OFFCURVE",
"610 109 OFFCURVE",
"610 349 CURVE SMOOTH",
"610 589 OFFCURVE",
"513 710 OFFCURVE",
"340 710 CURVE SMOOTH",
"167 710 OFFCURVE",
"70 589 OFFCURVE",
"70 349 CURVE SMOOTH",
"70 109 OFFCURVE",
"167 -12 OFFCURVE",
"340 -12 CURVE SMOOTH"
);
},
{
closed = 1;
nodes = (
"187 8 OFFCURVE",
"94 117 OFFCURVE",
"94 328 CURVE SMOOTH",
"94 370 LINE SMOOTH",
"94 581 OFFCURVE",
"187 690 OFFCURVE",
"340 690 CURVE SMOOTH",
"493 690 OFFCURVE",
"586 581 OFFCURVE",
"586 370 CURVE SMOOTH",
"586 328 LINE SMOOTH",
"586 117 OFFCURVE",
"493 8 OFFCURVE",
"340 8 CURVE SMOOTH"
);
}
);
width = 680;
}
);
leftKerningGroup = uc_o;
rightKerningGroup = uc_o;
unicode = 004F;
},
{
glyphname = Oacute;
lastChange = "2019-12-12 05:15:05 +0000";
layers = (
{
components = (
{
name = O;
},
{
name = acute.case;
transform = "{1, 0, 0, 1, 54, 0}";
}
);
layerId = "E49AE6DE-96A1-45B5-978D-9231980F4AB5";
width = 708;
},
{
background = {
paths = (
{
closed = 1;
nodes = (
"542 -12 OFFCURVE",
"664 112 OFFCURVE",
"664 349 CURVE SMOOTH",
"664 586 OFFCURVE",
"542 710 OFFCURVE",
"357 710 CURVE SMOOTH",
"172 710 OFFCURVE",
"50 586 OFFCURVE",
"50 349 CURVE SMOOTH",
"50 112 OFFCURVE",
"172 -12 OFFCURVE",
"357 -12 CURVE SMOOTH"
);
},
{
closed = 1;
nodes = (
"266 123 OFFCURVE",
"211 186 OFFCURVE",
"211 297 CURVE SMOOTH",
"211 401 LINE SMOOTH",
"211 512 OFFCURVE",
"266 575 OFFCURVE",
"357 575 CURVE SMOOTH",
"448 575 OFFCURVE",
"503 512 OFFCURVE",
"503 401 CURVE SMOOTH",
"503 297 LINE SMOOTH",
"503 186 OFFCURVE",
"448 123 OFFCURVE",
"357 123 CURVE SMOOTH"
);
},
{
closed = 1;
nodes = (
"507 916 LINE",
"384 977 LINE",
"285 783 LINE",
"373 740 LINE"
);
}
);
};
components = (
{
name = O;
},
{
name = acute.case;
transform = "{1, 0, 0, 1, 56, 0}";
}
);
layerId = "5E87F462-D40B-43EC-958D-42003ED2F346";
width = 714;
},
{
background = {
paths = (
{
closed = 1;
nodes = (
"513 -12 OFFCURVE",
"610 109 OFFCURVE",
"610 349 CURVE SMOOTH",
"610 589 OFFCURVE",
"513 710 OFFCURVE",
"340 710 CURVE SMOOTH",
"167 710 OFFCURVE",
"70 589 OFFCURVE",
"70 349 CURVE SMOOTH",
"70 109 OFFCURVE",
"167 -12 OFFCURVE",
"340 -12 CURVE SMOOTH"
);
},
{
closed = 1;
nodes = (
"187 8 OFFCURVE",
"94 117 OFFCURVE",
"94 328 CURVE SMOOTH",
"94 370 LINE SMOOTH",
"94 581 OFFCURVE",
"187 690 OFFCURVE",
"340 690 CURVE SMOOTH",
"493 690 OFFCURVE",
"586 581 OFFCURVE",
"586 370 CURVE SMOOTH",
"586 328 LINE SMOOTH",
"586 117 OFFCURVE",
"493 8 OFFCURVE",
"340 8 CURVE SMOOTH"
);
},
{
closed = 1;
nodes = (
"437 919 LINE",
"418 931 LINE",
"307 777 LINE",
"322 767 LINE"
);
}
);
};
components = (
{
name = O;
},
{
name = acute.case;
transform = "{1, 0, 0, 1, 40, 0}";
}
);
layerId = "D69F2138-E7D7-470A-972F-2AC6B0C54BA2";
width = 680;
}
);
leftKerningGroup = uc_o;
rightKerningGroup = uc_o;
unicode = 00D3;
userData = {
com.typemytype.robofont.mark = (
0.6,
0.986,
1,
1
);
};
},
{
glyphname = Obreve;
lastChange = "2019-12-12 05:18:25 +0000";
layers = (
{
components = (
{
name = O;
},
{
name = breve.case;
transform = "{1, 0, 0, 1, 54, 0}";
}
);
layerId = "E49AE6DE-96A1-45B5-978D-9231980F4AB5";
width = 708;
},
{
background = {
paths = (
{
closed = 1;
nodes = (
"542 -12 OFFCURVE",
"664 112 OFFCURVE",
"664 349 CURVE SMOOTH",
"664 586 OFFCURVE",
"542 710 OFFCURVE",
"357 710 CURVE SMOOTH",
"172 710 OFFCURVE",
"50 586 OFFCURVE",
"50 349 CURVE SMOOTH",
"50 112 OFFCURVE",
"172 -12 OFFCURVE",
"357 -12 CURVE SMOOTH"
);
},
{
closed = 1;
nodes = (
"266 123 OFFCURVE",
"211 186 OFFCURVE",
"211 297 CURVE SMOOTH",
"211 401 LINE SMOOTH",
"211 512 OFFCURVE",
"266 575 OFFCURVE",
"357 575 CURVE SMOOTH",
"448 575 OFFCURVE",
"503 512 OFFCURVE",
"503 401 CURVE SMOOTH",
"503 297 LINE SMOOTH",
"503 186 OFFCURVE",
"448 123 OFFCURVE",
"357 123 CURVE SMOOTH"
);
},
{
closed = 1;
nodes = (
"470 740 OFFCURVE",
"523 838 OFFCURVE",
"547 910 CURVE",
"467 952 LINE",
"448 920 LINE SMOOTH",
"419 871 OFFCURVE",
"394 843 OFFCURVE",
"357 843 CURVE SMOOTH",
"320 843 OFFCURVE",
"296 871 OFFCURVE",
"267 920 CURVE SMOOTH",
"248 952 LINE",
"167 910 LINE",
"191 838 OFFCURVE",
"239 740 OFFCURVE",
"357 740 CURVE SMOOTH"
);
}
);
};
components = (
{
name = O;
},
{
name = breve.case;
transform = "{1, 0, 0, 1, 57, 0}";
}
);
layerId = "5E87F462-D40B-43EC-958D-42003ED2F346";
width = 714;
},
{
background = {
paths = (
{
closed = 1;
nodes = (
"513 -12 OFFCURVE",
"610 109 OFFCURVE",
"610 349 CURVE SMOOTH",
"610 589 OFFCURVE",
"513 710 OFFCURVE",
"340 710 CURVE SMOOTH",
"167 710 OFFCURVE",
"70 589 OFFCURVE",
"70 349 CURVE SMOOTH",
"70 109 OFFCURVE",
"167 -12 OFFCURVE",
"340 -12 CURVE SMOOTH"
);
},
{
closed = 1;
nodes = (
"187 8 OFFCURVE",
"94 117 OFFCURVE",
"94 328 CURVE SMOOTH",
"94 370 LINE SMOOTH",
"94 581 OFFCURVE",
"187 690 OFFCURVE",
"340 690 CURVE SMOOTH",
"493 690 OFFCURVE",
"586 581 OFFCURVE",
"586 370 CURVE SMOOTH",
"586 328 LINE SMOOTH",
"586 117 OFFCURVE",
"493 8 OFFCURVE",
"340 8 CURVE SMOOTH"
);
},
{
closed = 1;
nodes = (
"408 786 OFFCURVE",
"435 830 OFFCURVE",
"472 903 CURVE",
"456 910 LINE",
"441 883 LINE SMOOTH",
"406 820 OFFCURVE",
"384 805 OFFCURVE",
"340 805 CURVE SMOOTH",
"296 805 OFFCURVE",
"274 820 OFFCURVE",
"239 883 CURVE SMOOTH",
"224 910 LINE",
"208 903 LINE",
"245 830 OFFCURVE",
"272 786 OFFCURVE",
"340 786 CURVE SMOOTH"
);
}
);
};
components = (
{
name = O;
},
{
name = breve.case;
transform = "{1, 0, 0, 1, 40, 0}";
}
);
layerId = "D69F2138-E7D7-470A-972F-2AC6B0C54BA2";
width = 680;
}
);
leftKerningGroup = uc_o;
rightKerningGroup = uc_o;
unicode = 014E;
userData = {
com.typemytype.robofont.mark = (
0.6,
0.986,
1,
1
);
};
},
{
glyphname = Ocircumflex;
lastChange = "2019-12-12 05:18:56 +0000";
layers = (
{
components = (
{
name = O;
},
{
name = circumflex.case;
transform = "{1, 0, 0, 1, 54, 0}";
}
);
layerId = "E49AE6DE-96A1-45B5-978D-9231980F4AB5";
width = 708;
},
{
background = {
paths = (
{
closed = 1;
nodes = (
"542 -12 OFFCURVE",
"664 112 OFFCURVE",
"664 349 CURVE SMOOTH",
"664 586 OFFCURVE",
"542 710 OFFCURVE",
"357 710 CURVE SMOOTH",
"172 710 OFFCURVE",
"50 586 OFFCURVE",
"50 349 CURVE SMOOTH",
"50 112 OFFCURVE",
"172 -12 OFFCURVE",
"357 -12 CURVE SMOOTH"
);
},
{
closed = 1;
nodes = (
"266 123 OFFCURVE",
"211 186 OFFCURVE",
"211 297 CURVE SMOOTH",
"211 401 LINE SMOOTH",
"211 512 OFFCURVE",
"266 575 OFFCURVE",
"357 575 CURVE SMOOTH",
"448 575 OFFCURVE",
"503 512 OFFCURVE",
"503 401 CURVE SMOOTH",
"503 297 LINE SMOOTH",
"503 186 OFFCURVE",
"448 123 OFFCURVE",
"357 123 CURVE SMOOTH"
);
},
{
closed = 1;
nodes = (
"357 854 LINE",
"478 739 LINE",
"551 797 LINE",
"419 956 LINE",
"295 956 LINE",
"163 797 LINE",
"236 739 LINE"
);
}
);
};
components = (
{
name = O;
},
{
name = circumflex.case;
transform = "{1, 0, 0, 1, 57, 0}";
}
);
layerId = "5E87F462-D40B-43EC-958D-42003ED2F346";
width = 714;
},
{
background = {
paths = (
{
closed = 1;
nodes = (
"513 -12 OFFCURVE",
"610 109 OFFCURVE",
"610 349 CURVE SMOOTH",
"610 589 OFFCURVE",
"513 710 OFFCURVE",
"340 710 CURVE SMOOTH",
"167 710 OFFCURVE",
"70 589 OFFCURVE",
"70 349 CURVE SMOOTH",
"70 109 OFFCURVE",
"167 -12 OFFCURVE",
"340 -12 CURVE SMOOTH"
);
},
{
closed = 1;
nodes = (
"187 8 OFFCURVE",
"94 117 OFFCURVE",
"94 328 CURVE SMOOTH",
"94 370 LINE SMOOTH",
"94 581 OFFCURVE",
"187 690 OFFCURVE",
"340 690 CURVE SMOOTH",
"493 690 OFFCURVE",
"586 581 OFFCURVE",
"586 370 CURVE SMOOTH",
"586 328 LINE SMOOTH",
"586 117 OFFCURVE",
"493 8 OFFCURVE",
"340 8 CURVE SMOOTH"
);
},
{
closed = 1;
nodes = (
"340 906 LINE",
"466 779 LINE",
"480 790 LINE",
"352 923 LINE",
"328 923 LINE",
"200 790 LINE",
"214 779 LINE"
);
}
);
};
components = (
{
name = O;
},
{
name = circumflex.case;
transform = "{1, 0, 0, 1, 40, 0}";
}
);
layerId = "D69F2138-E7D7-470A-972F-2AC6B0C54BA2";
width = 680;
}
);
leftKerningGroup = uc_o;
rightKerningGroup = uc_o;
unicode = 00D4;
userData = {
com.typemytype.robofont.mark = (
0.6,
0.986,
1,
1
);
};
},
{
glyphname = Ocircumflexacute;
lastChange = "2019-12-12 05:19:36 +0000";
layers = (
{
components = (
{
name = O;
},
{
name = circumflexacute.case;
transform = "{1, 0, 0, 1, 354, 0}";
}
);
layerId = "E49AE6DE-96A1-45B5-978D-9231980F4AB5";
width = 708;
},
{
background = {
paths = (
{
closed = 1;
nodes = (
"542 -12 OFFCURVE",
"664 112 OFFCURVE",
"664 349 CURVE SMOOTH",
"664 586 OFFCURVE",
"542 710 OFFCURVE",
"357 710 CURVE SMOOTH",
"172 710 OFFCURVE",
"50 586 OFFCURVE",
"50 349 CURVE SMOOTH",
"50 112 OFFCURVE",
"172 -12 OFFCURVE",
"357 -12 CURVE SMOOTH"
);
},
{
closed = 1;
nodes = (
"266 123 OFFCURVE",
"211 186 OFFCURVE",
"211 297 CURVE SMOOTH",
"211 401 LINE SMOOTH",
"211 512 OFFCURVE",
"266 575 OFFCURVE",
"357 575 CURVE SMOOTH",
"448 575 OFFCURVE",
"503 512 OFFCURVE",
"503 401 CURVE SMOOTH",
"503 297 LINE SMOOTH",
"503 186 OFFCURVE",
"448 123 OFFCURVE",
"357 123 CURVE SMOOTH"
);
},
{
closed = 1;
nodes = (
"357 835 LINE",
"481 731 LINE",
"549 795 LINE",
"404 942 LINE",
"310 942 LINE",
"165 795 LINE",
"233 731 LINE"
);
},
{
closed = 1;
nodes = (
"664 1070 LINE",
"550 1127 LINE",
"451 933 LINE",
"530 894 LINE"
);
}
);
};
components = (
{
name = O;
},
{
name = circumflexacute.case;
transform = "{1, 0, 0, 1, 357, 0}";
}
);
layerId = "5E87F462-D40B-43EC-958D-42003ED2F346";
width = 714;
},
{
background = {
paths = (
{
closed = 1;
nodes = (
"513 -12 OFFCURVE",
"610 109 OFFCURVE",
"610 349 CURVE SMOOTH",
"610 589 OFFCURVE",
"513 710 OFFCURVE",
"340 710 CURVE SMOOTH",
"167 710 OFFCURVE",
"70 589 OFFCURVE",
"70 349 CURVE SMOOTH",
"70 109 OFFCURVE",
"167 -12 OFFCURVE",
"340 -12 CURVE SMOOTH"
);
},
{
closed = 1;
nodes = (
"187 8 OFFCURVE",
"94 117 OFFCURVE",
"94 328 CURVE SMOOTH",
"94 370 LINE SMOOTH",
"94 581 OFFCURVE",
"187 690 OFFCURVE",
"340 690 CURVE SMOOTH",
"493 690 OFFCURVE",
"586 581 OFFCURVE",
"586 370 CURVE SMOOTH",
"586 328 LINE SMOOTH",
"586 117 OFFCURVE",
"493 8 OFFCURVE",
"340 8 CURVE SMOOTH"
);
},
{
closed = 1;
nodes = (
"340 898 LINE",
"466 771 LINE",
"480 782 LINE",
"352 915 LINE",
"328 915 LINE",
"200 782 LINE",
"214 771 LINE"
);
},
{
closed = 1;
nodes = (
"569 1029 LINE",
"550 1041 LINE",
"439 887 LINE",
"454 877 LINE"
);
}
);
};
components = (
{
name = O;
},
{
name = circumflexacute.case;
transform = "{1, 0, 0, 1, 340, 0}";
}
);
layerId = "D69F2138-E7D7-470A-972F-2AC6B0C54BA2";
width = 680;
}
);
leftKerningGroup = uc_o;
rightKerningGroup = uc_o;
unicode = 1ED0;
userData = {
com.typemytype.robofont.mark = (
0.6,
0.986,
1,
1
);
};
},
{
glyphname = Ocircumflexdotbelow;
lastChange = "2019-12-12 05:20:44 +0000";
layers = (
{
components = (
{
name = O;
},
{
name = circumflex.case;
transform = "{1, 0, 0, 1, 54, 0}";
},
{
name = dotbelowcomb;
transform = "{1, 0, 0, 1, 354, 0}";
}
);
layerId = "E49AE6DE-96A1-45B5-978D-9231980F4AB5";
width = 708;
},
{
background = {
paths = (
{
closed = 1;
nodes = (
"542 -12 OFFCURVE",
"664 112 OFFCURVE",
"664 349 CURVE SMOOTH",
"664 586 OFFCURVE",
"542 710 OFFCURVE",
"357 710 CURVE SMOOTH",
"172 710 OFFCURVE",
"50 586 OFFCURVE",
"50 349 CURVE SMOOTH",
"50 112 OFFCURVE",
"172 -12 OFFCURVE",
"357 -12 CURVE SMOOTH"
);
},
{
closed = 1;
nodes = (
"416 -204 OFFCURVE",
"438 -176 OFFCURVE",
"438 -141 CURVE SMOOTH",
"438 -115 LINE SMOOTH",
"438 -80 OFFCURVE",
"416 -52 OFFCURVE",
"357 -52 CURVE SMOOTH",
"298 -52 OFFCURVE",
"276 -80 OFFCURVE",
"276 -115 CURVE SMOOTH",
"276 -141 LINE SMOOTH",
"276 -176 OFFCURVE",
"298 -204 OFFCURVE",
"357 -204 CURVE SMOOTH"
);
},
{
closed = 1;
nodes = (
"266 123 OFFCURVE",
"211 186 OFFCURVE",
"211 297 CURVE SMOOTH",
"211 401 LINE SMOOTH",
"211 512 OFFCURVE",
"266 575 OFFCURVE",
"357 575 CURVE SMOOTH",
"448 575 OFFCURVE",
"503 512 OFFCURVE",
"503 401 CURVE SMOOTH",
"503 297 LINE SMOOTH",
"503 186 OFFCURVE",
"448 123 OFFCURVE",
"357 123 CURVE SMOOTH"
);
},
{
closed = 1;
nodes = (
"357 854 LINE",
"478 739 LINE",
"551 797 LINE",
"419 956 LINE",
"295 956 LINE",
"163 797 LINE",
"236 739 LINE"
);
}
);
};
components = (
{
name = O;
},
{
name = circumflex.case;
transform = "{1, 0, 0, 1, 57, 0}";
},
{
name = dotbelowcomb;
transform = "{1, 0, 0, 1, 357, 0}";
}
);
layerId = "5E87F462-D40B-43EC-958D-42003ED2F346";
width = 714;
},
{
background = {
paths = (
{
closed = 1;
nodes = (
"513 -12 OFFCURVE",
"610 109 OFFCURVE",
"610 349 CURVE SMOOTH",
"610 589 OFFCURVE",
"513 710 OFFCURVE",
"340 710 CURVE SMOOTH",
"167 710 OFFCURVE",
"70 589 OFFCURVE",
"70 349 CURVE SMOOTH",
"70 109 OFFCURVE",
"167 -12 OFFCURVE",
"340 -12 CURVE SMOOTH"
);
},
{
closed = 1;
nodes = (
"357 -134 OFFCURVE",
"363 -124 OFFCURVE",
"363 -113 CURVE SMOOTH",
"363 -106 LINE SMOOTH",
"363 -95 OFFCURVE",
"357 -85 OFFCURVE",
"340 -85 CURVE SMOOTH",
"323 -85 OFFCURVE",
"317 -95 OFFCURVE",
"317 -106 CURVE SMOOTH",
"317 -113 LINE SMOOTH",
"317 -124 OFFCURVE",
"323 -134 OFFCURVE",
"340 -134 CURVE SMOOTH"
);
},
{
closed = 1;
nodes = (
"187 8 OFFCURVE",
"94 117 OFFCURVE",
"94 328 CURVE SMOOTH",
"94 370 LINE SMOOTH",
"94 581 OFFCURVE",
"187 690 OFFCURVE",
"340 690 CURVE SMOOTH",
"493 690 OFFCURVE",
"586 581 OFFCURVE",
"586 370 CURVE SMOOTH",
"586 328 LINE SMOOTH",
"586 117 OFFCURVE",
"493 8 OFFCURVE",
"340 8 CURVE SMOOTH"
);
},
{
closed = 1;
nodes = (
"340 906 LINE",
"466 779 LINE",
"480 790 LINE",
"352 923 LINE",
"328 923 LINE",
"200 790 LINE",
"214 779 LINE"
);
}
);
};
components = (
{
name = O;
},
{
name = circumflex.case;
transform = "{1, 0, 0, 1, 40, 0}";
},
{
name = dotbelowcomb;
transform = "{1, 0, 0, 1, 340, 0}";
}
);
layerId = "D69F2138-E7D7-470A-972F-2AC6B0C54BA2";
width = 680;
}
);
leftKerningGroup = uc_o;
rightKerningGroup = uc_o;
unicode = 1ED8;
userData = {
com.typemytype.robofont.mark = (
0.6,
0.986,
1,
1
);
};
},
{
glyphname = Ocircumflexgrave;
lastChange = "2019-12-12 05:21:29 +0000";
layers = (
{
components = (
{
name = O;
},
{
name = circumflexgrave.case;
transform = "{1, 0, 0, 1, 354, 0}";
}
);
layerId = "E49AE6DE-96A1-45B5-978D-9231980F4AB5";
width = 708;
},
{
background = {
paths = (
{
closed = 1;
nodes = (
"542 -12 OFFCURVE",
"664 112 OFFCURVE",
"664 349 CURVE SMOOTH",
"664 586 OFFCURVE",
"542 710 OFFCURVE",
"357 710 CURVE SMOOTH",
"172 710 OFFCURVE",
"50 586 OFFCURVE",
"50 349 CURVE SMOOTH",
"50 112 OFFCURVE",
"172 -12 OFFCURVE",
"357 -12 CURVE SMOOTH"
);
},
{
closed = 1;
nodes = (
"266 123 OFFCURVE",
"211 186 OFFCURVE",
"211 297 CURVE SMOOTH",
"211 401 LINE SMOOTH",
"211 512 OFFCURVE",
"266 575 OFFCURVE",
"357 575 CURVE SMOOTH",
"448 575 OFFCURVE",
"503 512 OFFCURVE",
"503 401 CURVE SMOOTH",
"503 297 LINE SMOOTH",
"503 186 OFFCURVE",
"448 123 OFFCURVE",
"357 123 CURVE SMOOTH"
);
},
{
closed = 1;
nodes = (
"263 933 LINE",
"164 1127 LINE",
"50 1070 LINE",
"184 894 LINE"
);
},
{
closed = 1;
nodes = (
"357 835 LINE",
"481 731 LINE",
"549 795 LINE",
"404 942 LINE",
"310 942 LINE",
"165 795 LINE",
"233 731 LINE"
);
}
);
};
components = (
{
name = O;
},
{
name = circumflexgrave.case;
transform = "{1, 0, 0, 1, 357, 0}";
}
);
layerId = "5E87F462-D40B-43EC-958D-42003ED2F346";
width = 714;
},
{
background = {
paths = (
{
closed = 1;
nodes = (
"513 -12 OFFCURVE",
"610 109 OFFCURVE",
"610 349 CURVE SMOOTH",
"610 589 OFFCURVE",
"513 710 OFFCURVE",
"340 710 CURVE SMOOTH",
"167 710 OFFCURVE",
"70 589 OFFCURVE",
"70 349 CURVE SMOOTH",
"70 109 OFFCURVE",
"167 -12 OFFCURVE",
"340 -12 CURVE SMOOTH"
);
},
{
closed = 1;
nodes = (
"187 8 OFFCURVE",
"94 117 OFFCURVE",
"94 328 CURVE SMOOTH",
"94 370 LINE SMOOTH",
"94 581 OFFCURVE",
"187 690 OFFCURVE",
"340 690 CURVE SMOOTH",
"493 690 OFFCURVE",
"586 581 OFFCURVE",
"586 370 CURVE SMOOTH",
"586 328 LINE SMOOTH",
"586 117 OFFCURVE",
"493 8 OFFCURVE",
"340 8 CURVE SMOOTH"
);
},
{
closed = 1;
nodes = (
"241 887 LINE",
"130 1041 LINE",
"111 1029 LINE",
"226 877 LINE"
);
},
{
closed = 1;
nodes = (
"340 898 LINE",
"466 771 LINE",
"480 782 LINE",
"352 915 LINE",
"328 915 LINE",
"200 782 LINE",
"214 771 LINE"
);
}
);
};
components = (
{
name = O;
},
{
name = circumflexgrave.case;
transform = "{1, 0, 0, 1, 340, 0}";
}
);
layerId = "D69F2138-E7D7-470A-972F-2AC6B0C54BA2";
width = 680;
}
);
leftKerningGroup = uc_o;
rightKerningGroup = uc_o;
unicode = 1ED2;
userData = {
com.typemytype.robofont.mark = (
0.6,
0.986,
1,
1
);
};
},
{
glyphname = Ocircumflexhookabove;
lastChange = "2019-12-12 05:22:49 +0000";
layers = (
{
components = (
{
name = O;
},
{
name = circumflexhook.case;
transform = "{1, 0, 0, 1, 354, 0}";
}
);
layerId = "E49AE6DE-96A1-45B5-978D-9231980F4AB5";
width = 708;
},
{
background = {
paths = (
{
closed = 1;
nodes = (
"542 -12 OFFCURVE",
"664 112 OFFCURVE",
"664 349 CURVE SMOOTH",
"664 586 OFFCURVE",
"542 710 OFFCURVE",
"357 710 CURVE SMOOTH",
"172 710 OFFCURVE",
"50 586 OFFCURVE",
"50 349 CURVE SMOOTH",
"50 112 OFFCURVE",
"172 -12 OFFCURVE",
"357 -12 CURVE SMOOTH"
);
},
{
closed = 1;
nodes = (
"266 123 OFFCURVE",
"211 186 OFFCURVE",
"211 297 CURVE SMOOTH",
"211 401 LINE SMOOTH",
"211 512 OFFCURVE",
"266 575 OFFCURVE",
"357 575 CURVE SMOOTH",
"448 575 OFFCURVE",
"503 512 OFFCURVE",
"503 401 CURVE SMOOTH",
"503 297 LINE SMOOTH",
"503 186 OFFCURVE",
"448 123 OFFCURVE",
"357 123 CURVE SMOOTH"
);
},
{
closed = 1;
nodes = (
"357 835 LINE",
"481 731 LINE",
"549 795 LINE",
"404 942 LINE",
"310 942 LINE",
"165 795 LINE",
"233 731 LINE"
);
},
{
closed = 1;
nodes = (
"564 914 LINE SMOOTH",
"597 954 OFFCURVE",
"627 1001 OFFCURVE",
"627 1041 CURVE SMOOTH",
"627 1079 OFFCURVE",
"603 1113 OFFCURVE",
"529 1113 CURVE SMOOTH",
"395 1113 LINE",
"395 1012 LINE",
"514 1012 LINE",
"471 915 LINE",
"537 881 LINE"
);
}
);
};
components = (
{
name = O;
},
{
name = circumflexhook.case;
transform = "{1, 0, 0, 1, 357, 0}";
}
);
layerId = "5E87F462-D40B-43EC-958D-42003ED2F346";
width = 714;
},
{
background = {
paths = (
{
closed = 1;
nodes = (
"513 -12 OFFCURVE",
"610 109 OFFCURVE",
"610 349 CURVE SMOOTH",
"610 589 OFFCURVE",
"513 710 OFFCURVE",
"340 710 CURVE SMOOTH",
"167 710 OFFCURVE",
"70 589 OFFCURVE",
"70 349 CURVE SMOOTH",
"70 109 OFFCURVE",
"167 -12 OFFCURVE",
"340 -12 CURVE SMOOTH"
);
},
{
closed = 1;
nodes = (
"187 8 OFFCURVE",
"94 117 OFFCURVE",
"94 328 CURVE SMOOTH",
"94 370 LINE SMOOTH",
"94 581 OFFCURVE",
"187 690 OFFCURVE",
"340 690 CURVE SMOOTH",
"493 690 OFFCURVE",
"586 581 OFFCURVE",
"586 370 CURVE SMOOTH",
"586 328 LINE SMOOTH",
"586 117 OFFCURVE",
"493 8 OFFCURVE",
"340 8 CURVE SMOOTH"
);
},
{
closed = 1;
nodes = (
"340 898 LINE",
"466 771 LINE",
"480 782 LINE",
"352 915 LINE",
"328 915 LINE",
"200 782 LINE",
"214 771 LINE"
);
},
{
closed = 1;
nodes = (
"508 951 LINE SMOOTH",
"534 991 OFFCURVE",
"539 1001 OFFCURVE",
"539 1009 CURVE SMOOTH",
"539 1020 OFFCURVE",
"531 1027 OFFCURVE",
"516 1027 CURVE SMOOTH",
"379 1027 LINE",
"379 1009 LINE",
"520 1009 LINE",
"443 883 LINE",
"459 875 LINE"
);
}
);
};
components = (
{
name = O;
},
{
name = circumflexhook.case;
transform = "{1, 0, 0, 1, 340, 0}";
}
);
layerId = "D69F2138-E7D7-470A-972F-2AC6B0C54BA2";
width = 680;
}
);
rightKerningGroup = uc_o;
unicode = 1ED4;
userData = {
com.typemytype.robofont.mark = (
0.6,
0.986,
1,
1
);
};
},
